<mxfile host="app.diagrams.net" modified="2020-11-21T09:44:38.074Z" agent="5.0 (Macintosh; Intel Mac OS X 10_15_7) AppleWebKit/537.36 (KHTML, like Gecko) Chrome/86.0.4240.198 Safari/537.36" etag="og-aK5ds9BViFUgD5DB_" version="13.8.8" type="github">
  <diagram id="4K1lBhTVDv3SQonV1UwC" name="第 1 页">
    <mxGraphModel dx="946" dy="572" grid="1" gridSize="10" guides="1" tooltips="1" connect="1" arrows="1" fold="1" page="1" pageScale="1" pageWidth="827" pageHeight="1169" math="0" shadow="0">
      <root>
        <mxCell id="0" />
        <mxCell id="1" parent="0" />
        <mxCell id="zvJhBDL-8vIWppmXYAba-51" value="" style="shape=image;verticalLabelPosition=bottom;labelBackgroundColor=#ffffff;verticalAlign=top;aspect=fixed;imageAspect=0;image=data:image/png,iVBORw0KGgoAAAANSUhEUgAAA/sAAAJMCAYAAAClwLZDAAAgAElEQVR4AezdCax1RZUvcDUOEUUcQWVQBplUQBFUFFBxRHEWHAClUREVRMAJMQzaOBEQEQmISlAEIyhEUCKDQSAtEkGiYhCNYFCjrWm7090v/d7L2y+/kv+h7v7OPfd+97v3nnPurUrO2XvXuGqtVavWWlW79n26FhoGGgYaBhoGGgYaBhoGGgYaBhoGGgYaBhoGGgZWFAbus6J60zrTMNAw0DDQMNAw0DDQMNAw0DDQMNAw0DDQMNAw0DVjvzFBw0DDQMNAw0DDQMNAw0DDQMNAw0DDQMNAw8AKw0Az9lcYQVt3GgYaBhoGGgYaBhoGGgYaBhoGGgYaBhoGGgaasd94oGGgYaBhoGGgYaBhoGGgYaBhoGGgYaBhoGFghWGgGfsrjKCtOw0DDQMNAw0DDQMNAw0DDQMNAw0DDQMNAw0DzdhvPNAw0DDQMNAw0DDQMNAw0DDQMNAw0DDQMNAwsMIw0Iz9FUbQ1p2GgYaBhoGGgYaBhoGGgYaBhoGGgYaBhoGGgbEb+//7f//vGVT4f//v/3X/9//+3xlxeZDm1w//63/9r+6//uu/ZkQPyzcjQ3tYFgz893//d/c///M/s9J0WYBojSwZBtD2P//zPwuN00honudpvpIj5Mv/+T//Z9AN/fuP//iPGXGDxHYzdRgI/6I1fk6o7xPXrmtiwNio5+xh8/GapVrMNGEAfelqrsbJStav8HP0Uv3NL/3Os2sLk4+B0BKkZD35JKwEHq77oF/1nFX3W3/Dt6Xz7W9qMICuNS3doyUdVCCvaj6o89adHLuxH2AAqwMAz68PdOJTJlf56rx95CRfu44PA2jSDKTx4X+hLddCJHWIMxaNuQicpJlMGcMrJeiLvgrkEz7mWHTfwvRjAC/XChL+jeN4GO9Pf48XtwcZB8aIsVEHz3ArbRguh8XV5dv95GEAPWtda/IgXDuI/u3f/m1GgdnmLv2u5YRCKwkPM5Cwgh7QKHRCv8h2XZyN1tPYfbKUvE1f9cG9eP3W1zqNTO7rbtPY75UOM/rVfOq+P8+ag+u5VHo/DzxNjLE/G9HCoDpEEfOLgpG0flnxfcHcz9OelwcDmC70SoueI4AS166TiYFaiARCccZYX6AYm3WYbXzWeabhXj8oCX2Z8re//W0awG8wNgwsGQb6MoACWct76cbPMDmyZEC1ihcNA2R6X+6pXNy///u/L1o746oIX6Z/9T146v4xjmq+lt5/HlcfWruzY2CU3KmNqNlrWLkpK0U/W7kU+kfP0In86Qf6J/7up8ubebcuM3Zjn6AdJTSlD2NKcSk7W/lRA71GQrtfOgygAfqEXsOYdulabzWvKwbQLz907I+pv//97zMccNJNon6zjct1hWk5y/f7i38bDy8nBZa+LbIJv9a0xrt/+ctflr7xKW/BHBwnfMYFfDL6yYY6wG/9q9Pa/eRjwBhBa9fQevKhnhvCeq7Cz7UDCx+LS9Bv/L2S+p++rdQr+qEjuqEtuVTTeJr7jQ/reUtf9Df8WfO2NHmHlZlmHKxk2EPH0I78rXlXOnr79fmgj5exG/sGYIwIV89+/YBpE+p7ccrpLCS4T5ir88nXrsuLATRCQwK4hcnHQCYIY6weX8Mgnyt9WJlJj9N//FoLXv1s8mXSKbd28GXiHDb/rF1Nqy+3sTCXwgG/cFuPo9WHqenqcfSxlSrv8Gwd+sp0nbbScVH3dSXdkze1gaRvdM9//dd/nfpu1rLUvX55NaXfXx01huXxCy9PPQJWQQeif/ZlVU370HeUTjp2Yz+0mg3Iu+66q/ve977Xfe5zn+tOPPHE8nMvTtqwkLr6yBiWt8UtLQZMngl//etfu+9///vdqaee2n3iE5/oPvWpT3UnnHBC+00wDtDJuDvuuOO6j33sY93xxx/f/fM//3P3mc98ptDxxz/+8RoreOhtDPZX9sIH03TtOxYpCNdff3139tlnd8cee2zj3Qnm3fnIli984Qvdj370ozW27A5TlqaJb5cLVmN82Dwr/l/+5V+6U045pcgKMoPsIEPIEjKFbJkPjVqe8c2Rkf+nnXZad+WVV84YJ/333ZeL5xaznXqrfl/W33HHHd03v/nN7owzzii8++EPf7hcTzrppDIH4ufGm+PjzfngHs3Ink9/+tNlzr7pppvmXLBYTP5azrqGLbTcdtttxVaic8OFX+TvfPDX8oyXv9lI6PWBD3yg+/jHP9594xvf6G644YZZHVUcApmPYweHByfC2I/HKUB5P/aaa67pTj/99G6nnXbqnvzkJ3dbbrllt8kmm5Sfe3HS5NH5dFAd6ssvdbbr+DDw5z//uTvnnHO6/fbbr9thhx26JzzhCd0Tn/jEbquttmq/KcHBk570pC6/mm7i9tlnn0JfzhxhJa3exWFBJn3xi1/sXvziF3fbbLNNt9lmm3UbbbRR498p4d+aZ+v7zTffvHvOc57TvfOd7+y+/e1vzxCSw5SnGRnaQ8GAuTeGkvFy7rnndq985SvL2DBX1/iODMm1Tmv3kzcfmqc33XTTMmfTt/bff//uq1/9amdOX0mB4yI7Df/0pz91Z511Vvfe9763zHl42G+LLbYoV3yauMazk8ezNU3QiazBx+533XXX7i1veUt3wQUXrAj2nW2Ouv3224tO9uxnP7t72tOeVnQWOKB7m/PgZNttt50hm2u8tfvJ4OvHP/7x3dZbb9095SlP6bbbbrvCw2zf97znPd1Pf/rTIodro56xT//GF7VNjNknwtinSEfQAtSq/Wte85rukY98ZJlcGPQ/+9nPOsaEn3txJp7111+/5L3iiisG7w7rcI2AFTGqp7QTVvZ5whn5O+64Y/GM//rXvy70/t3vflc8VFZL228ycUCpM+Yo8VZBKEWUoTvvvLOz8vH5z3++TCYmEh70TD7y94XNlLJwd/fdd3cf/OAHi9ClLDD69f/3v/9949spH7s33nhjd+SRRxbaMmbQNoZrrtPKt8sFd1ZHjXcraBTFnXfeubMaTNYbK2SGA4XkJRvIFGciNLk/mXI/dDFHo5kVwmOOOaZ76lOfWuZyO7si65eLz5ayncxVrlYz6St+X/nKV8rOH7xKHpgP8TS8NP6dbN7Fw/SVP/7xj2UX8E9+8pOyQsrQZQRzSk57yA40YzHbvPGmlWBOugMOOKD77Gc/2+k7XJC99Bm6C17OOG/XyeRldjE5Yw71u/rqq7tDDjmkyKbtt9++0FV6Avk1m+07dmO//+7IJz/5yeJ9etGLXtRdfvnlBXDAz/a77rrrut1337172MMe1l188cXFwIjg5kSYrVzig6R2XRgGCJta0MA9vCdQEBiCPFH1akCdJ3nbdToxYKI4+uijy0q3yUXIGJz0HpE/CfgY3K7kQ8Jb3/rW4lG1BU7A83V68rXrdGKAEm8iPfjgg8s8Ytuu0Gj8Dxxkrhx2hafIcuNj44037t73vvcVY346uaFBPRsGOGg4bY444ohuww03LNtLyUqBERE+EFfL1dnqm4T4PpyHH354WflkLNWvIE4CrA2GhWEgNCa/0NTrv/TShzzkIWVbtFrlSb5J+srOMJlbx4Hd3CXE8H/DG95QbCiO1zrvsPtSsP1NLAbQLCHOHM8Wty2I253BISmEfyO3+jr42I19QGbC4GljuFO6rLgAfhiD1nEQwJO17777Fk+Wd4iFGJZ13mH3JXP7WzAGwoBwK4ThPHs/HzO+613vKkpCGkHvrAYlrl2nEwMMJULFBGn1m7fRmRpCeGOSexa+BSO+rAWkZzuInvGMZxTlwAqBkDI85S1MNwZqOfTLX/6ye9Ob3lSUfY7mFuY29oO/b33rW90uu+xSnLpWjTKnNxxONwYiD8nyzO2/+c1vune84x3llcr61ZcY+9PW4yjHXk+w+7A5q6aNgqPhDd/KZe7G01ZILUzstttuxdaQFv7N/D4J+gtYRv1qGBn7zkKxuMbQ159RZdPP0dhrqZOCgb5+arfVnnvu2T3/+c8vK/xJD0/E+RP4J8LYBwwAn/e855XBF4Nd/HyZlcHv3YYXvvCFZbtKOjjf8snfrmuHgVqQomEY7Q9/+EMRpibPm2++uVSKFklvyuDa4XlScxMooelvf/vbsj2OAMIXNW9MKvw1XPizhtn2qOc+97ndHnvsURyK8lIUogD3hWldV7ufDgyEdwPtL37xi+7Rj350d9BBByVqVV/nmj8zFl772tcWx+4tt9xS8CVe2RamGwMxhEPn9IbB79wSq0vmeiF5k2darmQAfcTZM09/+tPLNn2w92XDtPSnwTkTA/WcXsukn//85+VVYbs4hHo+l6/P8zNrXZ6n+cpf0Nieb2GCvpK+zFV+eXrRWlkoBvBg/Tphzb/qtKrPuePwPqGed/v8O3ZjP0x53nnnFaAdjJJA2M7FrBBha5lw2WWXdfe5z30G2xpMPnOVT1vtujAM1AyFXmFMDhur+t4XSrDi08LKxEC84k43986uE86nIfSdTrWC5xUh7/edfPLJg65IJ7PqfIPEdjOVGLArpZ5Erezh4ewOm8pOLRLQ85k/GX7OO3j3u989wGOtYC8SKK2aMWAgcj1Ne2UrY8Urlw6Q8tUFwS6PpCX/pF8D76233lpW9fUpoe3cCiam+1rLoqx2p0d777132ZHEUK7DpDiu5iN/8872JZdcUmyoSy+9tHSFjjKf8nW/2/3kYQAdaz2V/ok/w6NW9h2ImzCbbjp2Yz/bgHlVrQLHWExH5sOsEcrKOFTl9a9/fTmAIl6OUXUEQe26MAxgQj+4do3zxva+xz3ucQNFQBo6COhVC+CFtdxKTQIGQkfvbAoO7XvEIx4xw8kzCXDOBkPtrJIH/+JTssTn9Zxea3t30lwziUZWlcT2N/UYwMvoz8nDaexVstUeRs2d0sh1nwNy0jVnu5DDdlc77lZC/9HYmOgb/ehuJ9d6663XXXTRRaWr0dk8RPeadBxE/jto1gqZnT1CXk+ZdPgbfHNjoOZFc3bNyz6tSF+pdxPj90mZ2+eSv3oPXuEjH/lIOUsD7Dl3YD7l58ZgyzFuDKBjdO3AEtl11FFHlfmX012IPZx8uY7d2NcJKyhO7z3ssMMKXPWkMR9mNfEIlAzvC9teFqE9n/JBRruuPQbgF9NFOLo3Udpewuv/q1/9ao1KGYah2RqJLWKqMJCxmnFG0DzmMY/pfB80aZPcoT4fho/B7jvKjH3bVCNY9TP9ioNjkvvXYBuNgdAwCiD6mjQZ++29/blfoyPr7coj6zlJhIypjJnRFGipk44BY0LIGHFvlx6n5wMf+MDuS1/6UjE4oozKL21a6A9Wst7hkmR9jKdJp0uDb34YwIeRSUq4x6N+Tqkn62Ps44U4esL382tlaXIFztmuGZN0kgMPPLDYPiCJHjNbucQvDdSt1sXCQC1D0bTmY23gVWfdOTA1Nq845fByHcZu7APGuzNW5M8///wCWwabzoUpZ7sSzLUn48orryyf47PCKMxWLvElU/tbZwwQNnAqoJ8TrTfZZJPyHlGEa82469xgq2AiMIDmmXBiOFkh8WmmTDgTAegcQIQ30xfZjz322LKN33kg4W183heic1TdkicYA+jOSMlKCFDR+wEPeED5BOwEg74soGWenO0KiAsvvLB77GMfu8ZOiMiDZQG0NbLkGDBWIgdD2/vf//7l86u1TIwszXXJAVvHBsB+yimnlK/J+OJA+th2qKwjYiekePTPYeDccMMNxdj3zXLzANpHB4jzali55YqbTe4mPuMO3zpw0AHJCRmvyTvsmrztOpkYCC+CruZH8dGvzb+c7XkVBd3xRd8xMHZjH0DXXHNN8Ug50VfAlAnDGLSOk08d3iUTfJLAAUtXXXVVGbR13mH3aadd1w0DmC/MyAHjFHPGvm/SxlNeT/7Ju26tttKTgIGsdMdJR/H3eaZpCpk00xewO9nWO/uMPyHC1X1tHJbE9je1GMgkGQOGh/y+973vYKV6aju2CIAPmzPrOE2ceeaZxdi3rVta5P0iNN+qmAAMMHrruTsgobNV0VNPPTVRhf5RMqdljif76Ss+xZZ+4uMWph8D6Bl5Naw3Vvbvd7/7lRX+zP2TxLeBfbarPkXv8hWzLbbYothDkcGzlUv8MJy0uMnDAD4OTUEXGevewprdtHYlxQ6OHKt7MnZjH9NZ2ffeTA71AmgU62EeinRWWjoVLyxFzQR0++23z0BI3el2v7gY6AtHdHFQ26abblq+aRrGDK20Xt8vLjSttuXEQE1HYxntCR6Gcui+nPCsbVtgTqjvxdnaaZdCfSiV/iX0+T7x7TpdGMgkGn713WJzyA9+8IPp6sgYoIWzr33ta2UbYX22RX8sjQG01uQiYGAYHcWR++SflX2HKntO3npOWAQQlrSKjHmfKrNIRI/Uj1rOLykArfKxYsDhkhy7jP7wbXgi/DxWAOfReMajlX1np2Qsph/zqKJlmWIMfPnLX+4e9ahHDQ4Uno3uYzf2bcFnmHtn3wETdcgWBpMK4eta3ydvDH0OgpNOOqnU5RNAGbzJ165LgwE0qQNaNWO/xsjKva/HWJSkZuyvXHqvxJ41Y3/hVKVYNGN/4fib9JLDDJ4YF+b9ZuxPOgUbfKMw0Iz9UdhpadOAgakx9iHzrrvu6t74xjeWb3QHuVnZ92xyqb0V7utJKMqavLvvvns51d/qTAvLg4Fm7C8PniexlWbsTyJVGkxrg4HMH5lj2sr+/LHXjP3542oac9Z6VuBvxn4w0a7TjoFm7E87BRv8U2XsWwk+4YQTyjveDsoQslrvXnptVLgXl5Bn79Zus8025VRKadkZkHztujQYaMb+0uB1GmqtxyUl0LhsK/vTQLkGYzDQjP1gYu2vzdhfe5xNU4lm7E8TtRqsa4uBZuyvLcZa/knDwNQY+1lN8c7M05/+9G6//fYb4NK7sowJB2cw3OX1cy9OWu0U2Geffcqp/rbwC7UhMqi03Sw6Bpqxv+gonZoK6zHWjP2pIVsDtMJAM/YrZKzlbTP21xJhU5a9GftTRrAG7lphoBn7a4WulnkCMTA1xj5jIVv2nerqJG+Hew0LMfb7aSak0047rRzy53NZUd76+drz0mCgGftLg9dpqLUZ+9NApQbjKAxkvjC/CG0b/yhszUxrxv5MfKy0p2bsrzSKtv7UGGjGfo2Ndj+NGJgaYx9yHdInWMl/61vfWlb4HdbnUwL1yn2fENKU+dSnPtU94QlP6F7zmtfMWM0fVbZfV3teOAaasb9w3E17yWbsTzsFG/zN2F84DzRjf+G4m4aSzdifBio1GBeKgWbsLxRzrdykYGCqjH1I863IrPDbjr/xxhuXLf033HBD98c//rFs32dU+lEwxEl70Yte1K2//vrdG97whgHuKW+paxDZbpYMA83YXzLUTnzFzdifeBI1AOfAQDP250DQiORm7I9AzgpIasb+CiBi68KsGGjG/qyoaQlTgoGJMfYZA96xz6RRG4YUBUa5a22g//3vf+9OOeWU8gm9zTbbrHvmM5/Zvfe97y2H+Pke6tve9rZy6v4mm2zS7bLLLt3nP//5gXGv/rzTb9W/NvrrtqeEjlMBZh+vDmlbrk/vZVcIROGxnO9QH+BY84B0Ab/VeTxH6Q/S8WVtzCa/fIlP31OvsrnHh0J4333qqO+108+TOuSTnvwpn6v4wJC8yV8K3XN2hTx+gUla+pB8C7nWdegDuFbTAX36POpHlgVH8oU2oZ80NMkuJNfwq/wJNW/WdYqv6a/eOq/ynkP31C1e25ysw0JgBm+/PvnBKc1vtjpSb92PxOUa2P/yl78MxkDdp+Ap+V1rmNwnKGfcpM5R7aaMa/qXuto2/ho7o+/hbNSn9/AJOoTP1YYX//znPw8qRuPIu9AAT4UHZax5THzy5ZrK+s/ijRe/tQnhHeMl98rjrfpZHP7J+PKsP3mW3z2Y3Qe+8Gh4T7k6TRlpGa9JC39HXihn7AipC3yBMeWlK1uPp9SZvPLU9aYPoUOe04749um9gvoF/4VWs13RCE3CLxr629/+VtrLmEnZAOE5NBP317/+tSSF3h4ynuhP6lYGr9TtyJfn8E3NT9qo21G/ehLcp3zqqssn3zivzdhfWuzX8iQyuOaBmj/wS/gsUNX8JM4zPpNPPTVPp4xr3YZ2I7Ok1W32y0fmpt3Ibu3VedVft1G3vdz3E2Ps63gtECA6iJoLWbfddlt3+umnd/vvv3+32267dQ960IPKe/mMfwY/g/KOO+6YgduaIHXbYZJk9hyCJq5dF4aBevCowcBYLmM/PJSJb7YehO+isGQCxQOpQ1n5TIT9PklLG7mKq8uK/9Of/jSjLH6sBZ4yniPUpBsf4OrzrrxC4sGasZRrDac6I1CVc08xqGF0n7b/Ufu6/QcOtYBP3c3Yv9cBUGMXrYIv9/AV2taTkTg/uOzzDpoqJ3Bm1rwYBU6a+j3XceJr55j6A0eUPnGps4Yp7bn2gzrqoI+BMf2Vrk/yaiPx/f7V8AaOuu76Xh1gTF112trcp5+hRTP25489OBtl7I+qyddzEsIvoUXiXYfF1TTv859xETlIHtd5xeM5dcZo0oZ+1Pnq9sXXMLg3XsK70oeVreUu5wa+F+TV35Tpw1+3rQzY6vaTHiNOf+uQcaNc5ruke67hkKc/J4Cnhsk9eCM79NuzupqxH8wu7AqPo351raFbHeeezETHOtRyNPF2w9Y8yUnUr1M9oXfKee7ny/gCuzL4M/ysXO7DM6nLVX7lwqd12nLfN2N/+TAentEinsIjfflElkWu9iHr83jS1YWv/ZT1nDaMA7wmKK/N8HLiwVDDJm89Tkrhe/7weeqv48d5P1HGPuT4QWoQBWmQH8RDlji/fpDvrrvu6p797Gd3r3/968uqQIRJnRdhhwkQRA1htSdP3W5dR7tfewyEpikJt8tl7GsTbTM4CQtKUGCq+UlcJsEIGbxlQvKsjpRLX+o4gqTmm+T9/e9/P7SsOmo+re8Dd4SMPoBFqAVW3V5JrP7C6+HtJPWfxWs74y3tpO2UW8i17pN2wduM/XsVODiFkxpPfZ6UBy1ifODResLDg3ga3WoZyYCo65Ue2otPfer+zW9+U8gb2nuo89ZKWdoWV6/AGiPKgKc21ErFPY956qj7mvaSP1f1JcifcaUPjLWMVXnq/qZu+FUm9buHwzpv6h92TT3BTTP2h2FpeBycjTL2I2PwS3gseFZjaJ3ah9EsvIQuN998c7KW8aC8+lzruuo2FMAbw3hCvJ928VFdrs9PGcc1P6o7cth9DQve/e1vfzuANze1cQ7mmv+Vh7O6LynnCgb563EZ/CRf6gvu9ePWW28tB0/Ko6/iwvfitKfuhOBB33Kf9FylNWM/GFvYFR1G/cj98FB4Av7FKyeQ87kPFDVPSGfoJyiP9ikjPbtD5MEfNW+kHHr/6le/Ko+BJWn9a3hGvHbCi57746dfdjmfm7G/tNjGB6E3HghfREaNaj158WudH2/mGR8aCwn1/EHe+5G3NRzJq6z0hLps4oyjmncTL2/0q8SN6zpRxn6QAGkRMIlDBIgbhmhpNUK333777hWveEWKFoGEkYaVna1OTJLJalBRu1knDPQFP/wup7FfT0yf+MQnukMPPbT74he/WPpUD1QKz7ve9a7ySshBBx3UHXzwweV3wgkndD/4wQ8Ggugb3/hGd+SRR3Y/+tGPijCIMoenwr/q/c53vtMdeOCBZdeJz0Y+//nP797//vd3P/7xj4fik+CoeRXe6ucUwvfaiUATj8+Vr3EdIVhP7PKCNzCnTop2v63FGAd1nWBWZzP271Xggv9cL7zwwu6AAw7o/umf/qmcSeJTo3jyzW9+c3fEEUd0djMlMBb8hPCd+74MSx5pJq968pMXfzvb5Prrrx/wVSbgUvk9f2h38skndy95yUu65zznOd22225bxoexzNkq4HuvVMnzwx/+cIYsrfk1k2ifD/GqfPgm+d2Dh+KVvvR50xjHw8GDMZKgrYwl6eHDpM91jfxInc3Ynwtj96bD2ShjH/3tvsNP5C1aRz65D85DAzWHxrmiu98hhxzSvfzlL+9+9rOfDfLU5WrZKB5P1XGpW3z4v+Yz7ckPJj9p4dF7e3zvXcq66kvgleOb3/xm+QzwWWedVQrUddX5UhucpD5tp1/ygrUeF5/73OfKXPP1r399kC/11Fd1qkfZV73qVWU3ZNLhUwj+3RtHaddzPd5K5t6f/M3Y7yFlLR/Rd9Tvla98ZdEvavkbXnP1q0N4UZw0c8Gb3vSmbtdddy36jPjI5uSpy+N3fBO+iG6BB43fPffcsxj80tWT9pULT6W+8LPPakcPk1/9rv2xmXLLeW3G/tJiG59E3p177rmFh9797ncXfcfubLqEr7D9+te/HgCC5/CHH74LL8qQugaZ79GNyS35Iq/xFv2dXu6w9xj8yskzjPfwaN1W7pO/n17DMM77iTH2a2IZ/JlMIFuagIAh1jCkSYNwyufLXvaykqUWWP0y2gkxteF+UoRLH9aV8Bxcpy/wv1zGvrZMHsJ1111XDna8z33uU3jll7/8ZUAq9AeTtPXWW698vWGjjTbqHv3oR5cDHjfccMPyVQcFGF4PfOADuzPPPHNQPjcRNpwJzot48IMfXJS6Jz7xid3DHvawUvdee+3V/eIXvxjwYMqoAx9yYGUSFYe/PetLHfC8n/QaxxFCdV736jDhaiMhuKnj7r777qHtpczaXOt69VMfmrF/rwIHP6EXGuItPPj4xz++23zzzbtHPepRhQddTUzf+973CvopIV5devvb3z4gh6+TJER2ekZ3PJKgTXSIjORcwKcmBQE8+EpIPfK+4x3vKGPhIQ95SGc8bL311uX5EY94RPeWt7xlwIO77757eZ3qxhtvHIw9dYEhztla8dNv9Zssa34BR1YoOdv0N8aR+tSRPhRg7/nLeKnj+vf4vh53/fT6ObgLnZqxX2Nn9D2cjXiLaX8AACAASURBVDL2lf7pT3/a3fe+9y38hFfRJThP7eEL9ZFPgji8owzeedazntU5p4ecTwhPhXbi1V3znzjjAa/3eaKGQx2BI/Xn2XhRhzyRxcqG3+XXZsbVGWecUcY5p17aSF14WhxY6hXXtOmaelOfthMOO+ywMtdwNiefuuFJfvAFRtfbb7+922CDDbrHPe5xg9V9eQU4qXGXNly1CUbXtKO+9EN8M/ZrjK39PfyO+u28886FdgxmIXRNSzV/SLNCH94nA+06ZOiba4xDIfRGP7+EPi+ER6Sr087ahz/84d2VV15ZiqinLi8SXxuT+iR84AMf6OhDN910U4lL2+GhkmmMf83YXx7k44sXvOAFA93HJ9bpQHQNujbe+spXvlKAwRvhn1wl4Ofwtmd1igtPics9eYVP6VpvfOMbB+OmHj/h3TrOfS3HC0D3/NU6RcrW6eO6nxhjHwIM/oQgtiZo0nKVpxYG7v0IDZ/mE1LPbGUSX1/DCOImiVg1jNN436cF3C6XsV/jywqmwR0B4rwHAXxof8455xTlxKq+FVTOAF90OO6444qRbucIRez4448vyulnPvOZuvpSh7oIA6+TaEubBAvPIUON0GJYqTOTpUlUvfIlTsURXLVBY7urCTuTeBQB+eGVwBEIugT1mtTrMaPOrPAqV68Y9+mVehZyrdsEq7aasT9TgYMj/Ac/r33tawt/4jG8R4nzc0/xENDeAaUPeMADug996EMDgzxyVLqVnnpSEldvrcdDofPRRx9dHArf/va3Z5C4nkg//vGPlzHAacVQsQtG/e632mqrYlxkt8xLX/rS7qEPfWjZKaBCvB++TANR+Prx+NZKo1/dPu+7r6q8733vK7ycelyNGavDMQKTljGSfjJqahwk31zXjKXMD83Ynwtj96bD2VzGPscn5xFjnSxMwDehlzESXiFDEsTjE3mf/OQnd/iTrBNquenZmAgNXTnHxNUyt5ZX+DttaSN8oC7PDHF8Kk9gkyYO76VesMkbflaP8c0wOu2000qfjceszoJNneFb+W2P9kucdtSfZ7JcO8JHP/rRIkO++tWvlmfxfVx4DjxwzGHn88S1A9y8IbiCL7jRZspKB0e2b3sOTHDQjP2CwgX/wfOonzHDERxjX0Pwnq39nsOjfSAy1p72tKd1FjbIdAHfo3f4HW/nXrpxQ9ZmLImT364ac/u3vvWtUk/+yGY/9dR8ox07ATgaOHPrMZRxlzrGdW3G/tJinhxCa7xIN6abk1s///nPy6uFdkBx8pv7n/GMZwxeNwRV9B28nnlCPF6N7Eo+stW8HZ1X/EUXXVTa83W3Wj6S1fg5deFTdeLPyNikkX2pUz6vQxoXNZ+Xisb4N1HGvq2rF1xwQdn27P6yyy7rXCmftnYgCkPJT5rf5ZdfXn5XXHFF9/3vf7+7+OKLy2qt1VRlr7rqqiJAlJH3kksuKfV997vfHTxr0/PVV19d0jAWbzjkqLOFxcFAJv/UZnAvt7FvgrJV1OoFw8WK/XOf+9zBoDQ4bX9koDMs6kBwEDQUUquVyjsMksFFAYpiFuOC4DLxqeu8886bMYl5BcB2fmUTOB1e/OIXd5wJO+ywQ8f4isJqK6aterY27bvvvsUL/+pXv7p8SpLhkwDG97znPcVTTnARfsZO6tT3j33sY2XiVwavW0U+5phjimOCoGW4EVRR6lL3ulzruuAYrpqxf68CF9zCi4DWDOVLL720PNdjJxOSL45YjcFfFD2T1TXXXFPyk3u25D7lKU8pCpw08jDBhGQ1Zbvttuue9KQnlddR9thjj2KsazMKoPxR8LSrPjte6pX1wMbpteOOOw74C38aXxQlfOk1BG1GaTRBeh3gne98Z1m5x3McBXhwm222KbtvXvjCF3a33HJLmYRPOumksuqrv8aH3QzGoUmWg87Y0RerXLZyM+oFRiTnr10HtqpSGoyR7IAIzoOb2a7BQ5TbZuzPhqk14+FsLmPf6yPkKR4T8CBZzGH64Q9/uGzLt5UTHb0CFRnFwEFvOgC+5uxntHhNy73VITT/0pe+NEMG0yc4pHzJxzgw5rxyklAriuLILTwQfpF+/vnnd5zC5pOddtqprErh4dpgoXNo3w6YLbfcshwkHGNafyi2keV4FyzGSdrRJ6tZxgInBlmOj42LwEUpNb7gzhxll45XaKyKMbrsjCHnOQAox8as8Wz+Ab9044EcsTPS2BQo0CeeeGIZx8b23nvvPXj1TTr6vO51ryt1GH9kDmMxSrE8+tGM/YLOBf/hvVE/PMFRQyaZa+m66Eq2muPJSfxN7whv2hJNn8CDjCBjZYsttiiO44wLerSVz3o+oEu/5jWvKcb5U5/61MK74UVtR+4z3AW8edRRRw3GAB3kU5/6VBm/+MvcZEcJua5dr1jiR3yKRyNvF4y8RSjYjP1FQOI8qiCXOJ3MA9lhkmLmc3OBnbGf/exnE11sNDqDuV9ZejN6RYbJaPetPOQv3QHPxTFGPyafxCXgT59pp59kV9UnP/nJ4ogmx8lp+kgcDcaYecmuR6+Q08vMA2CIPZC6x3WdGGOfkDJZUnBNOAwqW/F4vf0ojeKkITbBZkI3ySZeWRM3wlFIxSsrL2HCuBD3yEc+ssS5pwi4qnPjjTcudcqnHXWYYKMUjotIK6XdGAXpDyVguYx9k5BJjjOIcuVLDQLFxiRDOESZ94lGq6UmHcEkK1DQ5KdAubeaquzZZ59d0v2ZmFKPZ4qQFXy8TCGleNXexwgkhhue47m0jYmxg2dt75SHAX6/+92vtKdNfeANJ3jUHcFFCcbLhBpPvgEur3HBmOM9l+7MAHByMKgPjK5+DH9Bv6NQl4h1+GvG/mhlDZ4pNuEHK/to8c///M/FsLG9EW0ZRLzdaONdNrILX6CfSYyCRdm2yq48hxIFyj3epQQad3hRGbxMOSP7yEn5OAyMVQoeuORHPwohXjKpihMypjNGTIzKCAwDstRYodThQXydlXfjkXEADoon2CibYDDRgl2alVoTP5zgdenGhtUs+KCMmgfMEXicUSKPyZuzzHgjy/2ML2nGmPFR96E8jPjLuE7/mrE/Alm9JDiby9jHI+gTY58SZq6m+GW3CAPGM8NdQBMy3RZPY4ViFX5nGBsT5nA0Z7gwvAXOfPJWPD5ljONthoh3/RPwdYwjceF798YjHlMHJVT97q2MM6oEsOE78wnjG8/K4xUXqz+cuJ7xuX5rX34ymoLK0OdQMI6MTwY1HjfmjY84g53joZzxoR3zQurRV215pqRmBQruzE/az5iEA3qVQJE1/0hXDh7pU9L1C/8rH/kjn7T69Qn1kCPN2C8oXfAfPhz1w1f0XzShC+B79OAAIrvpKJ7N7eFnMpXMzPlWZLE84hgr+MtrNXjRgphgHsJb8jGeOAjQVvsxzvCfcYwPzGecTPhbOWXwsrmAPDDXgFV+/InHORImLTRjf/kogpfwS73LNAY3pyfeo/uQKxZpY/eRqXhMWXNAVuUtTOBpPIY36c3qoAOYc/C0Zw5SMo8sVQe+JDsFO7DoHOYjC3jmFvzKWWZcsgXIePLTeFCf3byTFCbG2EcYShlFlRfSj9DKjyAZ9UOwWqkMISnGTuYdVbZO0y4F0o+3koJrwh0laKW1MDcGYhgkJ8VpsYz9uegTDxzDhmJoojEJWhE0ME2KAo8yxdKgpnwxiq1sHH744WWAy0uxM4lZUVcXxVNfai80fqZMgYtAoIQRNoQBA4uxlROjKZeEFAPNyhK4wGHSI2DkozxqmzIFPsobnrd6JT47BFw9WxmiCDKCGP74WbDKyRii6BobYJefEkfxxPOcW2AQgtfysA5/qS91wpdJH25jPK1D9UtetB7j9b2GTQSEv61dSauNgj7fzwZsvXrC2A1dGDeUIDQS97znPa/wh3qsylDIvG8WJQ5/ykexi2JvRc8k5D1echYv4gvyTsAfeEs5io1+pA9o52fyNcGZVIW0FyPYNbQ0PkyKxpGtveQoI4jnHUzxdtulYkyo26SsfrIbztRn9wyF0usL6uYUA6MDewTefkYWhdQYyfY6/dRfBhOjHo5M4A7UNMbIfG0E3lLZHH/pZ8o0Y38OhFXJcDbK2CefySb8wvBGZ3xhXNnBlxDjkxIW/qQAGhtZaVEej1C28AfetZODUYrfBMYr2R25iW8++MEPDhyh8mTcZlwaE3ggsswKJ56ySBFZbiWIkWQnl0BxpQTGWWFecAgmJ50di/oBVqv5tjgbF3nNzBwBL1ZP4aI+G8ZnhsFvN41y5Ll5JYa28WxOMZ440ehG5C3cmKcSwEoWGMvmIfMFQ0xf7fCRxjEeOYIW8tgNB2cxEI1RDgD6G31JyBiHM2PR+Ia7yMjgMbBM8jVjHl8yHMi3WkYuNezaGvXDIxau8BmHKrpzfsUZJB6fGSMJ5n88w4mKZjknxhgL7aJPcDLhEbsD8KLdgclDRtNTrGoKHGDkMV3C7hljk5FPpxGuvfbawkPaBh8eNx7BbHct3AqpvzyM+a8Z+0tPgIynGOPRQ8QL5DBZh7fIUDLJjhYyKu/xm5Pp+OQNvUwgn8lpi3h4yryBj+lUdiZxOBkbjP1jjz223JNn2hfIRbqRRQeH+Qn0FTuoxHOUksPq2HTTTYtjjc4zaYvEE2PsFwze82eSDYHr+FH3CJgyBAfBJRDSazupqCfCPW2KG/VLvnadHQNRnpIDzZbL2McDBiDlkUJptYTBbACYqBjaGZzxgpvUKEg8hwSKgc0LntUhDgIDPFuaYwyED9NPVx5E7yDZVsfIUs5kx8BmeFhZFWf1hLFDCYtxp1yMfVuFan42mSqH3/EsAUQZoexR/GIk8lI6tJLHU7q+2dbN2FbeRN2nD7iH9aXu13zva5jVifbN2J+JvVq5sU2X8uMUfgYqZxPljQeZgU9hh0e8YSLjlEJ/dVgdZEwwnhLgG08w9Bki+Nk2ePXEmPHFCDyOL2p6RRZyDGjLZCyoM4pZtjwnL8WQUwKvMa61q26Ts7zygV//TMyUTZMrhRU/4lc8ib9NpurTnr7jaQqmYNLFRxQAXnvjhoFlPIlTB0eB/mq7Ps1Xefgaxvel8t5fxnf62Iz9HoJGPMLZKGMfLzAU8S3HTORWVvAzNshP/MFQDo8yMslohhheJkPxGiM3Af+Rt3iDkYMX1MNRJD/HanZ54Rl8YrxxGnGccgT4USA5WPWFTDfW1GNHCqOJUZVdVuYbDgb1xjgED/6nNHJCUTY58+pXsYxPOKB84n28bNzZgQB+zjZKJflALpjL5LfaJYQ/4YqcZ7SDxXxifjDWomOZD4wTRhcawLu+CPqqbxzVcJSxBRZ9oiRTrDkazGPooY4E41UwdpuxH6ws7Aqvo374Aq3wPScQXohxrcU49W1x5qQxTugdHLAcy3jCjhFykjEuoCcnrXGDxsrJox08yOGDLziqxKkHjBwDYMAfducYA/KIt4BisQFfghUMgjRjWJnwr3j1hY9KxjH9NWN/aRFvbkVnPIe3yLO8hqflzL3mCLzGWGf40y/oCgnKO/+ErKPPyOPeocbRVdRFvmcBwe6A6Nrqxpsx9Mlor0SSi+QtZyk5SNfwLD/dnJNXudpRFpgyd+V5XNeJM/YN9HqwzxcxyhAMiM0DY/I2oXkWv5BQl3M/6reQ+ldbmb5SbXAvl7GPPzLhGaAGN6UlxoXJKSsnDAp5KEsmPkq97dGUuJo3o3jqg8kzuweyckLBojhSDAV5CBrpDDjtW/20ukNQgMmkZxLklGD0U8ZsofMOEZiiFMa4ogzy5Ftt4YRQR949MtEqoz7KACXOZGuLHkOMEeZVBXDw1ONvgimTq74aP4sR6nq0o41m7M+OWYoTWuY9+2xjUyJ8Bod4izLFAEmwzZ5yxvMN7+FZyprAmKDgcxwIoY1PJlHsGE8J0jLRUszAxNDIFnhpGdfhdwYPJZEiyFCgwHGk4WlKn7QESinex4uCcca4wtN4V5oVyqwsMvKNVbtlTN7q0oa8FFHGm/y8+fjcuRscAsrUSoG24M9YnO9kHDwEn83YDxXnvsLZKGNfDXYq4Vu0xNOukXfS1WFFm5JFQWNEoh/Dn5GS9yspZHiNYijIZ/yo2wojRY7DFW/hUffyu8c/VtaNOzJTvdozXjiF1UHB9A6yoC48pt7AjB+NIc5k5SivCVE4I2PBzNjPQa3mCP3Rpt06jHB1wAVnLd3GT3sWNbRtPNs94F7I3EC2g9lrLmAhb5VhBMIJvrcNnyKLl+HXXGAuEbLKZRzBi3GvXXMURwQauCczvNIgkO2RByXinr9m7NfYWPv7UbqnNHTFI3jalUESZy+eoz/gKWdfRN5z3nqtj75gTiE/8W5kbeSdOHqSPGSo+vEmXYKcjj5htxWnmt0eeMjOF+9Wy+8ZjGQznjEmOI2zUure3ELHMjbCQ3gy8K491havRDP2Fw+Xc9VE7jL2+4555eja+Inj1W4q/I4XjYHoSIxzDlKyzRggn/AXniIb5RXIPPIWD6rTjyzkdOKExXfyeh9fmnrMLeS/HYrmC7xsrrCLUh47KIWab8PLJWGMfxNj7GeAQ0yQHLxA+Fy/Oq8tTQgdokqbq3y/TWXEgYvQm6t82m/X2THQZ3q4XS5jn3LDsCZEGDWMDELC+zmu4k2QgpUSA5fyFOVMfOCPMsVLrhxlS8AvQtIJEUqkiTITaOqzrZKSSYmyekmJtF0yuwvUQ0nzrr6tnxwRBJsJFRxxKFDYKIrgZUhRHCmrcOvAKsLLak7tJaWkWdHnKMg2Pc8CIZUx6H6xQnCjPmMJfM3Yn4ld+ManAgWMcpYTjWtZVpdCS4q+yS/BygmlnaNKOUa+CZB3G2/gNxMaZ1Jt6OJ/CpetlGAxEfYDjzZe48RKOloKDHDt2n4sjdJnpdakTFFkpFAO00djgAKIr/EnZwFHW5RUCla2hNqGrR3bUPWX0iqoQxtWaimK6Q9DjyHlqj5Gm7YEY1H/8KTrbLgtmau/KL/KCM3Yr5Azxy2czWXsU9bIKwaBbZlkJycNp1Tkp3f2yVwryYJ6OYDIPU4mcpEcVU92YMlnlR9vWolm+NqqLk+cTPKIx1/kpnrxDf6hdOIthoytycpwMuFX8jMyGw/bYQNmO3Os/ON3vFe3QzE01swz+J1BbhU9vMs5pozdWmS/uYFBlS36YLW11I4yBwibJ4wheTK2OOM4DNWjPrKesko2JKjDmCRn8DI5AV7zkmCFzFg3ngU40Sc73ziS0SROSbBJz0/+jCs0acZ+QeGC/+By1I8RgtaMeo4YY8RW5PCDeQS/159oZdBwJHGgoVvmHOMoAb8zboxJ44O+gpbmkATjwNk/jHu6j3aVwZt0IzzEORadBa/RZzKGlSGbyXG7boTMKWlj3Ndm7C8tBcie6IhkFJ6B8+jcWrcoRpfF5xyi9IrM/WRzAicnmUYfEc9ZZQGErpBAN+C4In/JR+1ZAPNMXzcu7JoUyGnzi/TIevHmFHxMpycrOXuz41B/MvbS5rivE2PsEzb9QLjVk0c/fbZngsN257UNdXvu6zBK0Pbz1uXa/b0YqAeuWAJ9uYx9K4YMGQOcUhXBAg6KkFULyqDVS5OUwR8vnUFbwx6l38Qpn4Feh/ADhct2I3lsezQZ2lZkYsx2OBOs+ryDxABjzFvNMUmCl4JGSEWYZKum9jJmCD2vJmiHghzBRwgRjvoVp4FdAurkGDCx5syCvN9U9yP3izHx1viGH3U2Yz8Y/oejCI9lguCAQk+nyJuYeI/REB9Q0hgfAiVOPjtAGDfqYHCIw2MmTBOUVUFGstU6ShulHv7xImWLkuiZIsd4EMASXs6WULtj8BrjAi9qk6LPkWbixVf5ggnHAKUzjiYKqUnTZMyhwOmmHpOx/nBEMHyMCWPUuGDwqMNqv5DDM7VHETWpyqO/xiuD0fY8cJiwwat96QwbIU6K8lCNozzPds24z7hrxv5smFozHs5GGftogk5ozbAQ8BEZiHboLlC88Cje4kxl8OJbecwlghUXz97PNz7s7LASo+44iRip8uA18hY/ZiUfH+J7MEVuRf7XspDRi+etdpOl+IODWL3kOV40RjybK4w7c4D+USiNnchfYzZt2BUQ2MhwvO6Zw4vBxHHAIGe8Gb/ivIZGzsOT8WxFlZyngDLM9MOY4IjgoNBfDjvj0c4vhnscZ+pFLyu/FGvpnIX6wzkuDv7NZcYeGpEzwVUhwj3Ob3Ecfc3YD1YWdsWPo35kK9qS0/LZ2YRn6MFoid74g5PLuCKzOZzk4RzAQ3jWs1cVvfJlp41XR8RxssmT3R54Hr+QtTkjBs9pK05jziSOAM4qc4btzsYIxzR+oItl9ZaDAC9KI9cTjLfI3cSN49qM/aXFek1jr0aRW3iNfMc3ZDk5hBe9LkUu+oX3OCTxo1V4q/p0aXIUP+It5eSh3zt3hNzGk8aFXUnSOb0Ep+7TS+hIZC25ZyeKOE4rehG9gkOB3OUANWeoI7urlhZbC6t9Yox9Ex3CEFSuBrnJNkqfuFE/+VIHIWIyN9Gox29UWWnyYjiE9EuZUQK2TlsY+ldXqSgz6TUcL5exT9mi7DEw0Jqigs4JJjOToUFr0nKfrZrJk2vKUb4YJwQSXvVLwBsCw8mKC0GgTpOce4LDhMkJIS9FmPeRAJFGofKLJ56Cpny9XdvkK1DuKLMEJAMvAb45DSiX2lRf2iZIhazs28YP/tDImEhAp3UNcJ6gv+psxn4wcu8VXijHFLDQDN3d54eO3tVFdxOcFXtp+Alfo2OcSQxeSqB0ipt3MwVOA0a2eDyM5/CeSTKH3chX87RnbdoFkrLKcyK4cjQZz+QoRxelD6wUSxMzIz88CC6rP8qBzyoqxdBuA8/6DBYwea80CiDvvralk/EmYuWi3CpjHBjrtoAzyDk71MOYM2bSJ3wI1vnydxSSjI1m7BdWmtcfnI0y9tGCIcwItnoY2cYJiXYMV0YKo5MShm/wEEPCPb7Clwx7WyvF4Wl84urZbj/pAgUvSqB6GLj4jqMATyWAm26RwCgObBxNMcSVpUBqhxLJKSFQLG13Fs8oxpvSzR34ydwhDa8a9+SkVXPwcPQJ2SEmn7GmLfd2D2Q8KwNH5hftJI8xZhWMXLdDIvHwFSeJOOPamBVnvKGHwDkSHOsfg0w6xRG8nIjKcNZ5rkPGibhm7NeYWft79Bj1o/PiK7yChzh4IqOtNtJZMi7wTuQr2uewMyuX0oy3jAn0pluYVwTOBPnxMb4gb5URxzlgrDDWlCer8QCdyjPejWzGQwymBPOZesxFHF/4UTBGwovJO45rM/aXB+vka/gQz+AJP/zqVRCLIHEQgYhDiaNLHnLPvO8aeSoP3YFuIg9+VQ95xBbAW+YlaRbmyElyzLv3+JWRz5jnRIjeoX7jQl15FZKtAF7GfmRyMDZf/SL5l+o6Mcb+sA4udJATTibChYQI1H7ZxM927edvz2tiIIZkUgyC5TL2KYq2TzIM+sGExNhg8JqwGAdO1+TdBqMJzATqvu4DhdG2T2UFE5N0V8ZNgpUjK7NW7f0IBMKjFlryUkQpf4wYSlYMHG3La3WT4SSkHffg4rG00sRTKVBIlROkmUAJN6ufvPEJ8nNuUBIEsCcsdPylfH0NLOLUC+Zm7N+LIQZorRzbWoYfGTDozuhxAJlDw9AQTRNsO7Yyj44xVExYPOImIas7nD6ZhGLs4i91O4QMf9ohYucHIyYBn/mhV1b3peFVq4rKc0DZ+lnDJA8jw7Y4vBheEudgS5MxRxi+s1MhY4FSaSeDFVETrvJWRAOzennb4UBaxhnl0KoQpVF/6q2ojHL44cQIHOpRJyW4xrv42ULGRvI3Y382TK0ZD2ejjH0lyElyl+EaXsM7+IzTE38KeMU4sDKN5/GMa74sgafwPl7DE/Khf3gl4wCfc3biX/yWbcXawBcxODz3DVlKqYAHyGzOOdtGvVJlPIZXyD1GNPlrZUkeDgDjSTDHGNt4OsHOLPXIlwAf5hp4UBdDKTDY6i/YVuosGI5cfSFDKHjZWSMPvKQOcJL/tqJme6qdBsoEPmXkyzgnTzLfSSM3yAx91GfjS5/dq8O9cdaMfdhaeIDXUT9zvx98R8bhKbLWeBLwqp0feJABTn/BI/hGGQc5oiddydzDIWXc2PkoxOmFF8le84qxg/5Jk49uY1zVZ7Mwluk9ZDrnAz0rIfyrHu3it0kLzdhfWorg2wR8aGGA7oMfzPXm7sh/+ciUyFjyP3xNtnEaJ8Qx65mctUOAjCQHE/C31Xy7wMLH6mabaD+vlnBo4ntOY6/wWmgRlMHP5K48qSP117pL4sZxnRhjPxMDoZPJIpMHxFAWRv2CPHl40hHEfQTfqLLSBO2Cg3KbIA6x1DPql/ztOjsGarzKBdfLZexrLwIlxkwGYVbqKU+BMYJEGrrjEXGu6kmcPgjK1cqhOPVnwlMmdRMuKVcK3/OX9PCj+nIvS+4Dv7hamGXSTL66bvfpU+5TVl8ioKL0yQP+4Kxf19o+1/VoT/+bsX8vFuGkDvATmojHG8kTfnWtaRq6U+qCb0p4QowDaepXn3r9UmfyKBceDV/KLx+4EteHDc/0+Vae9EU6OOuxkjT50n5g7rcjXh0J6oKD4CYwS6/LembsBS8pn3J5HnUNrms8WxGwO6eF0RiAs1HGfuQOmtX8oNaaZtI892mh/tAyck3Zui68VeerIa7zKR8ayxPngLgY/eGzmsf68jIw1u1knKnLL+0mbz0ulIuDwr282q3bTF+TT3ryKRN4Mzdk7MBh8JVr4FS/epNXvDyB0bPVLiH9KA+z/KmnGfuzIGee0fA/6qea6AVoh1b1uEkz+KCmY01jtAyvK1vzWXgkfK8+9SRPHV+PT/lSV9qt84bfw6fqS53haXCNOzRjf2kpUPNEWops9Cwd/7jWOkLNNzWf1GXxkzIZD3Va5p206Wr8JG99NVY8Z8yQ2eFvcQAAIABJREFU5XWbcVAH3tSZOvI8ruvEGPuLiQBbmvI93Qipxay/1bUwDESIp7SBu1jGfups18nEQC3wjEm0b8b+ZNKqQTUcA1FWM8G3lf3heBoWC2ejjP1hZVrc9GBgmJ4ljtw37zdjf3po2SBdEwPN2F8TJy1mujDQjP3potdUQ9uM/akm3zoB34z9dUJfKzwBGGjG/sKJ0Iz9heNuGko2Y38aqNRgXCgGmrG/UMy1cpOCgWbsTwolVgEczdhfBUSepYvN2J8FMS16ajDQjP2Fk6oZ+wvH3TSUbMb+NFCpwbhQDDRjf6GYa+UmBQPN2J8USqwCOJqxvwqIPEsXm7E/C2Ja9NRgoBn7CydVM/YXjrtpKNmM/WmgUoNxoRhoxv5CMdfKTQoGmrE/KZRYBXA0Y38VEHmWLjZjfxbEtOipwUAz9hdOqmbsLxx301CyGfvTQKUG40Ix0Iz9hWKulZsUDDRjf1IosQrgaMb+KiDyLF1sxv4siGnRU4OBZuwvnFTN2F847qahZDP2p4FKDcaFYqAZ+wvFXCs3KRhoxv6kUGIVwNGM/VVA5Fm62Iz9WRDToqcGA83YXzipmrG/cNxNQ8lm7E8DlRqMC8VAM/YXirlWblIw0Iz9SaHEKoCjGfurgMizdLEZ+7MgpkVPDQaasb9wUjVjf+G4m4aSzdifBio1GBeKgWbsLxRzrdykYKAZ+5NCiVUAR23w6S4F8LTTTus23njj7re//e0AA1EcOAf+9Kc/lXhx7Te5OBgQb8gNOif8z//8T/f3v/+9PG644Ybd4YcfnqSpuAb2OK7w5HHHHdc96UlPGvQr/Puf//mfgz413p1c3p0PbfCwfP/93//dMfrd44X73Oc+3dVXXz2gc7sZjgGy/6yzzuoe+chHdnffffdArouH2+B3eOmuyf4Jn//+67/+q5AuVw9kvfDv//7v3Xrrrdd9+tOfLs8Zbx7QX/o0BH37/Oc/3z3iEY/o/vrXvxaQMw94IBfSZ8/6Zg4gM9Lndp3MeSD0Q6vIJLRKuOaaa7oHPehBHaM/QV4hTuDET+I1sIJtv/32KzzsXl8T3IdXkxbdrfHtZPJt6IJe9X1oWl8vvPDCboMNNujIMXSN7Kr5XP771IUm/X6HHXbo9t133wJmvyOTDvtKhi9CFJOZFD2fd9553WabbdbdeeedhQn13wRZG0r/9m//VvLK336TiQM0DW2ivHsWH6FS8/Yf//jH7jGPeUx37rnn1tETfx9lLpOgPn7yk58sPHzbbbcV+DOxMgajyAY37TqZ/DsXXRA2tA+T/uxnPyvG/lVXXZWodh2BAXhiKN14440zcsGrX1+GzEWTlj45YwlBf/Ob3wzomvmbIfS3v/2tGPtnnnlmSUfnKJy10jkoPIE3f/jDHwpUJ510UvfoRz+6o5MkxEAKDyc+c4TnxquTw6vDaDFMR0E3tDWH/+hHP+ruf//7F9nFpujPBaH5JF/Dsx/4wAc6Cy3zCXAlDMNZi5scnv6P//iPQiO8GZqhGxlkwfRf//Vfuy996UvdE5/4xGJrhfbK9UMz9vsYac9rhYEIU0ISQ1ICMOL3v//9btNNN+1uueWWohSsVaUt89RhICs/dnI8/vGP7y644IKBk2eaOhMnIsFqe9Qmm2zS3XTTTaUL4XU8nhWgaepbg3VNDFD6wrsxZC655JJivFIEWxiNAfgj6ykb1157bcmcsRF8jq6hpU4yBmqlkXHEwBfE33rrrcXY/9a3vlXiyE4ysi4zyX0DW3Z0nX766YWHf/rTnxaDv5b15L35gF4TI1FcC9ODgdCuD/FXv/rV7lGPelT3u9/9bkBfeaZFdpm78Kqxd+SRR3ZPeMITihGovwJ+NR71J06r6Op9XLTnycNA5FAgQ0cyq45/73vf2z3taU/r7rjjjmQbLEYNItrKfo2Kdr8QDGTSi5GU680339xtv/32HY954molIN7IhbTZyowHA6Fjv3V0TRp6M/ZvuOGGfraJfM6kGOAodenLddddV7bxn3rqqSWZgK15eFoUgvStXWfHQAwZ9H/zm9/cbbXVVs2hMzu6ZqT8/Oc/73bcccfufe97X3H2ZtfLjEztYSoxQD6Sh3GI6YQ48/4pp5xSXtXrO8WiE0xLhynPHLrbbrtteXUL3OTANK7yTgvOlxPO/hzvOXz98pe/vHvWs541g7/BZm7vl1tOmOfbFmM+wQqvV2ddhTqN7oKnW5g+DMTAryGvabvrrrt2++yzz0A3nY3ObWW/xmC7X2sMRCD2GcwEetBBB3VPecpTyuq+isVRBCkPjCYCyITafpOLA3Stf5koM1lSArMV8te//nVx8Dz/+c8vfBTeWGumWsYCNYz4Ek8mzhapvfbaq/wYNIKVrSiz8NJ4d3J5dz60CQ3Dchw8dnO85S1vSVS7jsBAnF8HHHBAt80223S/+MUvSm5jB/6NpfxqOeJe/Hxo1PKMb4wh5l133dX95S9/KXTNrg2va2200UYduictbIK2Alk6DSGOjBe/+MXdM5/5zHL2BLjJen2IntLvj/mi8eb4eHM+uEfHzNfua0ekBSk8/NGPfrSwaZ++JXIK/sK/QH3605/e7bHHHjOgxqfGpGuCe/r4fHDY8oyPx9Er8sd8iW41Hb/4xS92W2+9dXG8hrboNSw0Y38YVlrcWmOAECVQaoF55ZVXlm1FBx54YOc92BZWFgYInXgYTahveMMbyoroN7/5zdLRGAKT3OsopjE8PLtP+Pa3v11WfA499NAZQjbp7TrdGKgVJWczvPSlLy0OK86dWkmc7l4uHfTB32WXXdY94xnP6N70pjcNPZR16SBoNS83Bhj6+++/f/fwhz+8c8BZgrmA7My4yTXpk3itFeOvfe1r3VOf+tSysydOjcBsXjCf4Xc6jl/b2RXsTPYVjWsDCbTOF3nJS17S7bbbbl0c+fhVvugttR4wqT0EL14Mvzpo0s7Ko446aoYuDn75ou94nobxOal4Xy64avmEH2v6eWXW63Ovf/3ri0M2MNU8nDjXZuzX2Gj3C8IAhiQgMWItVDHn8ccf31nppRzY2m2yrL2rC2qwFVo2DAyb8MShI8+wVZ0///nP5eDMLbfccjDJDCu3bECvRUM1nCZDQVwd//a3v73sUDnkkEO6X/3qV4PaY+gMItrNVGKA3LriiivKDg5e8pNPPrn0I46sqezUMgJt3JDpn/nMZzoywGsQ3n02F5ARxkk9ngJaPVckrl0nDwPohMZoefvttxenrt0v3neOzAS18cKACK2ngb6BNf045phjyuooWa+vdqjUQZ/yS5k6vd1PFgbQqDb28eh3v/vdYiAxii+++OIZAONfhjMaT4MzJ/xrbIJdf9/2treVBYqjjz66vMddz2PyeO7r6jOQ0B4mBgP4EE1rGuJLK/p2InFWXX755QN45ReG2VjN2B+gqd0sBAOYizIXJlMHxiR8Ej7xiU+UFX6fMbNlyqF9PtPklF+GYvtNLg5s4bRNn1FP8UErh9lYBUXHY489thjCD3vYw8qBdvE8uk6DMZzJMrzqKi7e/Uz4TuZ/7GMfWxRB9z7Lpo+NdyeXd+dDm0svvbSj2JNNvOQ+YyOE/jVftPs1MdA/e+Vzn/tc2Va4+eabdx/5yEeKjPjlL39ZZIbTgynSZAmZQrbMh0Ytz/jGGNrZzu7wRYawceIQsLwXjCPq1adaD1iTWyYvJrDHcMfPn/3sZ8uhbTvvvHNx/HEE4lcKNN7Fx65+jTfHx5vzwT15Qxe1CuqrIe9///vLa1rOGLFrL/ybeb7m0GngZTDm0MxaFvv0sVcUXvCCF5RzKOxkoL/hWTtzXOWfDw5bnvHxONqiG30EHRx8/brXva578pOfXBw69c4qvFsb+Rw7dZgYY5+BGIELQJ0LsDogzaFJeR8lQlre2uuhTAyOaRisNTFW6j1aOrGZUu0dfqefrr/++t1DHvKQcpqvb/VO6+/BD35w99CHPrR8q5Vw9X1un/DRN/10HfWb9H6jk/756Ydn3/T0qS3922KLLTqvafzgBz8YjF/G8jAjehr5u5YzXkt561vf2jFkODf8Jp1+c8HnG8Po6po+obXvpic+NPesPunhi7nqH3d6eHe2qz7ttNNOxZDxreV6LplGfh0HzObbjHfzNFlAJljlJyds98Zb4RlXv5UwfsjA+973vqWfD3jAA8qnr8wJ+p3xMu4xsC7to5F+uDqTwcnPDP9pcOSu7ViI/klv9EUOsp7OaV7Hr/AID/jZMzqvC24noay+oC/5T0biW300x6fPkwDnQmHIONQ/c5ozGSxQWKhYKQHf9ucthqHXE6z+brfddoWucIjW6IzGcLNQvE5SOfo22ZtxmflmJchffTAWMx591nr33XcvTkjn45BVo341j4/d2Gecx6tGseZxqkMmlQ996EPFkEJIJ34LUcTlYVDmWRrvVQuThQECiEL9ne98pzvvvPPKVhRbAaf5d/7553df//rXO+/7nXPOOaVPH/vYx8p7U+9+97tLP/V1tt809P0rX/lKl9+5555b+svD6N18Wx1rjzLBYzzG4TZZHLj20MSIUVKfrEb++Mc/Ltu+vac8DfQbBSPelY6+GZNnn312+YwP5ejTn/505xmfS5fXFb+Pqnda0uzQsEsljuWaQ2ra1/HtfiYGjAtjvsaXFQmygZzAO31+IUf6cdPCMzWcdvn4trUvERgnxpF5QJ6V0L+zzjqrQyvbna+//vo1trXP5ITpe4p+CXL35q8E+gr5wPAn83yKFU3xM5ygd80L03iPX4844ojCw15f0kf9sHPDbxr7VMNsLKId/kVLBjAbo5ZVofe0XvWF7VP3ifGPf+1s8EoVnRvvoveZZ57ZfeELXyjXGlfTeG8M4tlXv/rVxbkc/tWXlTA+9QfN0M4nTu1OsdsqO6dHGfq1LMPbYzf2AcFQFzBsPFRZoadIWCngibJqytjnTTfxCAyNlJc3HYwDoWRqf2PDwCg61MJpbAAuYsPZTuUzPrym/ffBFrGpZavKmKp/GV99AMQbsxm3/fRpfx7W71pRnOb+ZUWr7gOZe//737+cUZCJpU53Pwwn/TzjfiZjRv368JmD0BXPtzB/DMBXxv9sfNGnw2z55t/q+HN6Hc1K2UUXXVSAgQMhOsn4IVw3COoFlH5N6Ws/fpqe+/0b1adaX3HfLztN/a5htZ2dbp2v6tRp035Pltd0S3/MeStljOoT+Tusn+nvqLTkmdarecTrGWzElRj0b5iOhqbSRv1qfEyEsQ+gbNV3j3GjYPqcl3cpHTqxww47dHvuuWc57M1WWqv3Uc7Sqb53NvHtOh4MYEQhDIu2iRsPRIvbKuUgRt+dd95ZKncQIYdU3v9d3BaXtzb0yi/CpYbA+OOgi5OuThulONX5puG+Fqjwob8rQVnQL7I3imto5hAjW/WsztbvgU0DrWoYa7oNu9c341e/0ZRzchgv13W2+3sxMAxX4vyioAzDe+LurWk673xlxlZLO2SEOHxznc5e3Qt1bSS4JyfQFf1WQqj5NP0h39PPxNVXfYcL+aY96ItFCcY+XTtjVr+Gje1p6y8a6VP0FHJ+JfFvTY9hYzJ9Xwm8Wve1vjdnH3bYYWWBrZZXdZ5pvUfT/MLLNf8mbbZr3e+xG/tRMm03Sci2YET0eQyHERikZ5xxRtkW6IAU71JJS4ih5dn2FWElM3j6PQ3XMGINaxi3jpvG+yi2YA/f4k+HGTGUVmsgdGM4TjMO+pPHMF6e5v7pj8mD48J9wh133NF9+MMfHpxMnPg6T+LadfVigPzrj5HVhA2roVaVbK00NiLz4gCedlxknl7JuhS6zda/1cDbDkp2FkNfb14pPDztY3AU/P352DOenY1vY/yTU5FVo+qfljS7U0488cQZferjZlr6UsM51xjUx1G/uq6xG/uELGCz3btmUpOo90a9Iys+zEkoOfDNASIO20gIYigg6lwJnsn0bZqvHDp+aCLUwgj9p/lXe9lqGkV5GDUQpU163+vxWPcv9/qfCcR4MwaN07nKpfw0XNEok6N+hW7iJp1+c8EX/NeyMuNUGtomqCvOWXHBw1xtjDMdjKN+oWf647mGN31v19kxAGfGgrGPj/BI5AJcSp8t1Liexvu6X/W4WQmyAT0EV/1J/9ATfUfRtcbLNN3rI/5N39PPWobot5+4aeTZGubQxrgNfROnj3Xeabzv90nfxKErnp72gCb9PorDw2jqF7pFPtf5kzat19Avtp9+1GFa+xW4676gW/2TVj8Pu6/Lj93YB0ytQAY43xH0mZfamDdABY4B2/yPPPLIchCaA1MEnQ3RPfcJXzK1v7FjoFYShjHoNMUFmWDGx7WiEAdW8gy7Tnpfh8G8GuPIErSqw6TTbj7wpT+RrfpZ77JKums9bj3Pp/5x56nhn+seDvz6/ZyrXEufHQNz4XLc/LGu7Uff0M8YD8ZQ7te1/nGXH0ZZMK2UYOGIQVSH4LzWH9G3z8vJN83Xvu5thxcZGON/mvsGdsEV7dDTNfE1zaf9vt8n/cycnr6RSXUc2is3zb9azuonvo3end2K09y/0A49a9si8XP1Lflcx27sh1iA8T1BwYntz372s8snBkrEPX85qV8HDVw/n03aZZddOp8hEJIHcloYPwbQCI1revSFzvihXDgE+ocfCZl64hS/EoK+zRZqmkboJG/GaJ5XyjVCd5jgncY+Gouz0TiTpn4No2fN75Pad/Qa9dMvChA8GMO1MjSpfZokuCL/AhN81vwEn7WcSL6Vdq35plY4p72faNmnX865mPa+9eHvz9mRb3DgnowIv8NJTfN+XdPyHPrGwRvnVa7T0o/VDie+7I/TPk7wcJ2nnt/7eaft2VjMOW8Zt7lOW19qeOvzlOr43Bu/o37J57rkxv4oQKT1D7kyUb7uda/rtt122/KZK0CGQX279/TTT5+heDoIx1b/ffbZZ6Bk5HCcXFMHhvBLfTUi2n3DwEIwQAEQasHi/IiXvexl3a233jpyIOL/FhoGxomByMJaDovziaK99967HNoU+PB449lgo11XAwbm0l/If989rr/bHaMx19WAp9bH6cQAHnW20B577FF2xZLx4dsm66eTpqsRap9X3GuvvUrXm6NqOAeM3dgPWDHMTzjhhG677bbrLr/88s5BZwLlkxAS73uK8bBKk+eKK64op59//OMfT3Ulz+ChWpkiyPyaIKux0+7XFQP4KZ7+6667rny31uslcymL69puK98wsBgYyATJ2YpnyV+njHNYxZGVq/bkiVK4GO23OhoGJhEDc8lvhtKDH/zgzgFRQsaR+zjSJrFfDaaGARiwGkp/vt/97le+bpXVUWmNfxuPTDoGopMcddRRReemk9DD68WLSe/DcsE3EcZ+Pu30ne98p6zoH3LIIYP+Uz4Tttlmm7JimucQ2vOhhx5aVvivvfbaklynJT/hFWPftQmzYKZd1wUDtYKnnhtvvLF7+MMfXj7HNJeyuC7ttrINA4uBgcjEuq6rrrqqfI7JimUmzlqmkp1xbtXl2n3DwErCwFzy2y4uny275JJLSrczVjy08bGSOGHl9iWy3mu0tS6TXYsrt+etZysFAwcffHBZnIiOUvPxSunjuvZj7Ma+CdGEStB4T/8FL3hBUS5DtHTQJPqc5zyn23fffQfKZ9KU5TB41ate1W255Zbd73//+5LUn2y10zf4U0e7NgwsFAP4SggvO3Ni55137s4999y2sr9QpLZyy4oB8pZsNEm6fve73+022WSTzmeZIotzBVhzli4reVpjY8LAXMb+zTffXHSOyy67rOwmzOdXxwRua7ZhYK0wgF8vvfTSIuvvvvvucm7JWlXQMjcMjBEDFoPpIh/96EeLzs0OpL+wF11buBcDYzf2gYJgb3zjG7tdd921y8p84utDJBhRvv+cEM9jth5J23rrrcv7+31DP2X6Bn/i27VhYCEYCH/2BcsNN9xQDKe5lMWFtNnKNAwsNgb68pJMvfLKKwcn22ov8ta9CbaFhoGVjoH5yO+rr756DcUy5VY6flr/ph8DZL1PWSfg3RYaBqYJA7fddlv3ve99r4Dc18WnqR9LCetEGPuf/OQnuy222KI788wzS1+jeNZecp4ahhVCxsCSOYIpq06E1kYbbdTl/f2sQCVfkOm5MUWw0a4LxUBeM8nKaBxP6sNf+GzUb6HttnINA4uJATI3ctfJzDUfp50Y+/g5eZPWrg0DKxEDo2S3tFqHyInmxoa0FhoGJh0D9Go/IQ7cyPlJh73B1zBAzuY18GDD5zSF8HXiV/t17Ma+7aLPfOYzuyOOOGLwvlAmSsInBv4wQtUK51133VWy2IbK0Heav0NzGGMxxIbV0eIaBtYFA3EyRekL76ZOz6N+ydeuDQPjwED4d6628XeUQPyc+7nKtfSGgWnGwCjZLU2IkZRncZkPprnvDfaGgYaBhoFpwAB5G/mbBbgmg2dSbuzG/m677dbtueeeg8/s5X17YDLmEc4P4X72s5+Vw8+SFmLGg5MT/W3nf8UrXtFtv/32xVmgfCbkmd1vTw0D644BvEXQZEWHg+qHP/xhOd1W/KjfurfeamgYWDgGaocpPo3xz1tulxTnqXjGfSZRz4lfeMutZMPA5GNglOzOOLj44osHO2HqMTL5vWsQrnYMkOuR9fSW6NLw0nTm1c4dk9//6Cs+FewrWJ7xND5u/DuTfuts7M81GUoXssUtV8Q44IADyqEK119/fckzaqJk2O+0007dgQceODCq0hVpMfyjvN50000dR8I+++zTZVtHn/iYYi7400a7NgwMw0CEDf6LAcQp5aBIny9r/DUMay1ukjCAd+tXo8hQn2PyOpR34SJbyefcTxL8DZaGgaXCwFzy+7e//W357K9DzjI2XKPLLBVcrd6GgcXCgB2wG2ywQTnYGu/SY8LLi9VGq6dhYKkwgFePP/74btNNNx0sDi9VW9Nc75Ib+5DjtHwhK++ezzjjjG6zzTYrJ5ZnYiRkEiicfrXQ2WGHHbr99tsvWUqasjHaJcT4MklfeOGF3VOe8pTuhBNOWMPLE6fDXJP5oLF20zAwCwZqHpWFsf+4xz2uc0Jz469ZkNaiJwoDZKgQ+ekwVAogXk4aWYufE/p8n/h2bRhYKRiYS37/4Q9/6B70oAeVr1foc8aHsZH7lYKL1o+ViQEHm/l85J/+9KeBvt1k+8qk9UrrVfSVD37wg0XnTv+a7A0m7r0ui7GvOQqj1SOr6z/+8Y/Lpz7e9a53DSZERItSeS94/3j3jeCRvtVWW3UvetGLSr4II9fcK8dBUK/gOwvACf1f+tKXSrUO/QuDzDWRN4apKdHuZ8OAbXA1zznF/DGPeUx39tlnF/4exWez1dniGwaWAwNkLpmZkHtbkymAv/jFLwarlHHKyouna7mb8u3aMLCSMDBKdkv7yU9+UsbJ+eefX/SKLGjAgfQWGgYmGQPk/wUXXFB4+Pbbbx+8jkKfqXWaSe5Dg231YiA6yKGHHto94hGPKA4rPF2/jrJ6sTOz50tu7Ge1Pivpf/zjH8vW/b322mtwiqJJsTb060myjj/uuOO6L3/5y4MeRDEVUZep4ymoHAS77LJLUVzlDSOYmJUb9Rs01m4aBmbBAH6rJ8Y777yzHDhpVXQUb9U8O0vVLbphYFkwEF7M9Te/+U138MEHd1YuE9c39pcFsNZIw8AYMYD3R/3oEAcddFD3q1/9qswBUT6BXN+PsQut6YaBkRjwqtb+++8/MPRlxvO1TjOygpbYMDAmDNC98arFCQu7gucW1sTAkhv7mfBCAO/pb7jhhoMD+YBUCxXEU0Yc5TKr8PLVn+LzLJ/dAvLIX+dNu/I5vOEZz3hGeX8/beUAB3CN+infQsPAXBioDSF58+myUbyVMTFX3S29YWCpMBDHKLkYfsx9X6bWPJ68SwVXq7dhYBIwMB/5Hb0kiwgZU5MAf4OhYWAuDODx8K689QLbXGVbesPAuDFgQZmuEp07vNzk8EzKLLmxXzf34Q9/uFt//fW773znOyUagYQY5oRM7ut495lQ3Yeo7lNH7iOoUk8UVDsCNt988+6YY46RdbA1dT6TeSnQ/hoGhmAgfJZvfYbfkrXxVzDRrpOIgcjV8DEYyddMmDXMka3i8HULDQMrHQNzye96HHjnWejPASsdR61/04uBvFqrB5kD6sNap7dnDfLVgoE+v959992l67VsXi24GNXPZTH2f/e733XXXHNNMfTf//73F3jqd9vigamVyQBdG/MO9vvLX/6SpMG1Jmq8PKlLWoTYUUcdVQ7sy/v7KpA+6jdopN00DIzAQM2nstkaJ4ziLWktNAxMAgbwYuRk4PEVk0ykZHS9c6rP7ynTrg0DKwkD85Hfv/zlLwddrmV6fT/I0G4aBiYQA86eaKFhYNowEDvP64b1Z9unrR/LAe+SG/uURKtEm2yySdlGn07xfmci7SuOlMp4yeVPHSeffHJ30kknFc95PZEidN+bro44EbJKxRGw9957d3vssUfnkzlCYJjtGnjbtWFgNgzgHYZS+Mz7m4cffnjnRPPZ+Crxs9XZ4hsGlgsDOVelbs95E//0T//U8ZLbtcLojzyVzySLh1toGFjJGIicnu2asy2MF4EuktDGRzDRrpOKAXLcIayvfe1ry+7ZLMLRZ/rO30ntQ4Nr9WIgdp8FXDvHsxgcPl69mFmz5+ts7K9Z5ZoxT3ziE7vnPve53a9//esZiWszGVJIfUbv1a9+damD4rk25eNQuOmmm7rdd9+923PPPddwEMwAbsiD9rSbumShCNdKsDRx8Tj1q1FHdh9II1CTt145y/bafvm0GSb3XMPjuY8X8KTuXOWLkl87RsRT7Os6U19dNnHy63/64FmQXuev0+t4eWMky5N8uf6jtn8YF/1ySRvnFW4TAp+vTTzqUY9qn94LYtp1YjGQsVcrdsauV62cbuu8k4x147yWdRPbqQYyttJRAAAgAElEQVRYw8AiYQDvj/rRadZbb70i682nGR9N2VwkArRqlhwD3/72t8tp/HFU1a/JLnnjrYGGgXXEAFn7oQ99qHv4wx9eaqp18nWsekUVX3Jj3ydpGNaf+9znBogzKfrVBusgsXcTA8p1++237172speVHJ4zsfaKzHhkNJusYzwyYp3q/4Y3vKGc4Dgj8ywP2gJrbQDXWaXrT60wSxefbbB1/tx7LaFOJ2TVk6C8Ol2l+YEjyrd8tWDWV3UmUORrmOAryn3y1NfgKHHq1uf027MJwTVwJ00Zgy6etdQhXw1v7l31S/CFhoS6PrioYarp7T51peykXK+99toieL71rW8VGME5229SYG5wrG4MmCDrsXf55ZcXBfCWW24ZjEFjMfJkUsfe6qZi6/1iY2A2uZ14nyvzicpLL720yPjoNLkuNjytvoaBxcZAjH27uMj3eh5Y7LZafQ0Di4kBcpYdYSftBhtsUKr23OTvmlhecmOfsWelMwKkNmbXBGf2GAamE/Vf+cpXDgzN2XOvmaLdGIsMXu9U53nN3DNj5Nd+reBG6U1OzzFeE7c2DFfnrVcFRsGYPrnWbTP68xoEuANrbTgHxjo9cfKlvmH9ki/KDucC/PTh9ByHgDYEdQbW9DHX1OlqNfHEE0/szjnnnC7bI1PeVdB+v817ksZyqWFxPsU222zTXXjhhQM8BV/961iAbY02DNyDgZpvRUVOf+973ysOK+8jk034tpZRnpO3IbNhYKVioC+v+8+2QG+00Uad8WKuzJy3UvHR+rXyMHDZZZeV3Sl33HHHYDEIL0dvW3k9bj1aKRiIbXPooYd2dpCzL4RcV0o/F6MfS27s10BSDk2WCX1FM/H1NUaruCuuuKK79dZbB8mjVqkHmaqbYcZulTzrLTjrsp5jDJvc0w/9i2OgVoT1WZ6k1UpzyspTlwFMhK20MK/7WqFI+TC9cldeeWV3+umnD2Cs65U/8KTD6v7rX/9a2kh90lIufRVXt5O8NXzyWCUMvGkj17ouccmn3vTrq1/9arfllluWFZOvf/3rg/gab8pqdxICOOrXLvTxoosuGhhJ0mf7TQL8DYbVi4GMv2CgHp9WK8lfvFuPT3kTl3Lt2jCwEjEwm9xOvD5zStf6Qe7XVj9ZifhrfZp8DODXHFpNjyHrw8OTD32DcDVjIDYSR1W+8sZOaLJ3Ta5YcmPftu8IjhiahAnjcj4hBmUMT2VC4PmUrw1E7aonwmyh73YEprRPYa6ZS/0MVwqBoP81HOLUEUU7aWCT1ynYOUBQXvnqFfBaIS8N9L6N6mCtHXbYofMVBDCoL6HeZg9Gdde4FQd+IXSr+2ElP8/y6HddPu3kmrw1zPoiPu3Urx4Et96F3HbbbbtTTz114o19fQ196n6K189Rv+CpXRsGxokB4zhjtR7PGaNgi7waJ5yt7YaB5cTAKNmd8RJ4MgfUukDS2rVhYBowEHnv2ufvaYC/wbi6MDCMT2O31HrM6sLK8N4uubFfN8uQI0AojfVKaJ1ntnsGfgzB+h3v2fL345XtG2L9PMOelZlL6Fl9to3kAx/4QPeZz3ym+/znP9/98Ic/HFR39tlndyeccEJ5ncHpvc4vePvb394dffTRMw4t/O53v1vOEzjooIO6ww47rGwNrBUHzokzzjij23///Uu6fLYPJsCRdwhf//rXF0PZdnhOFVc4D/7k/+lPf1oMaXWpB4xxwHA+ZMCk7v7AufPOO7tPfepT3Ve+8pXuqquuKucffOITnyge4tQDHoOREnTuued2b37zm8vvy1/+clkx5FhIvXBs58ZHPvKR7pvf/GY58GjHHXeccdZD6JcJqQ9jYF3Oa+DXF6F2IMG5fo36LSesra2GgT4GMpZylc75NsyhGqekPHPJxH477blhYBoxMEp2S4uBbx7IAWfNKTaNlF69MEeu17ombEyCfrV6qdJ6Pl8M9HcSRydv/DsTg8ti7BMmfrVCyXAbplDOBK8rToEIIweIxKiSb74OA+3GUEz96pkPM9QGcphIHeLvuuuu7nWve123+eabl5OrH/vYx3YPfOADy/bzffbZp8DKEPYFASdbO6Hd9nT5HvKQh5T3pHwugnLAGeDdvyc84Qndbrvt1j3rWc8q9ZxyyikDA5Jh7V1wp04+/elPL58z3HDDDbsf/ehHpVsf//jHy2cF1ePQIG09/vGPL6v8tvWnv+edd15JAxPYHHz4sIc9rHv5y18+2AUAt8E7/MVw1ZBnW3x33XXX7gEPeEA5GANMD3rQg0q/nv3sZ3ff+MY3Ckx2FWy99dalfn16znOeU3CxxRZbdPk+Mbq+5CUv6e5///t3D37wg0sdj370ozt9+8IXvlDq8RcahiY1PQaZlvkGnmrcpHnOFGEuZTH527VhYBwYMJaMqxjv9ZiyCyjOK/EZd+Cs78cBd2uzYWA5MDAf+X399dcPQImOY0zFETBIbDcNAxOIATz7k5/8pEDm3qtbTb5PIKEaSGtgoLYH7WQW6OS1HrNGoVUaseTGfl9omAAzIeY6F+45BRiqr3jFK7o3vvGNxbiaq8yw9Ci0rjF8h+WbLa4uQyB+//vfL4buS1/60nLgn3KM08c85jHdXnvtNYPhjjnmmGIMM3IZ5/ruSwVWwX2XnWG7xx57DAxahvDee+9djHWGtcAoZqj7fKBgtZzT4KijjirP/rzvvssuuxQHBAP/kksu6ew8sKNAsD3+RS96UTH2b7jhhkE5q+4Mdqv1dagVFgpM7aABF+N85513Lu/LSP/Yxz7Wrb/++t0LX/jCUg1nCKdC/TUGuwg4F573vOeVPHZF6IfdDAL8vPjFLy7OEH1ICP5Dx8SP+6rfQl5HgFcOj3Ya/7gp09qfDwb6KzrK4N1NNtmks4OHwW/s1fI6Y3E+9bc8DQPTioG5jH1Gkk8CZ462ANBCw8A0YcBp/BaF6Jy1kVQbUtPUnwbr6sIAnj3yyCPLImleWZ40G2ESKLLkxv66djKry+qxAs0AFsT3HQnr2tao8lZvGXURgBRkBjKYYkiDR54LLrigrGzLG0Xayj3l2Tb7bHPXHgWaAX+/+92v22qrrbqnPe1pxVBkkD/ykY/s7nvf+w4MZaemPvOZzywr9U9+8pM7Pyv4tbFPMcf40rQd4xxsBsXNN9/cbbrppsW4Zmz7wsHzn//8brPNNit1vf/97x+gQXl9qJX8+t6rCnYR2HGQAE+HHHJIWc1ntHM8MPj7xoE4Dg6482lG/QZ7DGZGhtM1P/vZz6bqgSOk5olB4phuwoO1U0S/OTgcGDKXsjgmsFuzDQMDDNQKXmSTHUl2KdmhkrFrbOd+ULjdNAysYAzMJb85z/PpvaChHk+Ja9eGgUnEAH3O14PwMH2P/kWnacbSJFKrwdTHQGwBr1BbZKxDFuHquNV8P/HGfojD6LSCbHV/OYkYoZdrjF1KMaN2u+22G3weLowHVr86fPSjHy2r7ckjzXYTfTnppJOKsGV0O1yPQe/+gAMO6Bjf3rm3VfCpT31qWZG32u3EfTsLbHc/+eSTy26HOBY+9KEPFeM9hqi2ck+w21Zviz9caudNb3pT99a3vrVcrVDI+/vf/74Gv9zDAedBcOCTiox979rrRw7/0z6HghXuF7zgBcUpogLwZVuwHRpgoCwx9DkF6uB0Ta8qfPrTnx5MPoyNOoQmddxy38MV5U7fAt+1117bPe5xjytOHzCO+i03vK29hoEaA/g3skF8ZKtdR16r8fWTyKw6X11Hu28YWKkYGCW7pfn0nl1pF198cZHzcYbFyb5S8dL6tXIwYGWfsU8Xq0OT9zU22v2kYoD+/c53vrPYQtFfwEo+t3AvBibe2A/xGFNHHHFE+f56VlFjdN7bncW/i5c+jJMrBfiLX/xi8SbZ+h7ByAC2Ld12/ijJDu6xvT3b1kGZFWz3VoC9z3/wwQcPDGn9ZuQ7rE6wHd/K/9ve9rby7O/qq68u7XMkRMkQzwmx8cYbly244HWg4eWXX94xoH23fqeddipGfpwDykizIyGHH2o/fR802LthCNjGb5X+tttuK6kMf04ZOwa8dvDc5z63GPV5J0wmMFi11x95lH/oQx9aXkGQDpfwBSdnnXXWoFV9BFPwOkgY803wFB6AC4ckog/8j/qNGfTWfMPAUAxY2eeo81UQ4y1yL5nD83lu14aBlYiBUbJbmvnSK3v/8i//UroffaXv7F+JuGl9WhkYyGuTeec5+vWk6VkrA9utF4uNAXr3aaed1r3lLW8pdhAZHF18sdua5vom3tivkWu1OdtM6/ilvKfUcipk1RYTxcnAE+owPYfm+dSdw+5cbeE+/PDDC1hW3w888MDuSU96UjGM5XEQnm0nAgNWfa961avKe1MMcYaibfy2/Vu5v+WWW8qquboZwF4f8E68d+wZ29634nCIomHl30F/3iXkHFDOFhcn3QucAzks8D3veU/32te+tvRBPVblrUpEmVcnoZ+69d+9H2PWyr4VQAa+Ptiarx5fJaAMXXfddeX9fH0BtwHplQHGPY+yPBwEnBPOOnBugW39OWSQ08BXCmpnRmArnRnzHzyYHGuY0NM5DOLmUhbHDH5rfpVjIDt1yNW+cucVGztx8LMfXk6ox2Pi2rVhYKVhYD7y2xk6GRsZQ5z5bYysNG5Ymf2hw+RVVD303ELDwDRhgLzN58rpKi2siYGJN/YZTA5dqAUQ48pEmgl2zW4tXoz2/XjqtYeRaq+R1W0r+d7dZ/Ay5E888cTyjXtQ+Mycw+acRG8bvi368r7jHe8oq9pZAXA4itVs29lts7eqtt9++5V3ZqNAMI6dWWBVfPfddy+7BzgNbMXXZrbRU9yPPfbY0iZj2QGC9QF5BobD/cClLfD4eoCdCnFqpE39dR8464HECaEsx4YfOKzSO4k/9cCdXQU+NQhuBxS6t5shdcLnmWeeWZwOtvarR7/23XffArvyteJUw7B4lF63msIT+p1XFeycmI+yuG4tt9INAwvHgPEp1OOL/Bg2xsLjZHHG98JbbiUbBiYfA3PJ73q7vnmyHkeT37sG4WrHAFkePYxe7dVSwX30mNWOo9b/ycYAvaTWR/CuUMvmye7B8kA38cY+NMTwrA3+YcroUqAsynCu2nCv/TgbTPAMO/ERnPJFcPI4RVF2dZJ/+qKO9E8ZddkaSNBKU28tdD1rQz2BSTuBJThIHtc6rR4AdiZEqNd59C0DRhvS6vS04T1Fq/g51T/9TT+0lX7rQw1v6ggdgzuvPCROfQ7qS5DHL3UmfpzX0C748hz4wRXczXYdJ+yt7YYB4wlvRm7V97BTjzWyyTPZ1YyaxjurAQOzye3E1ziI3M9cUM+Hdb523zAwqRigXwq18TSpsDa4GgZqDEQXp9MIudZ5VvP9xBv7FEsTq3DqqaeWFWH3lM7lIGYmcO0FDu0Thklj1MZ4l5b7On/ySk+IYE2aa61cJ77fz/o5edSZdsXVRr00ikcEuHQOh36gpERRSVrK5JlRAG7vKHo9Yb311itfD3CwYFbgM+iUiaOixgU4A3e/PWWkBw9pX/6634FnUq7pj6uV0eOPP77s7tDvUb9Jgb/BsboxEP417tzb1nnccceV3UfBTIz9PLdrw8BKx8Ao2S3NXOVrOG0b9ErnhJXbP6/HfvCDHywdpNvRuaKbrtxet56tBAzEoergcYd5C7V9sRL6uFh9mHhjPx1F1B133LG8Fz8Oo4/wqw3oPgyZ+Ot4SnOM1hjX4tQjv8Awzr14xq86Uo/yfjGA5fUTF6NaXkZ1DGP1aifxdX1ZwROnHle4VX+CPOIo93V80l315+ijjy6f+fOe//7771+270tTTh3gC4ziwae9ftDvwAWmlKn70y8zG1z9fMv1DG4wgdkBhM4cuOiiiwqOpc32Wy74WjsNA8MwYNyRbf2Veod1brDBBoWXyRKBzMHHLTQMrBYMzCa3E+9QMw5v4yXjxPxlrLTQMDANGKCnOI0/X2CKjB+mq01DfxqMqwsD+NTh5s4Ci43WeHdNHph4Yz/EM3n6zN3LXvay0gvEjIG4ZrdaTMPA8mAgSl08jFq168EhjT5jGKVwtuvyQDm5rcyGl8Qb4xHcHCn1mI9jTO/6DqKUn6vnyTfbda7y054eh1qM/TjRnMZPAXQuR+JyTZ/hrIWGgdWMAU5v4+Syyy4boCGO9jY+BihpNxOMAQcg42G8bB5tq/oTTKwG2gwMRCexu+qBD3xgSRMXfXBG5lX+MPHGfujjUDmH0vk+e7aGJ61dGwbGjYGs6hA0vlLgMMZzzjmnGftzEGY2IzvxcaaoJjh2H0XaVXzyMVrFxUEwR/ONPj0EwR35ev7555cvdvgkZ3CZibVXpD02DKxaDNx4441lF1e+LJOxsmoR0jo+dRjAu3YiOiQ686pOxAE8dR1qAK8qDNBXDjvssPKJ71XV8bXs7NQY+/p14YUXdlacWmgYmBQM1JNjYLIbxbZO73FKH/VLmdV6HYWbPm5rY7/eScEITVpWJubr2V2b9lcyjeyYqI35u+++u/va17422BYHv7Xy14ya/8/eecdeVaT/fzWosQIqorLuIigqKljXXtDF3kXZ1bUX7IqI7lpiw27srlFQyVpWI8oSRI0uGltEiaBBMbgakYjG8s1+883v//nlNbvvw/M53PYp99455z6T3DvnTH3mPc+ZeZ6pZeYGL1ujCDDI+OSTT8ZDdRWHb4PvJd9+yd9tRyAlBDgQ+umnn+4yqKvB85TodFocgTwC4tMFCxastLoqH7bT35NX9ukwJbhrCa/eO73yvPztR0DKIpQg4PGjAYJHUfrlX81ufwnaS0E1XOQOdVpqDq6VVvUId4VF2Oan9qJWCZVPNbtW3LL4ocSj6IMBBjw5ZBIelhv+andxswMDZcHBy+EIdBcBvgPaJbVRxOd7wo2fG0cgdQSQU/ipfYdeeNcO7qZeBqevsxHg7BTkFjsJIdmls5FZUfrklX1ItbN4vNPBUrFuHIF2I0DjIsGOzjHfwPBe69du+tudfy1sKmEJvbjrukcbJj8QYAXwauXsTv7V0iiyu5R4254KE2GNrXBy492NI+AIrIwA34YG0Fb2dRdHIC0EbB8qyuBfqzjJ3W1HIEUENLFjedk+p0hzq2kqhLIvwZJl0YxAunEEUkFAir4dFYe2jz76KJIoxamanUo52kVHNVzknh/og86//e1v8UwEzkaws2eqA+JUutKxUhmVTzW7UpwyuVFujEbFLZ5Lly7N2lv87UyPC4Jl4gIvS28QeOedd1ZSjGiL7LfUm/Q9riPQbAQkr8Cz9J+SuZudr6fvCPQGAfEptq4/ZdLH296VUS2Esg/ZVOCJJ54Y77SlI7UzUSsXy10cgdYiAE+iANHozJs3L+y9997hlVdeqTmrL0WrtZSmlVs1JVvu+ZOBwfjhhx+OBwr99a9/jY26bQuId//99wf8GjHKp5rdSBpFDmMVeMoB/4L5q6++GkaOHBn8gL4i167T3mwEPvvss3glMAOPKEk+CNZsxD39vkSAvvPtt9+ON10xuGuVpPxKub7M19NyBPoKAfj0pptuCrvvvnsX/rVyYV/lVeR0klf2tRQXYRzh87DDDsvw1qhO5uAPjkCLEYAH4U07A/3ee++FAQMGhJkzZ7qyX6c+qinZcie6/c5p2GkTHnzwwTjTTDgt4SIshw3tv//+sZ2w8aqRoXyq2dXilcVdyr7aWQl7b7zxhl+9V5ZK9nI0DQEOsuzXr1947bXXYruk74d2yhX/psHuCfcRAvAokxJcvQcvqx8gefFyH2XlyTgCTUEA+W/ixIlh7bXXjulLpmlKZgVONHllXxVHwzNq1Khw9NFHR7hppLwzLTDnJUK6VQg1Oy/SbGeHMshIIT/xnvhPiqLCf/rpp6F///6B+2vlV81WXkW1KTO4yWg0le02TzzxRDjzzDPDhAkTwp133pkp7QyGXHbZZeGSSy4Jjz32WJxJ5v3ss88OXGX18ccfh8mTJ8eR2mOOOSYsX7485sEs2h//+MfoR9wff/wxZquBFhR9hO699torXtPJbNuiRYviDR5qR1Tf99xzTzj00ENjm3LggQdGWhVGW4X0rrKV0bbCHeVTmV9//fUoAFIXql9s+FhG/K93tx2BTkOA68pQlGh3aFvswGP+2+o0bLy8xUBg1qxZkYeXLVsW23/addp59ZXFKIVT2akIILMgL6633noRAsklkkU7FZd8uZNX9tVh0okecMAB4ZRTTskaIW+M8tXp7z1BgGXLlZZgqrHAhtf0Th50hjQyVvlR3osXL47L+P/xj39Ef8JU+ylOkW2Lgb5JZrYoP4LwoEGDwpQpU+IJ7wjHL774Yth1112jH0r7888/H/7whz/EARLCDxw4MGy66aZh6NChYfXVV49XwIHP119/HduA4cOHx5UTb731VhwoEHbnn39+GDFiREyXdLbZZpuw7rrrhh133DFLA1oJt8EGG4TNN9883HXXXdGf8AwsyEB/JxmrpFDuN998M2yxxRbhyy+/zGZ4NBCAv63zTsLJy+oIWAQY2GUSgn37tBn578iG9WdHIDUE6K8ZqKJP1YnmotG293Jz2xFIDQFuDrrhhhvC7373u7gyRZMT+S2gqdHdanqSV/YBhMrE2MbHO9VWs0o584OnrBJPA8HhbmowNFtvS08HmVd2GJTSwBRhv/jiixiFcLV+Nt2iPvMtajTVfqMID2y72WOPPeIsPNsa/vKXv8Sw1157bRSSmXmXYRUAo7NnnXVWYPYfw8yy/dapG4QTBgIYNLAG/N99992w8847h4MOOiim8cknn8TZfc3+//3vfw9rrrlmOPLII7OoxBs3blw8B4C75anzSvWeRSjRgwZnVCRbfz/99FN21SHfiPWz34ziuu0IdCICuhnElp0237Zb1s+fHYHUEGDVHAa5B3nbyjKp0er0OAJCQHIn7z/88EN0RoZ3+UQIrbALoeyr4VHFShFbUQx/cgR6hoBVYFDwtDSc1HjGXw0H/Afv8ZOyr/jiTUsFbrUUfaVh4xTxmRmtajhcf/31cbZ94cKFYdttt42KNif/shz/qKOOisUVvij7KOoomdYgNKOUSnhmRp+ZeQ4Wwp34Fstjjz02nHrqqVkS+FNn1O/UqVPjzP9mm20WhgwZEjbaaKM4q8EAAKsAHn300SwttTtZQiV9yONHMVUnKjK8bAcGOmUwROV32xGohwDfSP67qRfH/R2BdiKgfrsSDbZPreTvbo5AuxGQ3C0bGQW5jXbY2+KutZO8sk+FqSLZk4ti4cp+10r0t94jAE9xiv7VV18dZsyY0WV5ODzIPu78siA6SrnZhkVKEUprJyj7efT5Xik3ODDTjpIPrrvssktUrFm6zzL+e++9NzbMhCP8+PHj4zJ9pccMAzP5wljuXL3HUn/292t/PX6Eo6E/+OCDw+GHHx6Dq62grhi8Ydk+S/aPO+64uCXowgsvjMv6zz333Egj5wN0mkFxt/xLXbASwrpRp+Jr8HFlv9O4xMtbCQF9B7QztDF8J/a7qRTH3RyBVBCAZ+kz8+079Nn2PhV6nQ5HwCKgthbdEEM7DC+7WRmB5JV9SFaHumDBgvDtt9+uXAp3cQR6iIDt0Fg6zmwvM7wcBMmec6tMKguUITUydJYY0lEjQ4PD7DNxCVvrpzTLZAsfKZFcQ7jWWmvFPfHnnHNOWHXVVeN+cLuEn0E8zuNgtp+Gu9KsOnv2SZP95AwW6Ho9lHzVBzjuu+++cWBBmHKGAkv+CcPgA6e2sooA8/PPP0ebLQePPPJIPBcAB+owP8gQA5bsj9US1JcMGIExgyxgRb1gcBev611x3HYEOhmBl156KWtH+Jb4ftT2dTIuXvZiIMCgut0ShyxD/2f7hWKUxKnsNAQk93FFMHKhm+oIJK/sa+kugjcH4TBrJ6FTdvXiuY8jUBsBOjbx2FdffdXlgLd11lknXHDBBWHatGmZEkhqdIRqZOxggXJin/hOO+0UHn/88ZqKfhk6U5RyCbYa7BAOKh+z58ym//nPf47XEa6yyiphzJgxUUAGe5bO77fffnGQZfDgweGII46I1+dddNFFUdkkXWbcWRFAvC233DIOGGy99dZx2T97/Lk2SO3BlVdeGQ/4o7045JBD4jkAKPicOkx9cQo/KwNIh/rlAD/8N9lkk/Dss8/G8igtlaXsts40UDnBasMNN/QD+gSI245ABQTmz58fD/rk5hVkFNoNtXsVgruTI5AUAsgxzzzzTNwWt2TJki60VZJtugTwF0cgAQQYrELGHDZsWLYaBZk0L48mQGpbSUhe2Rc6dKLbb799drCWlC35u+0I9BQBGgUUePaVo0Ci+LGHmx9K6sYbbxz3mDODY2d7iSODgEcDg2HGesCAAWHOnDmlV/btd4jiLwEBdw2icGc7B+JxOB74/elPf4pL+IXdQw89FJX9PffcM16bx0DJDjvsEG699VYFCYzcnnDCCdGdcCj9/Dj8jxUBNPg6oIVnrvKjvRg5cmRcpk9dYKCLgYH77rsvbi9gQIBzAjg4EDoVptLKguhZ0j/xshQVri2E9/3qvZJWuBerTxBgRRDfCco+Rt9Ppw0W9gmYnkhbEGDbIjysAV9WJKrvbgtBnqkj0CACkj+Z4GH1KAY3yTMNJtMRwZJX9rXMlv3PXKvF9Xssy+VKKGZQUdD85xj0lAdYus+ycWb12Qv+29/+NvTr1y92fmussUa06QiZjWamn1Pen3zyybjMXMq9bCm6H3zwQdwOwDYADAouQqBGGtWRqqEqc0tDuXvzKzM2KZRNW01oZ6WoQBc3J8D3OqUZN/i8E3g2hXpxGoqBAFeJsu3r6aefzrYesfWF78QV/mLUYSdTyaC2lP1ly5ZFKBgsx3hb38mcUayyn3HGGfE2JbYfYmQXqxTNpTZ5ZZ/i0yAxK9i/f/+4fJdrtziNm6W466+/vv8cgx7zAFe9MSLIj8rzEOIAACAASURBVJPZUXD0zrMUfxR93vnBf4899lj8MlHkpbyj7DOiyAzzhAkT4mCURsvznzGKUyeMPvZG0bfKZx4/f+9bBDRgpVSXLl0at01gy7iyLyTcdgT+gwDtO+d/sPLIlSPniiIigJLPVrh8H5B/L2LZnObOQIDJCa5zdlMdgUIo+5DP0ltGIF9++eXw/PPPx2eu3uLObf85Bj3lAQ7SIy589fDDD8cl+1Lqrc0sPwMD7C1/8MEH4+F7rDahQ7RKqRR4XeFnO0wGA+w2gOqfZXl8XNlPuy7hSZQUy8NSWliJYvmVsITD3/J12iV06hyB5iLAqjAM34dMp20DUrndLiYCOohV7T1yjFYiFrNETnWnIIA8Ar9qRYraXuffrhyQvLJPI6RlcSKdyrQdq9zddgS6iwB8xMw8SgzbQ7gmjtPiUfRZus++fWb1f//734cXXnghhkPRoXFhoIDD5E466aR4ENyJJ54Y95GPGzcunuaPzV51foTj/nds7R/vLq1FDO/Kftq1ZpV8KKXj5HtQhyl/3NXmwv++RDntenXqWoOABnfJjW9Cg2D6blpDhefiCPQMAfiVth1D+652H152Hu4Zph6rtQjkZRFt/VZb3Fpq0s0teWXfVhh7q+07HS0Nlf8cg57ygP002X/JEn0U/dVXXz0MGjQoXgU3ffr0qADRqEjhId5tt90Ww3JdHNfLsZ9fh8eNHTs2Kv6HHXZYdOOsiQMPPDCwQmDy5Mlx1LwTOlPK2JufrR9/7nsExNO0q5rVIRe+J5Yoq71llFy8z3O+g+17yjxFR6AYCHAlqNpyvhGekU2qbeEqRqmcyk5BgHafiQ7bvndK2b2cxUcAWYWtKByWilFb7DP7Xes2eWVf5FJxV111VeDkbirXjSPQFwhovz1pca8416+xXJ8Z+KlTp8YsENyk9OAA/9GgsG+fsyNIA387I2pp02Eh3377bRg+fHi2t8imacOX6RmcevMrExapl4U2Fp6Ev7mZ4JhjjonnT6i9Fb9Sn3pOvUxOnyPQTATYq8+KLm6vwOhbaWaenrYj0JcIfPjhh4FViGxLxHBoqxtHoCgIII9wzTXXKMt4OywkVtjJK/sIoPzYj8E1Wccdd1ykXkoaQqf/HIOe8oA+BUa3OXl80qRJ4ZFHHomn8+MnRZ1n8rCNCNe7sQpARiPjepdNYyTD3e7XXXedXktv90bRt7iVHqg2FRCe5QdvY7AZ3OJAVA6q/PTTT+O7/ESm142QcLuTEeAWGAaHn3322QiDHTDrZFy87MVAgLaes7Bo65kZZRk/q7a8fS9G/TmV/0Fg4sSJ8TR+TbxVk8U7Ga8VmkoBUEBRYsk0RgegFYBsJzFhBKTkSIlfvnx5Rq3cEODssmXeMffff39c6q8INoxdEi13Rs7ZJsCpodobp7hltV3ZT79m6RgR+jAS9DiPgpsoWO0iXhbfq0QuEAoJtzsVAQ4OZsB39uzZGQT0KZqMyBz9wRFIFAFWccHDTGxockMyS6IkO1mOQERAfHr55ZfHASuHpToChVD2OXABgZRlpaecckoUTKWkVS+a+zgCfYeAVWw0anjHHXfE6yCtHzlqkIBn64cAKGW/7yjzlDodAdpC8Zx4E0x4hv9q/egsrRJPWNJ68sknw4gRI7LZHsvHpO3tb6dzXWeUv9a3gx8rX/hOXn311QgIyj/GfoedgZSXsqgIvPTSS3FWlJWNtp335fxFrdHOohueZUXudtttlw2ySvbpLCRqlzZ5ZZ+KlGBJx8q+ZxkJuHp32xFoFgK2E5Qg58p+s9D2dBtFgDZQs/KV4sC3tX7EgZ9ZaWIHDXBftGhRNtNDGhoUwNY3UClPd3MEyoJArW8HP0yl21W0HLosOHg5yosAfcj7778fCwhPM7mmtr68pfaSlQEBrcRFBvroo49ikXxVVeWaTV7Zh2waIy0l5V0HiVQukrs6An2PgAQ7Upai48p+3+PsKXYfAdpHKSVSMnhHeZd7NZvcFIdnwtG+isc10Kpw5MXPunefYo/hCBQDgWrfjdx1PznfhOSSWoNvxSi1U9lJCIhfxcsqO/2CG0cgdQTgU3hYA1Ti2zw/p16OZtOXvLKvPRmqSADxSmw2W3j6eQQQ7mSkCLmyL0TcThUBKSW1bBR3jYYTTs+USbzOM52ovgOUGzeOQNkRqPXd6FsQBvputO/ZvxEh43ZREBBPw7t6LgrtTqcjAALSGa3s4siEkLyyb2f0Z86cGebNm5fVm3emGRT+0GQEbMenRsSV/SaD7snXRcDypQ0sd+x6P+IxmEonqTaVkXJOGP/hhx+yZMX3mYM/OAIlR6CRb4frgO0EhGZK/XspOXOUpHi0+9OmTYulYaBKfUFJiufFKDECGlhly+GLL76YldRODmeOHf6QvLKvSmPUfK+99gonnHBCdmJ0h9edF7+FCEh5IksJca7st7ACPKuqCMCbDIpyoJLlUyLUU1askqIMaHNR9AcOHBgWL16cLdlXW6xwbjsCZUeg3veDkLnRRhuFf/zjHxEKvpH8N1h2jLx8xUaAMyfWXnvteN2w+gMGfe1EW7FL6NSXHYFzzz03bLHFFvG8CcoK73o73LXWk1f2VWEsNR05cmQ49NBDYwl8mVHXivS35iIgPiQXV/abi7Wn3n0EmJ2x++hROuBT+LbWT/vbiG95fNasWWG11VYLCxYsyNIlfSn8Nmz3qfUYjkAxEKj17eDH3eR8J5pVwo1vBKVJ30oxSupUdioCrJjl6r3vv/8+tvVamdKpeHi5i4UAuuD5558fr8GWDCQZvVglaS61ySv7Kj7C6KhRo8Kxxx4bnbTcVP5uOwLNRMAqN2pIfGa/mYh72o0goH3CNiyz8Q8//HC48sorayr6lqel9Csd7g1fddVVw8cff5wpLfA9+WG7IiOk3C4zAnwjtX6ff/55WHPNNcPzzz+fbYEhfKXvssw4edmKiwBX762yyirZli1O43fjCBQFAQZWL7/88nh9JDRL4S8K/a2iM3llX6csYt95553h5ptvjoImHaor/K1iE88HfpPpjrKPEqWRchqhTTfdNFx11VUxKW+UhKjbvUXAKhfsY9tjjz3ibM2WW24Zbrrppuyk8DwfS2m38aHlrbfeCieddFL48ccf48F8uNHeEg6bWSA3jkCnI7B06dJwzjnnBO4ox/C9uHEEioIAMsgXX3wRxo0bF9v2f//735F0ZBwm2Nw4AikjoEmKxx57LE5u6Iwh3YySMu2tpq0Qyr5AYcTRVqIr+0LG7WYjkFeSyK+Rmf38LCjK13XXXRfJdf5tdq11TvpS2rG//fbbqOyvvvrqcdaxX79+YbvttgscJCZhrhLvociz71+GQSoNbMlNNoKgC4NCw+1ORoB9+zKVviv5ue0IpIrA/Pnzu5DGIIC3710g8ZcEERCPouQvW7asC4VWZu/i0aEvySv7qhcJqbxbgVT+bjsCzUTANhxSgBpR9qEJBYwRSPh22LBhYfLkydlsaTNp9rQ7BwGtHqHEzOzvueeecWZ/rbXWisvx2ZPJb/fddw9PPvlkpvTrQCYhBa9WWnGCEkNY6+eKjVBzu1MRsN/dd999F2HIr5LpVGy83OkjQJsueUbtOW70A/zcOAKpIyCFX3Sy2srNyggURtlH2cpX6srFcRdHoDkI9EbZhyKNlDOzf8YZZ8Rl0h988EF48803/ecY9JgHXn/99fDee+/F+O+88060X3755XiYKXuJpeTnbW42ue++++IqAHjwo48+Cq+++mogDa43ffvtt+N+/XfffTfApxzUx/79Tz/9NLzyyis+WNWcZsZTLSACuv5JkxCSU1xZKmBldiDJyDZ2gEr8K+W/AyHxIhcIAU1AaEm/JoatzF6g4jSN1MIo+yAwZcqU8NRTTzUNDE/YEaiGgG04NBLeyMy+Gh6lu+666wZmW7nWLK+A+ft/Zp8dh8Zx4CTw9dZbL6yxxhoZPw0ZMiQ+c8AeP+HJMwcx8c5AADw4aNCg+A5PKpxs0swPGKyzzjox3O233y6WdtsR6FgEmNnn2qevvvoqYmAVJPUTHQuOF7wQCCxZsiScfvrp2dlCItrKPHJz2xFICQG1t0xwTJo0KZLGIKvz7sq1VAhlnwpltJFZ0bFjx8ZZJVXyykVyF0eg7xGwjYeEuEaUfUsJjdDw4cPDBRdcEDjFmYNxsP3nGPSUB5jVh48Q2L788ss4A//GG2+E0aNHBwaWrLLOXcoo8ij8hxxySFxdMmbMmLjknz2bKCykw+w9M/rQxH5k3Djhf+HCheHZZ5+Nh0xyWKobR6DTEeD74Bt74YUXooCp2X3kE804dTpGXv50EUCu5iYJ+gWukbTbUtKl2ilzBLoicOGFF4b1118/HpAKT+e3J3YN3ZlvySv7VqkfOXJkOP7447Oasn6Zoz84Ak1AoC+UfchC2b/66qsjhSj/8LD/HIOe8oBYHSVDy4Z/+eWXuDdfM/SymalHueeqJYQ68tx1113DzjvvnMWFz1FStKwzfw0Tp43Dw/fcc4+ydtsR6FgEli9fHpV9Zpas4dty4wgUAQGuWaWPsDdJOP8WoeacRiFgr97DDVlI8pDCdLqdvLKvCkIIRdkfP368V6JAcbtlCPRG2VdcVgQMHjw4HtAH4XSo+PnPMegpD/zf//3fSt8A1+LttttuUYBj6X7//v3DAQccEJ555pl4SCSdoPZlHn744WGnnXbK9uBLyVeimukhDnviSJttArfeequCuO0IdCwCXLnHNpoZM2Zk3xTfss/qdyxLFKrgyCSs1mJ7FjP7GujV6sVCFcaJ7UgE4Fmus+Zaa56l5Hsb3JUdklf21ejQgbJkde7cuV1L4G+OQAsQgP9kxJONLOO38VCkhg4dGq699lol5bYj0GsE4Cv4TAo8h+2h7LOM/+ijjw7Tp08PGhRQGGX6+9//PowaNSq+ilc1q8O7njUwxYnjm2yySbj77ruVhNuOQGkR4Buo9eNMlueeey6wmoZvRIdElRYQL1ipEIBnmdFnsIp+RP0DPC+lqVQF9sKUEgFkHg4rpv2FpyWjl7KwPSxU8sq+LReNj4/WWET8uVUI0PnJqCFxZV+IuN0uBOjcpGBoFp79ao8++mg8bZ/99uJX2k6FhV6eXdlvV815vkVAoJairz5BMglCpox9lpvbjkCqCIiXU6XP6XIEaiFAG6x2WPJOrfCd6Je8sq+K04gjlaRK9QaqE1m2PWW2vCaedGW/PXXhuVZGQLP3+DLTaA3KhwYD5E6b6sq+0HDbEVgZAdr9Wj8bQ1fwIZ/Y/sKG8WdHICUEkGU0MCVbK8Wch1OqKaelGgJWNyTMTz/9FIPm3avF7xT35JV9WxEffvhhdsWNdfdnR6DZCNiOz5X9ZqPt6fcEAS0lJi4CG4YOD37NL8lEIUH5d2W/J0h7nE5BoJairz7hnXfeWQkO/KQ8reTpDo5AQgjQV7z11lsJUeSkOALdQ2DZsmUZD+dlne6lVN7QySv7CKQafTzuuOPCJZdcEgVXhFUpXeWtHi9ZKghIsIMe8Z3P7KdSO51LB7zIcnxsO7PPUn7xaR4dO/Poyn4eHX93BFYgUE/Z54C+rbbaKrz22mtxxaGu3luRgj85AukiQN/BNasjRowI3Cyh1SkoTHbLV7olcMo6GQGtVrztttvC3nvvHSc34F3kHyuzdzJGKnvyyr4IxaZB4n5oN45AqxGwDYeUKFf2W10Lnl8eAXjR8qb8UehlmGEkXKURb1f2hZLbjsDKCNRT9plR4tqyWbNmxch2wE39xMqpuosjkA4CHGwGD7P8WSvC0qHOKXEE6iNw/vnnhwEDBmSykAYB6sfsnBDJK/sIqFoOt/3228er9+iAcaskvHZO1XlJW4mAVagkxLmy38oa8LwaQSDfLqr9xLYz+nSGP//8sy/jbwRUD9OxCNRT9r/44ouwxhprxNPMAckqS5JbOhY8L3jyCNAPsCoFZZ9rVZkRlZGco3e3HYHUEBCPTpo0KV5rLfp8VYqQWGEnr+yvIDWEE088MaBguXEEWo2AK/utRtzzaxQBlHj25mt/vlUy7CE1POdHvH1mv1GUPVwnIlBP2Wcmf4899gjz58/P4NEkhP0OM09/cAQSQgAe/fjjj8Ouu+6aDVQ53yZUQU5KXQTg12nTpoUxY8bEsGp/60bssADJK/uakVIDpIq0yleH1ZkXtw0IWH7TaKLP7LehIjzLPkXAlf0+hdMT6zAEkEfsbChyimSUDoPCi1tABCTLaCYUW7J2AYvjJHcYAuJVVqVYw8SGldmtX6c+J6/sUzHMXOngECqQzlWV3KkV5+VuLQK24VAH6cp+a+vAc+t7BFzZ73tMPcXOQUB9ASXW4XxS/l3p7xw+KGpJka35/fvf/15p1RdubhyB1BGQTgidKPlqh63MnnoZWkFf8sq+V1gr2MDzqIeA5UMJeK7s10PN/VNHwJX91GvI6SsKAihNGNtXFIV2p7OzEbA8a7d+dTYqXvoiIKBVKaJVE8F5d/l3qp28sq+KoQG69957w/Tp06teKaWwbjsCfY2A7Qxd2e9rdD29diHgyn67kPd8y4DAN998E6688sowb948v6qsDBXaYWVAMVq0aFE455xzwo8//thloMqVpQ5jhoIWl5VU3Chx1VVXxRL4yqrKFVkIZZ/lcDRKo0ePjlfv6b1ykdzVEeh7BFzZ73tMPcX2I+DKfvvrwCkoLgKLFy8OAwcODE899VQshA7AZHLCXsNX3BI65WVGAFmaayM5jX/p0qVdeFYrVcpcfi9b8RGATydOnBg23HDDOOCqmf3il6xvS5C8sk9jJEVriy22CGPHjo0I4OaV2rfM4KlVR0A8SAif2a+Ok/sUCwFX9otVX05tWggws4+i9Mwzz0TCJJMggErxT4tip8YR6IrA3LlzIw8zk//LL7/EAyatvNM1tL85AukggH6IOf/888M666yTEUY77DycwREfklf2oZKOk9/ee+8dzjvvvHgIA+9uHIFWIWAbDlf2W4W659NsBFzZbzbCnn6ZEViwYEH4zW9+E2bMmJEp9xJAy1xuL1t5EJgzZ07YaKONwldffdVFQfp//+//laeQXpLSIoBsftNNN4Xtttsu/Pzzz76dqkpNF0LZF+0PPPBAl/ts5e62I9BsBFzZbzbCnn47EHBlvx2oe55lQYAZpClTpoTly5fHCQnK5bcFlaV2O6McLN+Hh7US5aeffvJVs51R9aUoJYOrnJnCmW4YTcb5hHDX6k1e2acB0tI4RhqpQB9x7FqJ/tZ8BFzZbz7GnkPrEXBlv/WYe47lQkB9A0ImP83s+9Vl5arnMpcGnkW2lqJEWf1U/jLXeDnKpnNR4FX4F11R7a/0xnKUtPelSF7ZpyNVpakSNQLZ++J7Co5AYwhIoCO0OkS/eq8x7DxUugi4sp9u3Thl6SMgmQRKfRIi/fpyCqsjkFfuXc6ujpX7pIGAdENLjdph2zZb/059Tl7Zp2JUod99912maHVqhXm524OAK/vtwd1zbS4Cruw3F19PvfwIsITfGoRMBoRtn2H9/dkRSAkBlHyW7otff/jhh5TIc1ocgaoIcKikJt++//77GI59+25WRqAQyj4jNeyDmzBhQrjhhhti5aqCVy6SuzgCfY+AOkJSFu/5zH7f4+wpthYBV/Zbi7fnVi4EuHrv8MMPD6+99lqXZc8+K1quei5raZhI44A+Dr/+7LPPYjE1I/q///u/ZS22l6tECPzP//xP4Dy3I488Mk4Mq+2VXaKi9qoohVD2VWnbbLNNGDNmTCxwfslRr1DwyI5AHQRc2a8DkHsXEgFX9gtZbU50IggsWbIkXls2ffr0SJEOhdJe0kTIdDIcgaoIvPTSS5GHv/322xjGZeuqULlHYgggl/O78MILw4ABA7IBVw1YJUZuW8lJXtln5FHL+Lfddttw8MEHR8CYXZV7WxH0zDsCAVf2O6KaO66Qrux3XJV7gfsQgR9//DEqSi+88EJMVfIKKxFd4e9DoD2ppiHwz3/+M/IwM/nI1drz3LQMPWFHoI8QYFYfM2nSpDB48OBM2fe2d2WAk1f2IRlFi/0Yxx57bJg4cWL45ZdfvEFauS7dpYkIuLLfRHA96bYh4Mp+26D3jEuAwPvvvx922WWXMHPmzHjHM0VyZakEFdshRUC5nz17dhg6dGj49NNPu5SagSw3jkDqCLDyG2V/t912i2dPQC/yum9D6VpzySv7WsIP2YsWLcquVehaDH9zBJqLgCv7zcXXU28PAq7stwd3z7U8CCxcuDCuMuSwKAyTERid7RJf/M8RSBABrY6Vos87E2tW3kmQbCfJEYgIaNsUbS9bqjCsqnKzMgLJK/vsvdBP5PuIjZBwu1UI2M5PQlxfHNCX31tE45XfM0feuClfyuzfQKtqvtz5uLJf7vr10vUOAdreWj8tI6V9/ve//90ls3zb3sXTXxyBBBCAt6UccdsVBjeMlTeig/85AgkiQNsrmRme1WCrBrISJLktJCWv7FN5mt1XJYIUDZJXZlt4piMzVQdI4dUJ9oWyLzBJ3+Yhd3XEvDMQoG8Bd41qKqzbjkB3EXBlv7uIefhOQkDtcjUbLNRGW+WetrlSe95J2HlZi4OAXbIvvpWcU5xSOKWdhgBtLm0tW6ckG4tv9d5pmFQrb/LKPoSr8Zk2bVrgMBGMKzrVqtTdm4GAeJC01Zj0hbIPH9NgqdHK004jpvwI6w1YHiF/7w0Cruz3Bj2PW3YEaPfr/W699dbADL/aaQ6HYgDA2+qyc0fxy4dM8dNPP4VLL700mzzTLKmVeYpfUi9BmRGYP39+uP/++2MRfRK4ck0nr+xTcXSidKZ77LFH+NOf/hQVIy2fq1wsd3UE+hYB2/FJqOsLZV+zQqKWtBES87NE+UOf6JBdmBRqbvcUAVf2e4qcx+sEBOop+gsWLAgbbLBBPKBP7bFPRHQCZ5SjjMgfb775Zry27Oeff46TaDp7wso85Sitl6JsCMCryMrXXXdd2GKLLeIhqT7QWrmWk1f2LdkjR44Mhx56qHXyZ0egJQjYjq8vlX1LvJ3Fl/vLL78cGLVk9N0aBsFcqLSI+HNPEHBlvyeoeZxOQaCesv/DDz/Ea8ueeeaZDBIN4Ob38GcB/MERSAiBf/zjH5GHly5dGqmSXCE5JyFSnRRHoCICF198cRywqujpjhGB5JV9jZZzINmuu+4ajj766GxGU42S16Uj0GwEWqHs2zLMnTs3XHPNNWG77bYLTzzxRMbzvkTJouTPvUXAlf3eIujxy4xAPWX/yy+/jPc7/+1vf8tg0DJoyS6Zhz84Agki8OKLL4YNN9wwfPHFF5E6rSp0ZT/BynKSuiAAr/JjG8qvf/3rKCcjI7OVyk1XBJJX9iGXyqThue+++wKdqpYZdS2KvzkCzUOgWcq+PRgHvp43b1648cYbw/bbbx9H27k79MMPP4wFoxFDkJTC799B8+q7U1J2Zb9TatrL2RME6in7LH2+4YYbAsv5kVO0vQpF39vnniDucVqJAKsJkS+uvPLKwGn88Dt8jJGc0Up6PC9HoLsIwKevvvpqnBxjAlgrq7qbTtnDF0LZt6fwq0LUIOndbUegmQg0S9kXzdxze8EFF8TRyV/96ldR0e/Xr1944IEHFKSL8EgD5ytbMmj8oYcIuLLfQ+A8WkcgUE/ZB4RKsojPinYEe5SmkJV42Mo8pSmoF6RUCCADq62VrfOtfGVV16ouhLKvyhPpLOlXxeJGhdsD+5YvX66gdU/SbaQzzxLrwUO99Ov59yDLLlF6m369+PX8uxCT4Euj9BNORrzXyAF9xNGyTvh00KBBYfLkyTEpFPaFCxcG9hsNGzYsKvgo+muvvXZYa621wl577aUso02+yhsHOmiNvvNs94jmGzr2/CusBgmw1cnb8wL4vvJhNVqq78zOWuk8AdIQTiyjUhqy2d8qozt9tbIBWoQTYZTfsmXLYhTKLTfljZvKCc16Fg20A6Qr+kjI4qf0bHvx/fffxzIII/IS3cKKdOwyMYVVeja/SLwpD+/QiiE9aBYPyo3ZQozKE1/+eysJ9Ngy4Cf6FA7bYqn0hAv+ovXwww8Pu+yyS1YeykI4tbk8y414X331VeDsFJ18K9qr2ZamdjxXo0vu4s1KtOGncNXsSvHcrTwIVKt3uevb53vR92q/vfIg4SUpIwL0JbZfUxlp+2q1jQrntiPQTgQkC4lXkWsk27STrhTzLoSyL+FYFQuQqlA760+Hi7Auo2VJ6ph7Yiutnto9ydPG6Wm+imfTqvSscNXsSnG641Yt3VTc65VFdBJORnzYiLIvxVRxR4wYEe6666546N4f//jHsNFGG2VKPjP566yzTva+3377hQsvvDBwtRNKsWj47LPPwiWXXBKuvvrqcPbZZ2fXUZIH3wBbXc4///z4Y2BBCjP+7DG99tprY7qTJk0Kd955Z/Yt4c/JvOTJAMSUKVPCRx99JNLjSafkec4554QJEyaERx55pIugQNwrrrginHfeeeHPf/5zeOONN7LVBwjFjz/+eLjoooviCgbStkoqSwk5o+C0006L+bOPECP8Zs6cGS6//PJYJuhn2SyGuvj2228DdUGZKdP06dMzwZswHEBEeU4//fSI2fvvvx/j8oegc/fdd8e4Z555ZlRi1bbgTxsCRmeddVbAf8aMGTEunQtlmjp1aqwL0r/++uu7DCxAF2W67LLLwimnnBI4xEt1CN2kRZlY0cEySgZ+ZKjvm2++OWIN3tSplAnCvP322xFnykv6nPEgf3jgr3/9a/Sn/lHMNQDBgNC7774bT6+ljn7zm9/EASjq9aqrror4kSbv4Ez8m266KdYndXfqqaeGddddN2JW79tRWVWmdtj1aJSQUIk2/OrFrxTP3cqDQCP1//nnn2fftS15Cvxv6fFnR6AaApKbJWsTzvm3GlrungoCdmBV8qR1S4XOFOhIXtmXYoXNSfwoN2qEp4yPWgAAIABJREFUNCJpZ9nyoNbrrOv559Pr7nu99Ov5dze/fPjepl8vfj3/PD2pvTdKP+FkxJONKPuKg01jtMkmm0SFatq0aQHFX0v2mcnXs+zf/va3YdNNNw0777xzHBxQWrNnz44rARgo4LqRW265JZstRvA899xzw2abbRZPJ+WAP8KL/nfeeSeMGTMmXhc1ePDgqKj+61//ikmjEKJgDh06NPpz4Mk///nPOEtMA4oyv/fee8cBCuLuu+++2Qwy6aNUjh49Oh5YtdVWW0VFlYTx+/jjj8Nxxx0X42688caBGWWUTgxKM8op5RwwYEDMHyVYAgiKL4o8WOBPuOeffz7GRSGDxgMPPDAMHDgwkPb48eMDAyIYViKgxA4fPjz677TTTnFrhNoMBj9OOOGESPN6660XDjrooKhISwlEgScOKzK23HLLOPACFrQ9KNVgCV38wMYOcHDgEViCFQcgobQLa3jhoYceiulCM9eKaoADurmFgcEeysvVXrR7zKpjoJ241D08sO2228YySVBjS8hRRx0Vy8vg0dixY8OiRYtiXP4YONhhhx0C5QUXaGe2HjqocwYAxJusMtl8883DkCFDIh1gQBjwL4IyDO/V+2XA5B7qxcPfTbkRqMcDfFccHPzaa6/F75Jvgv6BeGpDyo2Ql67oCDAYThuvlYE+O1r0Gu0c+mlnWbmIDIz8ZY0mP6xbJz8nr+yrclAIOKyM2VCMFH35Y0uA5xkhH6G8Xmddz9+m35PneunX8+9JnjZOb9OvF7+ev6UlxedG6SecTHeVffgQwQ+eRYliphiD8sYMNwqUFHyUszXXXDMqYocddlgMxwwxBhrsrDNumrGNAf77x7dCnhi7RF1hUJ71rXzzzTdyzmyUbMW3K2cIwDtxhUEW6b9KO2mjBAuv/HdKPGbrRbdtkBUH+iUoyyYf0uKd9PMGevM02fTkJzfiyw0hp1J8YQA9KNKUzRqlRRmoF40sK4zKTri8H2GkvFOeSvUk4Yu2TCsclCfxlSZ0QavFyj6LDtKg7khDZVN6CkO6lPWVV16JM/h2ZYfS1BYMcCF+rZ+waJddizbrl6fP+tV6zsfz93IhUKvu8aNtpr1G2c8bfS95d393BFJC4L333gurrLJK7NvpI9QXwN9uHIHUEaCd5ZBUJmQwzreVa6wwyj4C8ahRo+KMFUVRg4RAjNBpDUtcWX761FNP1RRE63XkfcE0jeRRK4wtV0+ea6XdSPnqxa/n3xOaWxmnUfotVlISG53Zh3dpkPgxK8pyaPEvvPvJJ5/EpdKaTUXxp/NlRhheVt6EVd5gJGWQZ/LgJ4Myp4EB4qMYSsFXGCmQvKMw5hV7K6xKSVRc6Fd6pANd9jvETzPz+KNA2vShTwonaeIvenknPcqjMwJIz4YnDO/KU3jizjNlZsRXgxO4Y0jH4kSe9p1n/QgPxnZAArrIV2XPtz9gJpqJr7Shhx/xLA62DkSflHje8/6UzZabMKSLIW/wIIxwgXawxU/hCEsYm7bKoTCsxIAPWfmAIazKHB3++0f4Wj8bth3PtWhTWRUGjIRT3k9h8nY7yuR5tg6BfH3n3xcvXhy/E2ZH8bMm/279/NkRSAUBBqpo6xm4sn1dvr9NhV6nwxGwCCDrsCWRlYoY51uLzorn5JV9VRzCKMvlWJ4qAVoCLcVBoP3666/jrCnLULfeeuu4vDffOXf3fQVUPXvqbn758D3LdUWsfHr59xUhKz/lw3f3vXKq6bjWK48oJZyMFO5GlX3FQ8Fi2fR1110XndSxomDwzPJr9kqzpE4z/ccff7yix9lw6JDylnnkHgjDd6Nvx34n5GPdUTxt2ZQUtBIW2xpobcQoHPH1XC9erXCUQfRUo5dyUTe10qnkZ/GpRWMei1ph8SO8aBXP2DiWFoXFFj08Kx7p6Jk0aANxIw2bjtJXHesdW/hYNzC1hrxR7NnuwRYBbYewYXgmLcJBQ61fPl6r32vRhh8GG6ztz/rVSqPV5fH8WotArbrHjy1EbFliWwuDm3wT+W+qtRR7bo5A4wjQdzz22GNxFdeSJUuyiPBwpT4kC+APjkAiCNDuclYU2xmZ4KENxng73LWCklf2IVeVx1JXNUC2IhFIb7vttniqtJQkDq3C1Ous6/l3hav7b/XSr+ff/Ry7xuht+vXi1/PvSk16b43STzgZKV3dVfbhXWbv2V+EIR3xNu9S8uBzRirZd8/sPrNGeWO/A0sb7iiCSouBAZQYGZ6ZoSVvhZEfbsxKMwCgOAyyKS/yUfrKU35Kg++SMslfWOX9paDm40MTborPzLvCKg38hJ2lT/7YxLFtRL68+At7ygpmelc6woC4+Nv0CCN/nvGzdPKsmXDKRNrWHzfN8JMO5cynT54yYGL9ebf0Us/UHXlAr8LmaSQf/Aln6VE++Mmw4oR0MXJXfSh96qLWT2m1y65FG34YcAAnysiPZ2HTSPx2lc3zbT4CjdQ/h4vab7X5VHkOjkDfIKD+QWe6qM8i9Xzf3Dc5eiqOQN8jgFzCKiuMZJO+z6XYKRZC2bdCGXBLSaFS77vvvrDNNtvEmdBVV1012ihUr776aqyZep11Pf/eVm+99Ov5Nzv/eunXo6+ef7302+3fKP2Ek5Hi04iyLwWC+DxzYBsnt0s4lFJB2vCzGirCszeaE+AZeVcnjHIro7iE5dnSqDCy88qhOnn5599xlzIpBVy0KY6+Q+IKE/lBDw0wBrqImw+j92q0y580yIP8+FUrZ6UwlDsfnne5qYyiG3fiqGzgrrCiw6ZJPVr6CW/987iSri2X8rH5591IX4b8bD3YtBSG/LWP36Zly0FYpWvpx534OlNB8WWrPPAh6dX7iaZ22Y3QRxjKR7n58YwbppH47Sqb59t8BOrVv74H275V+iabT6nn4Ah0HwF4VW2djS2+tm7+7AikioDkOPhZvCuZJVWaW01XIZR9BDAEUilIzHxyajhLojWTz6nRPHPAGVdF2X2zekYQl6As5rAMwUybBGAdQqU8aRAVh0qSu5Qw0WgrkHyVvr3+THE0E6fZM6WrOEpLcaHBKnvyV3wxOe4qJ88SPiTACw/rZ8OrnNChjsDSpLBKj7LL4Kc4ylfhcVc6yoN4KhPYy11lUrrEs275cHonvPLjWflRX6pbG9b6E15+ot1iatNGkUUJ53T9pUuX4pXRp/oFF9JRvizT33777eN1bDFCA8oEmNX6KR23m4NALezxw8gWz4hP4S0NeNjD/eBFfTOySUdtyltvvZV1WOJH0iQ98rD8rbyJT1j8WOVEe6jDTOWHXckoDQZIWQaHgWf1bZBn/juwdGtggXjEsfSRjjDAX9+G0pMN7TZN0uEn2mSrrZBNmjZ90lNYbH179jtUePITPRzwwyoabj/gwCrcVX5uuOCWBZVP7tHB/0qNADxU6yeehecVTm5qD0oNkBeu0AjYdl58Kz5Wf1ToAjrxHYGAeJW+WTJFRxS8G4UshLIvgXf+/Pnx7udhw4ZlM/mchCuFn5l9lH32mrJn/8gjj4xKv4Qz7gXnRH+urNpnn33ifefCisNJuEub/dKkf8wxx8SD0+TPtVi///3v4zVV7NFDOJRBQOaqMK454wC2Qw45pMv1XZxofcABBwSuUiMuQrgUeNLQlWUojrvvvnt49NFHM8GX67u4SozVCgxucAWXPUH93nvvjVdOsOSb67Nuv/32TMAlbfLCnfhcKwYtNOaYDz74IF6VBlakzRVlUkpQYFEacGc2+ne/+114+umns7gs8T355JNjmUibq9GgFUMHQplIl+u8wPqll17K6CLcscceGxVl8OIaNgRqGfZB7rXXXlH45lqwG2+8MRPKGeiBTg5rpB45sV5XuBGfJe9cCQfd/LgznrMcMAxysBKEvT3UM2m8/vrrUYGCRziU7OCDD46n4xP36KOPzhQwFATKxDVs8AdXzFFueI/0wIfr01DmuRqOtHHnRzjC77jjjmGNNdaI+4skCKpj7aktzNxuDgL16oVctRwfYUlCP+5SJPWMn9oy3KQU28E3rubjCpl77rmHINHYzov4+n7VrimcFFt4mm+P704CHLQQD1tu8LTiTJw4MX43On2ftN9///0sL5uHHayQ4oy/LS/xyU98rviyVXbehbH8oEk0qowahFAYtZ+6qYI4Ni/5427zUhilK2xJn+01XIHJNZAy4D1r1qx4xeLdd98dnaEXDGy6Cu92uRAQb1azKS03V1j+5JuAfzXoVy5EvDRlQwDehYfVFtpJr7KV1ctTLgTUByMHMEiPoW8WL5ertL0rTSGUfQQ2hC6Ud5QohFjN5Gs2X+/9+vWLyhZLpTm0wXa4KILcqY3Se95558XZGgnfEvZQPDkEkPu1rfDKQAMn/KNcMhDAwAEGIYA8uDedwQJoJO+FCxdmQiwzupzAjoKLgsx1a1bA597rk046KcblrAHuM4dZEUgRHKAFmo444oh4z7dVLrhDnfu7GYiArmeeeSbjCHBDaWCwgLiU2Q4UoCSffvrpgUPgKBcz1TLM2j/wwAMRL/JmOTmHdsmglDDAMW7cuHh/OoKyrhIjDPeEM9AAHtDHia8afaPsKPD4UR8cSifhnDKzB5K74g899NCY9gsvvJB9vNBPmcDxlFNOiZgvWLBAZMW4DDyceOKJ4U9/+lM8DE+nm1NXpEU9gBV4zJ07N1N4GEi45JJLItbE54o84mAQ3hjwUT1dcMEFYdKkSZFO8GNgACzBirTXXXfdyKennXZaLCP+YEh8Zm4x1E81IbJR95iQ/zUNgXr1AM/wrTD4Zb9LCGIAC960h9zxzgw6fIi7lE4VAN7gKkYNJvLNaBbbKtYMyvFNkRZ71chLK21ot/g2GDSALgbP5syZk+UlhRebzpJ4DDQeeOCBWRkIjxvpQwNlIy3aDDswB92kQTnwf/bZZwNtkk7xx5+2kHf8NSCIO4NwHK4zb968TFEnHTCXsk87KHqJQ/5SrPiuSYN34ah2hLA8M/BBW8SeVL43GfLV90f7TPkQGBise/zxxxUs2qzyot9hoE/CRZcA/lJaBOp9/wyYMzDMAX3iLzsgV1pgvGClQQDeZVKGyQ5r1AZbN392BFJDAFno0ksvjRMc0udSozEFepJX9qWs0/Awe40yjkHQRcli6aX26qP4o/Qfd9xx2R3UhFWjBSMg1PEuRR5bwiRCLZ07RgKlFFSETp6xiS+mkgBOGrgjDMoPAVTCIekpH9HDO2EoI+mKVgkNhIMeBFNs3JUeYSUYiwYJvPKLCf63/KQvZUThoFO0CGfFwSZdCTuiHRpUPtmWJvIRhsJTWJOG/EQD74rPs/JRHNGDn/KzNIh+8lJcuRFXcYjPD8Ngg/JX/Sof0SJ/3BWPZ9JW/SgMZUYhI39+KDdDhgyJgwMKC5b42UEe/ERXT23R7XZzEKhXLwxWsfqEFSrXXnttrF++JQaKWAFC+3TXXXfFQTYOXUSBRplHeeSqGOLAP/Adg4CsLKEdY0CTgTTSZ/UOgwriJVb+oGCwUoi8WS3EaiYGz6TsMljFgBOrX1hZAn0MAECb/bYoHytlGCS1B0GixEAHd9eysof43HJCWii9DCCIHgYoxo4dG8OywoWVRNA0c+bMOJCw5557RjqJBxYYvgUGC6Gb9KdOnRrpUpr6tqBP3zMDrgxgaDUQefC8wQYbxIFFhcNm8JH+grRZzYUwy2CsVi6Qz4MPPhjjk4ZWL7FSjCtb1S8ozb/85S+hf//+XWb9RWtzOM9TTQGBet8/A198JyhMMsRx4wgUBQHafXiYgVPatLxMVJRyOJ2dh4BkJyZ2WdWNkQzfeWjULnHyyr7IR/hjSTSKvAwCIzNkCLEIvVrSzxJtliVh6HhpvGjE6gln1p84xCWPSgYms4ZweTfbaFYSAJS29aOclg7yUDielQdhbDxLiw2Xd+ddAmwlP/JHcSXtSumjPGtwQfFtOPwlqMvf2nyIlEE0UA6VD3eVT3H0TjiLi30mLPkqHdFj6aAu7DtxlDbhbV3hR1g1GkpXNCl92XKXjbLP3t8ZM2bIaSVbaZJGb34rJewOfYpAvbqhjhGUWD3D1hdmkfk+mElmtQ1+bGEhHRQCRqAfeuihbLsJiqZWxLDaZb/99otxiMtgJso+yrhmxFkZQBz4i4ECttawami11VaLCquWtRN3lVVWCaeeemrcfsLKHQYe1C4CEoo/PM7AAX4yfBfwMEvaWR2DMs3gBKsNrrnmmpg3q2IwhGPbEm0zCjFtB5hAI4o8A5VcNUlarC7CH4UbrJhRJxzKOKuZrEHZ5htUW0N7QdnIH0w33HDDuJIGzBgAZpCXlTUYVv6QH9tmWOnEwAWrbRiEQOGnfAwu0F+MGTMmDkCwkohtWKSN8Et9YaAfw8oE8qReNGCXb4NiQP8rFQL1vn8G4Ri040wH2nTxTalA8MKUFgHaQlZs0n4yQ0qba2Wz0hbcC1YKBOBX2ly2HEuGkcxQigL2YSEKoewjkPJjX+mtt94aZ4vyM9HMIjETxowqgh7CHcsv1VkLM3XGUvRgFmvosGns8u4Kg4BHGClrSkfpEk5CoBpN0UBYG05pkpf8rL+eRZPSUzy9Ex/h2M5Yiw78hB8KMWlCH7YtI2mpLKKffHFT/spXNnVAGpXiKgxxyR+j8vCsvPDH3fqRPz/CWBqVJm7EI0xeSScdyqky5P1Jg7hKm7A8KzxlgV7i8Ux62PInLHFEl2hQGDBBKTnjjDPisjjywihdlYE0MCp7T22l53ZzEKhXL/AJ++OZpcbQ4aA8Y1As2TIkHmDvN1s/aKfYrrPDDjvE2X8tn4Sn2HfGUnK2CYnH4B0ZthIhmD388MNyigo06ZIfyin5MSjKGRI6aJT2kZluq8iSAAMNKCusKMCgjNNZosQzYPDcc89FRZ/VBDIoyAywYphtZ1UAgwFsZSIctLPKAMUZZRx6ULShEUN+nGGCIS0GA9hKQHlpw/im9H3EQOaPVQSsMCAORt8jM/6smmAwhAEOBhHsliUGFygjdKD8ky+rFLTdAIyZ0afvoAzgICNaOIuDutG7/N0uLwL1vn++N7Zu8R3Aw5Y39P2WFx0vWdERoP+izWSQWavCVCZtC9O7245AigggryNzaNW32l1kAzcrEEhe2bdKUr7x0VJ7FYfKZQ82DReCmd1jrjCyCQtT0NhVYgoETgnp+NOJ86PztwY3KYLW3T4rnUrhquWNO+EROq0AkU8XfEg/TxfhiC93PVNm0lY8m15PnpW+jUv65CM/2TZMI882nn2uFJc8+ej1oVcKQxr5dIRzpfByqxdG2Co8dn4wyvrpGd4TTT21lZbbzUGgXr3wHbGEDCXy73//e1SomWVnmTuKIed3YJjNJgyzxyij3BhCO4WSTDsFL2BYSsnKJJRk+Eqj1BowQ2FmxhwlnbytUqpZfb4BVhqwlF/xoIftAww4kKaW8nP2BoMHDBTkvx3yJ94uu+wS98rTzvDj7AnO4cAwQ45SzxJ3lGdWHLDKikEPthBwqCWGwQcUbFY3MKPOoCyDA1yb+sQTT8Qw9o9vToZyyrCSgcEUHcYjfDjXhKX6lI/zMZiBx1AGtZ8c1klcBjywOU/DGs4AYJBg+vTp1jnijAP0s9yfcNSXsO0S2F9KhUC975/CakBNBec7gj/styk/tx2BlBCAvzFLlizJyFJflDn4gyOQKAJWNpA+KJnAyhCJkt9SspJX9kFDQqiUZglv+NFYUbmEUeXixnJV9vXnjTrvvDtxSV95KW3clK7iIEDys+68iwb5Kw3LkEpDZdE7cdTw4kZa+XjEQcDE3YZVGrKtn54trQonmzD8RAPP5E9+KAW4y5AO+efTIwzhhYHytWkTJ++vdOhg9KxyE5dn4sgQRuFquUGLPn7RT3qi0ZbV0kqahCEP7EoGP+gSnYSxHaTiiU+VP+Es7XkahFV37Er0uVvfIVCvLsiJdgbllT3kzIajxKPoohhyoj18whJ4FEnNyKMgMDuNm51dRoklLkv9MeIdZl8wrGxCuebgOXVq8DnxmIWX2x/+8Ie4PF7tBTP1DCJwgJ4MvMgyZNLjUEsZ0hBva5CCw/XgZ/BgVYJm9jm0EsWeFQfwPQoOebJEn7ITh4EvaGOQgsENDt7UzRWcTcCWBwzhiEse+ub5ruw7gw+6XlVhUL7ZbkD6zE6xrYC6EGakDW3MwKLkI9gygMGAsG4fIV8OIwQLZvgxrDLQoAj1wGoE6ov8VC8xoP+VFoF637/affhc34zilBYUL1ipEJBMovZUhRM/691tRyBFBOBf8a5s6KRPd7MCgeSVfSqSztMaKVPqVGvZNp4/OwLNQsA2MigCrgw0C+nWplurbcFPAzoojyiKnCGi2e5dd90182emnmXmLG9nBQCzzAMHDowrAa688srsQFFm9lFCmfEmHLPfKKhcRckBm/gzGMBSeAYQCMNMOzPqpI1BySY+gw3QA2+y+oAZd7YVSLhDmUXBZmZfS+Ck/JIOiu6ECRPiigBm/jEsgWeFAjSyigp6WEHAQAKz/SyzR1lmfz7L7VHyMdBOGA1UsCWLZ/b+QwdGdOWFTL4l4cxKBOKh2HOzBdfkMWDAagGuJSUNDgEEawYUuOmEPfz7779/HJQAd/Jj0IV0mK3Hn0EUVj7gxsoAHWYaCfuv4MC5BNSpMLLfvMK5XS4E6n3/lFbySLlK7qXpBASsQkTbqckd+N6NI1AkBMTL+b67SGVoJq3JK/sUHmEPwYoTlhHuVKn4NdIZNxNAT7uzEYA3UU4Q+MSXKCQocDr5u7MRKnbp67UvzIIjJHFlI8ogyi6z7izhZx+/FEJ4gsP2mBnmhHsUZlYBcGI+iry9MpNZchR69tgza46/rvoETRRorslj2TqKOsvnUfTZl4/hJgCUYQYEUGJZts6ydsIy4w192hLFTDwrERgsYLUBSjVl5qBBDvVDAeaAPuKjxLNcHrpYyaABAA4g5IwU6OAQu/XXXz/O4DP7z4oADEIkB+hxaB5X7d1xxx3xrAOUcRkNkOk7AjspUriB89tvvx0xYdCCmXZoI18GPHT2AekwEMJZCmwvAHMGJ7gukxUOGGb3OVAQeqkDysNBgaTF6gNWVkjwJTyrN8CUKz9FpwvEqrny2vW+fwZ++PZZyYKBRzH5Aavo6H+OQGIIwN/IKWxp0kGxIlHtsN7ddgRSRQAZhMOP4VlNDKRKa7voSl7ZR+CjAhH6EJCZicEgiNXriF0YaxdbdVa+EvCk2KHMoNBZRaazEClPaeu1MSqpTuKXcspd8xzeJcWQDoh3lAIURymmKN2ctG9Ho2nbWF7PMnRmz/GDDmx1ZLSJ+HGK/YcffpitDIAeFFmUWpab69Al3BiIQFnOG/iUGW0GBmQ4R2D11VePe+yJo9ls8ic/Vg+QvnifcqPY0+nOmTMnO8XeCoxcUwYuGAZJoB9MZNRe6ztSWfFXPgxcMGPPigKw/eyzz2J55W/zU5kZ3IA21QXpEY58CMPABuXBH9zB1NJFeG0T0BVrWr4t2t0uJwL1vn/4igMq+Yb4BsSHzh/l5IcyloqtWLT/uvFFbb22hJWxzF6mciBAH46cwKpCJhk0iUG7beWHcpS2d6VIXtm3xWOWSQcvyb1eZ6xwbjsCzUAAAc/OAJIHCggND4qJm2Ij0Ej7IiVSNiWWwsozadh3iwi8YxVU+ElhrbvikAfuhJOxz3LDZol+3k/vLGXXqgRWHTCbzWoE3PhpL7/205Mes5UqI2Xi2XaouFlj6VeZqoW3YW0aPCsuQigz6xyAyPL/KVOmRCUeDK1htUI1QRWaCa+ZV5QyYUIaUtZ4lsLGIAUrEjhrQGW0gzM2b38uFwLUd60ffMYWEs57sAY+snxl/fzZEUgJAQY3UfbpLzDV2s6UaHZaHAGLAKv2WMXnpjoCySv7EgI5hIqlq9yHjKCGwIYQWKsjlmBWvfju4wj0DQLiNfiUWdvdd989MGLuptgI1GtfEOglHEn5xUbYJ66USqGAIppXTuVXyc4rDKRrFVLykkGRzucHDSit5EtaWiWgOLI50JRD/ZjpZnScmW6WrfMuYxV12l7ttZc/bbWlx9Kidpw0eIYuCZc827Rt+aTokwcrItgasO+++8ZD+Fiaz5kGDEyQr9IjrOggXT2TjzVKGzrBhnyxCc+z6onvmS0LUugU1qblz+VEAJ6p9WMJNFtjWLGi70G8LP4qJzJeqjIgQNvHyie2M3FVqfoyeJc+w40jkDICyBL006xK3GmnnWIbjIwDX1s5IuUytIq25JV9CwRLRLUHVO61OuK8cKc4bjsCfYWABDoJeDQ8PLN/WsJfX+Xl6bQegd62L/AHHY8UTlsCOip1SPCNeIkwErps+Hx7RpoKRzpW2eU9H96mxXM+Dns2JeDBuygwoi8fV+/kWSmMOmGFk12JJsphy05ca+THIASrEMiP8wUou5bt2fB6lrKu90p1gB/hUOBlSN/SwGCJXeGgGf9K5VYabpcDgUa+f+QSy2viD/UJ5UDCS1FWBGjrH3zwwVg8tXuV2umylt/LVXwEuNFIW+wkExW/VH1bguSVfQQqhGWMGiILQSOdsQ3vz45AMxGQAiAFpZl5edrNR6Be+yIFknqXgKT2qhp1xFFY8YnaNhQF/K3yQDq4W95SPOVh20nc7AAD6eGP8kE+yhtFXc9KRx2lFBbcCUN8flYpVhxs3CvNeNv0odm+Q4/eSds+23x4lp/ytHebq3zy472WARvVEfnaZ8UVvnpXetCcd5Of2+VDAL6r9aPEeZ4QP5UPDS9R2RGg3aPtV39U9vJ6+YqNgNpa+mT1y7THGL0Xu4R9R33yyj5F1f5IBDMMDZGea3XEeQGx72DzlByBFQiowYEv1dDgKx5dEdKfioZAvfZFyrEtl+UBq7RbdxueZym3NgydlVW6Fce2a5U6NNIQTyoOthRY66a0yF8rA+zhdKRv07L5kU+1NIUb4VU2+z3wTFylRxgrYCp477FfAAAgAElEQVRdxREObJPBkL6lGbc8dqSheIqjdGMiJh3eyUt4UGbRhh/1CH2qT9GhdNwuJwLi42q2Sg3viVexxfPyd9sRSBUBrUDMt2m2PU6VdqfLEQAB9f3027bPd3RWIJC8sm8bHPaRSvHPC20riuRPjkDrEJCCxMnkGClG3EfuAl/r6sFz6hkCWrbPoIWUFbWt7EeWIEjqdKLy412Kcc9y9liOQPoIWB7X94GbnikBZ0nkjYRPyS/qJ2y8fBx/dwTagQAyCze1YBjg1J7ndtDieToC3UFA7Sk8jMyN0dY+O1jfnTTLGjZ5ZZ+OlUqjAjkN+fzzz48zUJphKWvFeLmKhYBGE+FTOs783enFKo1T2ykI5NtRlHlmeJ599tl4n729exnFRR1oXuHpFLy8nJ2FgPgdhR7ZY+LEieGiiy4KEyZMCBdffHE45phjwpAhQ+KBkVzPeOaZZ0Y/wlx11VWBKywxGgRGONWvs5D00qaIAO39rFmzwiabbBIWL17cZQBXSlOKdDtNjoAQYCXihRdeGLbZZpsuE2x2oFZhO9lOXtm3M0lbb711PJGfCqMirV8nV6KXvb0ISGFS4zJ//vx49R73d7txBFJHAIWGVSi0p5qRZBUV1zEtWLAgW7puV6oQ1tvf1GvW6estAvA8ijq3APE9DB8+PHAFMDdVDBo0KIwcOTKsu+664de//nUYNmxYGDp0aHzedNNNY3hOidbsvmghvbyb/Nx2BFqNwLvvvht5lbZfskyrafD8HIGeICB55YorrggDBw6MSSDPaAV4T9Isa5zklX0BT+dIx8r1ezIadde7245AOxCQEiQBDkVpwIAB4bnnnmsHOZ6nI9AtBFDa1ZZKgecqPpSbTz/9NNsDpyVzDGrB8xrc6lZmHtgRKBAC+i4uvfTSqMgvXLgwUl+J/1ndRR/Ad7F06dJ4ReQ555yTzeqr2HxHmumXm9uOQLsQeOONN2JbzxWmkmWgxT63izbP1xFoBIELLrggrLfeetn2KufdlVErhLJP58ieaJbG3XLLLdn1UCsXx10cgdYiIOWIXNmXyUjj559/HsaPHx/oRN04AkVDAKWFVSkHHXRQsIf1WWXf8n3Ryuf0OgKNIiBl/7TTTgsbb7xxpqTrW6g2E4oyv91228Vl/crLDo4pXfm57Qi0AwH4kK0m+++/f1iyZEkXEux5LV08/MURSAgBZJQ777wzHHHEEV0mINRGJ0RqW0kphLKvTjJ/WmhbkfPMHYEQwo8//hgbmLzwpgP7HCRHoAgIVJqppLO0I+RS8GmP9VyEsjmNjkBPERCfn3322XFfs9KRu74PO1PP7D7t/w477BCYcZLJ9xFyd9sRaBcC4kkrW/sS6HbVhufbEwSkH+qwYdlqm3uSZhnjFELZ1/JoVYA6Wr277Qi0GwHxpJ3psQJgu+nz/B2BSgig0Evgk794We/YhLP8XCmMDe/PjkAZEGClFrx+3nnnxX36CJCsfEHAtN+NfSY8Aueee+4ZVyOCgwRSnu13VAaMvAzFRcDyJaUQH1fqF4pbSqe87AhYPhYP5/XGsmNQr3zJK/tUoq6tkYBJZapC6xXQ/R2BZiOA8CclXweGkKePLDYbeU+/LxBAsJOBZ9W2orDID762nacNp7huOwJlQwD5gx979lnGbw3XVepbwUY+UZtPn8AZQ5zgj5/C8T1JnrFp+bMj0A4E1L5LfoFvMeLjdtDkeToCjSIgJZ+2GCM+5tkHVbuimLyyb8nlZNs333zTOvmzI5AUAlL2b7zxxnhIU1LEOTGOQA4B8asGUvHmmcOa4GG7HQVl34XAHID+WkgEpJxDvBQc+F7fgwolgZGrnQYPHhwFSH0r8lNYCZ6kjdA5atSoeCWU/AmvMNgaAJC/245AOxD48ssvw/XXX5/xvlWY2kGP5+kIdAcBJiXee++9cPXVV8dompRQu96dtMocthDKPp0iQuYee+wRzjrrrNjhakSyzJXjZSsWAvApfPnRRx8Frl568MEHi1UAp7bjEaCDpLPkXnF4mEObpKBYZaXjgXIACoEA7THtsngYGzfkCfiZyQMOKMsbvgF+Uv65eo/r9mop6MqDMK7s5xH19xQRoL2fPXt2bOu5QQKe12CW+DlFup0mR0AI0I4zWMWVqMzwq812/hVC/7GTV/bpmPlhtt5663DooYfGZ3Xi/ymG/zsC7UEAoVH8qZHERYsWxTs/33rrrfYQ5bk6Ag0iAO/SOapjlM31kbp6DwEQU0vRaTA7D+YItBQBq+grY9xQaGi799lnn7DjjjuG6667LvzrX/+qyuOXXHJJ+PWvf60koo2QaY2+HVf2LSr+nDoCr7/+emzrOWxYMgw8zPfhxhFIGQHJ3gzGct21DG0zPOxmBQLJK/uQirBJxTGzf9xxx8XnfEe7okj+5Ai0BwEpRXPnzg1DhgwJ06dPbw8hnqsj0EMEtJ941qxZYa211gos8ZTQJ2Wmh0l7NEcgGQSQJxAUTz311KjoMLDFsvsbbrghLF68OM76M0vEj3Bnnnlm2HDDDaO7CiFBU+/6PkjbZ/aFitspIwDPsoqrX79+ceuWrtvTYFjKtDttjoDa4MsuuyxsvvnmQbdKSBZ3hFYgUAhlH2ET5X7q1KnhpZdeisKnKnlFUfzJEWgfAnSO8CizpOwh+tvf/hav5UPw859jkCoP8MUg8OXbU2Z5HnroobhnX7Tb5XF0pvC8/Nx2Hk+RB+BReNvSprYaHj744IPDGmusEVZdddWw9tprR8V/6NCh4eabbw4//fRT1qFMmjQpzuwTV0p95vnfB7mTlyv7eXT8PUUE4NVvvvkmXHnllVF2QYaBj/W9pEiz0+QIWATgVwas7rzzzmzFFv5qj23YTn5OXtn3Cutk9ky/7ChALH2TIoQwiEHYY5RRnabbrgylyANaIQUPS4FnsAr+pe2VP7TD47ihPBE+r0SlWD6nqbO/u3rK/tixY8Oaa64ZlXxWsjDDz69///4Bpf+OO+6I+/pZAcA7hm/AfhvR0QiX8Jwr+0LFbUfAEXAEmoOA5BGbOu0vRrKL9evk5+SVfSqHymN5ER03s/y6ZqGTK87Lng4CNDgyLIOeN29eOPHEE8Muu+wStt9+e/85BsnyAEuX4dPRo0eH7bbbLi5l3nbbbaPNPeH477zzzpH+bbbZJgu31VZbJVsm/+a8zREPcP0d/Axv44aNG7zMGUDsw5eCv8oqq2TPcsPef//9wxZbbBHPYVE7X8lWP+DKfiV03C1FBH755ZcoVyNbw7d2hZeUphTpdpocASGATshEBbwLH9sbhBTG7RCSV/bV+NDwMLOkPUVeeY5AKgho8Emz+yyBRtk/5ZRT4j3L3LXsP8cgRR4455xzwsUXXxwuuuiieNMJ73rmfBRoZj/cBRdcEM4777z4zDVkZ599dnRLsUxOk39r4oEJEyZEvtU7PIwbfM7NPsOGDQurrbZapuSzd5nl/CzrZ3k/zyeccEI8L+i3v/1t7HKQRaTY2z5Ibvj7zL5Fxp9TRUDy9ddffx1J1DsvOqslVdqdLkdAbS6raGlzMZaHHaEVCCSv7Gt0kUo95JBDwl/+8pesMuW3ojj+5Ai0FoF8h0iDw6nORxxxROCgPvi21q+11HpuRUUAHqITY0BJ7Z6W3WtWhjD4EU5hcMMQhkEp4sjgljda+vbFF1/EWf3vvvsuBlE88leY7nSq0KF4JCi6ZIuOfJr6vrB1UjRhlZbis/UgbxQm7+7vnYMA/FHrd9RRR8XDyZjB13J+nrlmjzaca1QRJBkk4NBVfVeVEBQvEsaV/UoIuVuKCHD15IgRI7LDzWrxeIr0O02djQDt7l133RXlFZCQzNDZqKxc+uSVfQQ2Ca8suzv66KOj4IqbC3MrV6i7tBYBCXjkijLFO9eWISw+9dRTNQVNG7e1VHtuRUEgr/xWohs+QkBrlJ+sMJfvGKXUz5kzJ6yzzjrxDnIUFxsHpRvlOh+3Em1KDz+bBuVisMHu/Vdbb9NR22/jEg6a8NNqGsXBDeUM90qDGQrndmcgwDdR6zd+/Phgl+8PHjw4jBs3Lh6wCkI6pI+r9zbddNPIU+Ir2UJS3x+86sq+UHE7ZQTg4dmzZ8eVLcuWLctmR+Fll69TrjmnDQQkg7DakHNW4GdkAK22dZRWIJC8sr+C1BD32h1++OHWyZ8dgbYiYJUQNTCffvpp3N/56quv1hQ0JRy2tQCeedII0HlJqUCBpSPDwGvq2BTG8iJhJKxxjoQ6RVtY0lIc2fLn1hOWMXP1HukTX+nxjDLTiBG9Nix8X00Z1zdhhU2VkzSUN7RAs+gmH8K5cQQsAvBRrd9ee+0VVl999TBo0KBw/PHHhxkzZmQ8ZdOxyr54TrbCiXdxd2VfqLidMgLw6ptvvhmVfbbINtqup1wmp63zEEDZHzhwYCYD2EmGzkOjcomTV/apNGZ/aJTYA61l/LhVEmArF9NdHYHmIoCyoaXEKPv77LOPL+NvLuQdk7rtuFDcZaR8846ii6BmlWuUD96Z6ZaxceSGnVe+WZ3CAX2ff/55tnxedCgPvdt0Kj0T3rbVPIsODogiHWiljaccUpqUlvLTu+xK7lL4ScvmqThudxYC8FKtH7P4J598cnj22WcDW1bEU/CO5e9zzz03MOtfy4hv4T1X9msh5X6pIED7u2DBgrDrrrtG+UV9Bbxs+T8Vep0OR8AiINnh/vvvD4ceemjkWdpu9EPnX4tUAQ7os+QuXry4i+Bq/fzZEWgHAgh2GAmJouGrr76Kj7UETQmHiuO2I1AJASn4r7/+evjjH/8YHnzwwSyYZvvhP6vcMvDEvntmLm+88cbMT50gyogU4ywxs5cet08++SRbJk/6KEQTJ04Mt99+e8W4Nh09833oG5Fbd2y+EdFJOioj5X7vvfeionbaaafFZ9IlfB6L7uTnYcuFQL32l8EsnUtByfk++Fmeg59OP/10V/bLxRpeGrO16rPPPnM8HIHCIoC8wyQbRjJCb+SOwgJRg/BCzOzT2WomSJVJJ+6VWaNm3aulCIg/OYnfmnrCpg3rz45AJQTgLfjosccei6eDcxVevbYPZYU9mFwtxkn6XEdDGlJiaFMrGZRofnnDKPndd98dD3LiVPIPP/ywLg2kwUCFzUsdMX5aCWOV+Hy+Ni40KD7uHITJVWrrrbdeuPbaa7vkk0/H3zsTgUbbX3jQ8hpoofRjcD/zzDPjnn3eFVZtfgxkBsrw95l9oeJ2yghUauvF93w7bhyBlBGAR2lrrdHVe5oksX6d/Jy8sk/HiVGlal90J1ealz0dBNQhSonSu5YX8V7rl05JnJIUEbDCGMrFkUceGQ8phVbaQqtwwIPiQ/xZkvn3v/89LsXn3YaVoo07eTAwYN1wZw8nfIyyAw9jP/744/HecWb98WvEkK+UdMLTCes9r2DhzqFoaudl23ygl+WndPKcKcCWmVtuuSWWnfD0GfxseW18f+4cBGq1vfhZXoT34C2+IfxkeOaqSQbOMPjrm1AYbMVxZd+i4s+pIyC+l6ydOr1OnyOQR4B+X7KC9/t5dP7znryyL2GXBolTQ+0BOnlBsXIR3dURaD4CCIBqZFgWilLEsiIEwFq/5lPmOZQBARRbOjPuB993333DCy+8EJfUs4T90UcfDbonmbLyPHXq1HiP+J///OfYbuIuJXjhwoUx7qWXXhrwP/HEE+O1pjxr+8mSJUvCI488El577bVw0003xRPK77vvvji7P2rUqPD22283BOvSpUvD5MmT49Vlzz//fFydcNJJJwUOPONgKDs4wfdy8803xwGNww47LJxxxhlxK4I6cTKEPlYYMNN68cUXBw7B3GSTTcIVV1yxEj1SvlbycIeOQaBW25vnD/sOX9oZTqvsV5M7FN+V/Y5hr1IUlDaVPoRViWqP4fFqfF6KQnshSoEAeiGGLY5MbKAvwrc+q79y9Sav7ItkOtKRI0dGwdQbIaHidrsRkIJv6UAR4uq95557rqaiL+HQxvXnzkIAHqj1Aw11XHRkKB1rr712GDBgQLz3mzaRe8G5pUThmBm/7LLL4pJ7/G644YYI6jfffBNtlOrRo0fHeKuuumo8iG+PPfaIV5AxAIBhPzxxOZGfvFi6z2m3uKHsM2DQiJk/f35U3onHj9lRrjDjmW+EAQAM5wtwSBRlY6YeOjbYYIMYhrMCUPiZzd9yyy3jlYCkg5K/7rrrxrSY2cdIWEXh8n4iQuJ/vUBAs50TJkyI/Ma3Wo2v1J67st8LwD1qyxGYPn16bEPZFoVBpqkk17ScMM/QEWgAAeQetvEhp2Dyy/obSKIjgiSv7NuOddttt43X46hmrJ/c3HYEWo2AhDzl+9FHH0UlhZUotRS5fDzFd7tzEKjHH+q4NOvCbSTrrLNOVOZBidlH9uTT0V1zzTUZcCzBRzkePnx4nFWXh5ThWbNmxevGGAhguT8/zgLgRFvizpw5M6y//vpRyX/nnXdidAaxdtttt7D55ptH5VyrrpR2NfuNN96I3wOn+5MGy/9Jf7PNNgvbb799WL58eSxPv379wm233ZYlw6AE+/GJh7J/1llnRaH0zjvvjGEoCysb1lprrdjZ42i3IkhRyxL0B0egmwiIh1zZ7yZwHrwwCLzyyiuBQV/aTmZK6XM0Y1qYQjihHYmAZGhW9jE54KY6Askr+5COUk/js9VWW8Xlpow6uqJfvVLdp7UIoHTQ6CAYwpcsT2bW8cknn3Rlv7VVUbjc6in7UqilpJ9//vlxhZNdto9yPnTo0MDyeGsYCOAAO2bJdeK49tmzdJM4XLEnc9xxx4WddtopviIAMsuOkqMBBzweeOCB2A5zMwr51jO02+yr33DDDcN1110Xg0uQ5JYAaOB7GT9+fBxs0IySys1SfVYAcFr01ltvHbcw6BwBEgO/ESNGZAMdllbvI+rVjvvXQ8CV/XoIuX/REWBrLCutuJlCbTNlsm1p0cvo9JcTAds+IycwcYBMYAf9y1ny7pcqeWVfQi5FY9aHJZ0yVKobR6DdCNBBSjmBFmYhp0yZEtivXE+Zazftnn97EWiEP+An7R8+5ZRT4gF5UI0bnR1pMBB6xBFHZIeH4c+he8zsw4sYwhIHXn355ZfjoAF3LBMOw+j4NttsE59ZVs8KAl3zJ8X+6aefjko5/o20v8RjYAE6pk2bFtOWQv/www9HRZ69dgw0jB07Ns7646/7nll5wIg99LL8nwMKMfJnCR9L+6+++urorsEM0tBz9PA/R6AHCFhhkgFceL7aIJK+B+KgKLHd5cILL8xyhScVBltpZwH8wRFoAwIMBF900UVZ21uNv9tAmmfpCNREQLIEZxhxtpCM5CW9ux1C8sq+7RDtqKNXniOQEgJqdNRRolAh0NX7pVQGp6X1CDTCH3bAk/u+2TvPrDiG+HRy/fv3jwfW4QYvMrLNIAEKh/bhKzw2szm/+93vwgcffMBrHCRg5p0l8yjodJbMpDPzzr57zLx588JBBx0Ul/azp79Rw2F/gwcPDjvssEOYM2dOjMaKAgYWSJ+8Lr/88ng+wP33358ly4n/bCXYe++9o9vRRx8dZ6Do2GU46G/QoEHxEEC5YWtwwrr5syPQXQQkf/gy/u4i5+GLgAD9hzW86+wX6+7PjkCKCEg2ktwNjZXcUqS91TQlr+wLECu8eWMkVNxOBQHN7KO4qANtROFPhX6noz0IwCu1fnRcWpL21FNPZYfkMcuIIs8eevbrc8Dexx9/HAvBifYccocyv/rqq4eNN944HHDAAfEQP/bMs6x+zJgxUXHefffd4331LM9HIV9zzTXjLDmH/HEaP8s7cd9ll13iSgAd0sdMPKsCGjHs+Scee+tR7qGVJXdsE7j++utjEoThsEEO3iMvTuNnJp+yPfTQQzEM5wyQDlsCCMMhg8z6QyMHCHJbgJae6htshD4P4whUQ8CV/WrIuHsZEKB/0SRavu3UexnK6WUoLwLiX5WQpfxuVkYgeWVfozSQ/v3338c9GSsXw10cgfYggCLGqGK+Y9Se6lqKnCsk7amzlHJthD/Umd17771RyWWm/vbbb4/78dljf+qpp2ZX5tFeokDvv//+Yccddwwo8yyPZ1YdBZnZeQ6QZDk8B/Ltt99+UdlnKT2n4TOAwLkAUnJeeumlOKDAUvljjz023mfP2QBci6eD++rhSX4MPKCMswoBOthywMADRm08p0GzTQHFnRUGDApwyCWG1Qp8Z5wlwEDGsGHDYhk5hf/kk0+OtHHdoJbvgRkrG9w4Ar1BQN+Bz+z3BkWPmzICtKschorhWW1tyjQ7bY4ACGirHpMTuk3C5erKvJG8si9hGCGOvacsNdWS6cpFcldHoLUIiEeltDDjed5558WZVvlVs1tLqeeWGgLV+ELuole8xTvPGgBAOJOhw8NoGT7PhJPConCVlGA6TbkzcMUqAQYJ2M+v/fHKizQ56b8RQzm0jJ+BAwyDtqSlMqisShM/Ke3Kw7ppYE0dPWG4rUBG5dC7245ATxHQt+PKfk8R9HipI8A2LbZn0W/YNlm8nzr9Tl/nIiAZgMOwkbnp+9EPXUdcmScKoexDNgIeh1Adf/zxsRR5YXDlormLI9B8BOgcUb60jB+bvcYcbsYspBtHoDcISBGuZtdLu1o86640rEL96quvxuXxKP24Y+hAaXfh+UYFQQYKWGXAFXpcs8fy/yeeeCKbzbd09ORZtLvtCDQDAfG5K/vNQNfTbDcCtLnPP/983GL17bffRnJo42nzxfvtptHzdwRqIYDCzwGTbPnDIJ/A1266IpC8sq8ZLRoelpiylBSD4OkV2rUy/a09CNhRRJ4XLlwYDxbTTGZ7qPJcy4BAPQW4XhnrxbdtKLyrkfKZM2dGARBeFn/TBiu9RgXBH374IW4rYKsB2w848Z8T/ZnFp21Xej2165Xf/R2B3iAgPndlvzcoetyUEXjxxRfjwK5uDxKtavf17rYjkCoCF1xwQTwHSPRJjtG72wU5jR9BEMGQfZ5nnXVWHHHEzY0jkAICWmXC/n3N7HNwGgqTG0egNwjUU4LrpV0vvpa8Ew7FRj8Gqjgtn8P8tGrF5iUlyLpVeiacDhjEn/xsR1yPvnr+lfJ0N0egrxAQn7uy31eIejopIcCg69y5c+M5KbTTDM5ixPcp0eq0OAJ5BJAPMNdcc008C0gHuVeSWfJxO+09+Zl97SGiYriuadGiRVkdaXlp5uAPjkAbENDqE/Eq7yyD9lsj2lAZJcuyt8puo/HhWdpTtanwMkKgZuAR/tSxArF4vrtwK33i1aOtEf/u5u/hHYHuICClx5X97qDmYYuEAG3yM888E0mWzCK+L1I5nNbOQ0AyNwdMvvbaa10AcB7uAkdIXtmHXCpUlcq7DozqWhR/cwTahwANi1Vk2keJ51wmBOopvPXKWi++eJZwGJR4rVThXR0mttpg4ui5Xv7yJ02tIsBN+dWjr56/0nfbEWgGAuJ/V/abga6nmRIC6gtEk3hf7247AikikJ940Ox+3j1F2ltJU2GUfSpQjREnRLtxBFJCAGUGxQQeZa8bDY34NSU6nZZiIdBbZbdefKvYgwwCnk67Z1mn7TBZGoc/P+teC1HiENbu/4Qm0tY3U4/GWv618nY/R6C3CEjhcWW/t0h6/BQRoF3WIKxste3i/RTpdpocASEgeQU5gS2CnD2Bcf4VQv+xk1f21fBA7ptvvtllGT+V68YRaDcClRqV6dOnN6wQtZt+zz9dBGopuo20f43GJxwdpW1vOaXZXmmHfyVebxQ9VgOQvh0Eq0dfPf9G8/ZwjkBPEBC/u7LfE/Q8ThEQYNCVQ1Nl8gPAcnfbEUgVAZbx5w/EtrJMqnS3kq7klX3AQDjkxxVO48aNy2aXWgmU5+UIVENAI4uaqeQE8+HDh8crbarFcXdHoBEEeqvs1otvD8+znSPC3wYbbBC++OKLjMzuLt0nYq04DB7Uo6+ef0acPzgCTUDAlf0mgOpJJoXAjBkz4rVln3/+eRe67KBsFw9/cQQSQ+Dyyy8PI0aMyLYg6uyJxMhsKznJK/tWWNx2223jifwgRkOkjritCHrmHY0APMhSONsxMso4cODAMHv27OiOP0qLjA2LH0ud82EIb3lfcd12BPoSAfiOn/a5Ke033ngjrLLKKmH+/PkZH8K3lo8V1m1HoKwISMbwmf2y1rCXixWzv/rVr+JyfvoCGZc/hITbqSNwySWXhP79+3e56Sd1mltNX/LKvgDhSpDRo0eHQw89NAqmVmFSGLcdgXYggALE7D5KO3zJSfxDhgwJ06ZNy8hhFhN/ayodNEkHS1g3jkArEYBvUWzgUfZuMrNP57lkyZJsUJWZfyn7sltJo+flCLQaAVf2W42459dKBGjHkVeYnGCvs1YnIof4cv5W1oTn1RME4FEGqC699NKwxRZbxMPbabOZvHD+7Ypo8sq+OlvIRnnK78voWhx/cwTag4BdAr18+fIwZcqU8NVXX3UhhkaJ5UV29Dw/AAC/k5bl+y6J+Isj0IcI2EFTy3Ms6bzyyiu7zPhrpkc82odkeFKOQJII6Jvwmf0kq8eJ6gMEWInIMuiffvqpD1LzJByB1iPAVpQbb7yx9RkXKMfklX2w1CwSh0Uxg2oVqwJh7aSWGAGrAKHMsxJFM/S8S2gUBFLo5Y6t8ApjFTG5ue0I9CUCGnyC12hbxY+4w8PiQdyl7MO7dsCqL+nxtByBlBDQ9+DKfkq14rT0JQLI1czqc36L2ntv3/sSYU+r2QggqzDJhhEPNzvPoqVfCGUfIRSFXx0v724cgVQQQPmBP1HWf/nll4xPmbXPK/CErdYY5Wf5Uymf01FuBNSuYvMTP1Nq8SruruyXmw+8dCsjoG/Dlf2VsXGX4iOg9l0loY1H0XdlX4i4nTIC8Gt+uf73338fSZa8kjL9raQteWUfwZMfJr/HWR1xKwHzvBwBiwBKvu0w1cCIV8W7xMmvSqEQSZQAACAASURBVGGZ/yuvvJItlbb8nB8ksHn6syPQCgSY8bEH94m34VPL162gxfNwBNqBgNpkV/bbgb7n2SoE7JZD8Xyr8vZ8HIHeIsDgFKtTMHnlv7dplyV+8sq+lvBTmZMnTw4PPvhgnEWVe1kqwstRTATEh2pg6Cj/9a9/hbPOOitwBR8GJckukUPpf+CBB8KYMWPCww8/HL7++usuhScNDklz4wi0AgH4TatKGGSC9ziF/6ijjvID+lpRAZ5HsghI8XFlP9kqcsJ6gQATFR999FE4/PDD42QacjbyCTKLncToRRYe1RFoKgLI4NOnTw+nnnpqzMf5tjLcySv76mxZHj1q1Khw9NFHx4ZISlblYrmrI9BaBDSTT65cWzZgwIDwwgsvdCECnn322WfD3nvvHU+/5QRcDseR0cwp795gCRW3W4GAZuppb+FTTmhebbXV/Oq9VoDveSSLgOQPV/aTrSInrJcIIKdw9d4333zTy5Q8uiPQHgROP/30KHMrd84cctMVgeSVfSk9CKNS9imCOuGuxfE3R6DvEbBKeD51KUm46yyJt99+O2y00UZhzpw5WfCnnnoq7LbbbmGttdYK66yzTrQ57Rw+9p9j0C4eEINqj6YGUeFhBMCPP/44O3eC2X+1x9jEaRfdnq9/M63gAX0f5557bth44431Gvleq7nkqG8HuugLkFcuvPBCecfvRWGwCefGEWg3AtxwRVuvvc7tpsfzdwS6gwDt6MSJE8Paa6/dnWgdFzZ5ZV/LS1kGvfPOO4cjjzwy25NRSwnruJr0AjcNAZQalHoENKvc61knmosAlsXBq1wVOXv27HD88ceHddddN3aodKr8hg4dmp0eqnhuOwLtQiA/Ev7yyy+HwYMHZ/vgoEuKfrto9HwdgVYjQBuPDMISUb6HWsubpci7st/qWvL8eooAA1ZPP/10WH/99cOCBQsifyst30ooJNxOGQHOFrrkkkvCiBEj4iArcgptsZ971bXWklf2IVeNzhdffBH3FdGZaiaqa3H8zRHoWwRoOBD49LN8xxJ8ZkC5k3zRokXhn//8Z2CUHGWfZZ/jxo0LG2ywQabkr7766mGNNdYI2GxHWbx4cVwm/eGHH4b3338/vPvuu+Gdd96Jv/feey9zw91/jkEzeACehffgWfgQfn7rrbfiqpR77703vPbaa2HevHmR/958883wwQcfxPCE4bkZNHmazuup8AC8z/dxwgknhOHDh8fORUo9fYI1cndl36Liz6kjgIwzd+7cSCa8i5KU5+3Uy+D0dSYC8CuGa/eQRzAMzqotjg7+FxEohLKPgkXlsS+aitRyaa9DR6DZCFjlnrzUiDATysw9s/RrrrlmtFmizzt78dnvbP1WXXXV+I4bv/XWWy/zR/nP+xOmkpviu/0fHB2H3uEA78Jn/fr1i4NQ8DDP4MrAFM/ib9zE1/lnr4fe1YPjly5+bMmifvLLRPNyiPoGV/ab3St7+n2FADP7KPfwLrK1lHzefeVsX6Hs6TQLAa021JlZtMni52blWdR0C6HsqwHSsgy9FxV0p7s4COSVfY0ksq1kypQpcW8+J5ezlOjLL7+Ms/I//PBDnOVn6ScCogR5FCmUfNxOPvnkwEoVZvc/++yzeFAfy+j04yR/Vg5g+88xaBYPLFmypAt/aZUK+X333XeRN+FT+BI+x/+TTz6JqwB4bhZdnq7zfAo8wHVO8P4f/vCHOLOPcJlX8tWbubIvJNwuCgLI0pJp4G3xMPTb56KUx+nsLAQkn+v8FHhZAwCdhUT90hZC2WfEEWPvfFYDVb+IHsIR6DkCGljS0jY1KjQod911V9h0003jwTbiUXKik4Q/+XGq+UUXXZTt2dfM6JZbbhm+/fbbnhPmMR2BPkBAA6gkBU+zYkU8z6CV9bdtrguCfQC+J1EIBPgmzjnnnKjs820w0Mu3YL8NCqJvAj8GBPyAvkJUrxMZQjyIVUD4jL6QcDt1BCR30y77bRK1ayt5ZV+j6HSs++yzTxg/fnw2EpnvbGsX1X0dge4jIAEOJR8hTso+Kd1zzz1xibNSZZSxUkcJDz/33HPhrLPO6rI0/+KLL47pEc8qUkpPeevdbUegWQigwNgRca6PZI8yHaj4UIMA0ICb3JtFk6frCKSCAG03p/HzDVRqq6FT34Mr+6nUmtNRDwHklZkzZ4YhQ4YEVnlJfoGXXb6uh577txsB2mOuZb/mmmvCjjvuGGUYtc9Wnmk3nSnkn7yyrwpDIdp+++3jafwAJ/cUQHQayo+AFB3xHZ3izTffHPr377/SYZH46VBJkKExwqD0cwr/VlttFff1Dxo0KPz0009xNhX+lrBIWPIhHRou/zkGzeIB8XNk0BAyYY/D+FiFwhJmeBOD8KeOFNv50/myWXyZSrr6LjhwdZNNNtFrtPUtyFHtN+4+sy9U3E4dAa4IZqsh+55p01nJojY/ddqdvs5GALmcdveqq66KV1qDRl6W7myEVpQ+eWWfxgfDjOro0aPDMccck1Gf72wzD39wBPoYAQlyJCuevOOOO6Kyb/3wr8aXKEvMlk6ePDnMmjUrXuc0derUuDeaeDRc3sn2ccV5cg0hIL6DBxkAeOWVV+IqFPbpi99xz/N6Q4l7IEegoAhoMIxl/Nysgsm37yhHuOk7IQwrZbbeeut4Kwvflr4v0tNAsNIuKDROdkkQmDFjRlT2ly1blvG2t/MlqdwOKcYVV1zR5QBV59+VKz55ZV8k03mefvrp4dprr42nhsrdbUegFQjYxkNCXSPKPgKdhDqEvM022yzccsstkeTvv/8+HnSm9LC1ggDhUc+tKJ/n0ZkIwJPse5MyAgoMrHL144EHHhiXdkq5+f/snYnTXVPW/5siSggi5iEhBCFCm6XNs6Db0G3ojnkKIsTQgigipka1KaLMKsRQkoiSqQQpQkUoiZSQEkkllFD0+1a/v/4H9q8+u31v1nNyn3Pv89zpnHvWrjp3n7vHtb57n73X2iP1Ud+B7GKi5lwXDYHrrrsursoS3/Z7scudaev5j//AgQPjeS18K/zXN6N2XbbSdNsRaDYCtPVcWXbkkUfGASptm5XM0mx6PD9HoKsIIJ88//zzYejQoXHAVYOpXU2n3cNnXtmXoElBoBx5B9nuVTKb/ElQgzop59Uo+5YbOlAO9GPJkYwVGq1ASH5e14WS241GQO0s9U51nQFWeyiq6j1hvW42ukQ8/Swh8Ne//rU0sw9d+hZos+0grfWTso8bbX/ym3GFKkslXGxavvvuuwiA+oFkXS02Os59VhFQfWXQStfviVYd3qf/Rbczr+wzSk5BWiNh1Bski4q/NxIB1TnykKBXjbJPPNVf3vv27RtuvPHGKPxZRb+cMNhIfjxtRwAEaEOT7Sh1UYqIbDpV1XvC27rrSDoC7YoA8gd1/8ILL4yrstQPsHSfd83q853ID5vvY88994yn+AsbfUv8t+Hl77Yj0GwEVGeVL207dTPZJ8jfbUcgSwio/krpp96q7sotS/S2kpbMK/sImOpQuQpKy04BzXaerQTR825/BNSowKmUnmqUfcIj+FFXeTigb/To0R0Ao3FSw0Q+eu8QyP84Ag1AgMMjqZ/UO7WzZIMy8+OPP5baWOqk6j311ZX9BhSGJ5k5BCQ4MkDbr1+/MHXq1PDpp5/GMy3Y6sKzYMGC+EyfPj188sknYfbs2eGNN96IB7Fec801pe9GzPEt+ayT0HC71QgwI7p69erY5kMLfYHqfatp8/wdgTQEJCuzMgWZhXYVN9cN10Yt88q+JZnDzKZMmVIaQbd+/u4INBKBWpR9NUjQx579UaNGlepwsmOlk0XporGSctVIvjxtR0AIMJAqIY/Oc+zYsb6MX+C4XWgEOACqZ8+esf3eeuut45J+2nIGbznJvH///vH6MgYEdt5555L7ww8/XPqmBCDfmCv7QsPtViPwzTffxLOwfvnll1aT4vk7Al1CQEo910eOHz++FNdl5xIUpZfcKPuMPh566KHhzDPPjLP7KuQSJ/7iCDQQge4q+4w28mBIAwGR0/gxUqxsXWbGVIMDihcD+48j0AQEqHsoIi+//HLo1auXH9DXBMw9i+wjwCoXZvWZtWcGf86cOXEW/6mnngqbbbZZHBjD/7XXXoth3nnnnfD+++8HbrPAWOFTA7y2T8k+Ak5hOyLAFkMm0LhpYunSpbGeatWWlUvakXfnqT0QoJ7ecMMNcYCVc4ao06rD7cFhfbjIvLJPQapTHDRoUDjttNMi5zo1tD4weCqOQDoCqoOEkuBW7TJ+pUwDhLJ/xx13RCctmyY9lCweDQAQwE8VFXJuNxIB6h3L+a2ZO3dunMn0q/csKv5eRAQY/LKKD+01/2mrf/3117D++utHJd9ik2y79V/9CLZt621cf3cEmoUAbT8DWKxOYWaf/1YuaRYdno8j0F0EaEdHjBgRevTo0SEJtbUdHAv8J/PKvhQrFKV99tknKvsUrtwLXHbOehMRsA2H6l41yr6Nx4gjyz65PtJNcxAA/7SnOVRkOxfbniLsYSZOnBg23njjwBJPKSW+9Djb5ejUNR8B9u9vuummgWWktDOahOBdSlPzqfIcHYHqEKC9nzx5chzYXbJkSan+Eps67MYRyAMCl112Wdhmm23i4Cv02sHZPNDfDBozr+zb6xQYgUT4lHHhU0i43WgEbMfnyn6j0a5f+pRb2lO/nNojJXtzxIwZM0qdJ9zhZ7+D9uDYuXAEuo8AQuWECRN8FVb3IfSYLUaAibTHHnssUsHWQeq0VqK0mDTP3hFIRUBKPWcMMWiFkYyiiYvUBArkmXllX2XBXgwp95wc6sYRaCYCakDI05X9ZiJfW15pir4t09pyyW9shDpm7u0eN9Vv21mClVX2FSa/nDvljkDtCEgmISW2wvDN8J3waEVM7bl4Co5AYxCQsqTUtRrF9gfyc9sRyCICyDCSVai3K1euzCKZLacpN8q+7Tj/93//t+XAOQHFQsAqhlJ0fBl/9uuAK/vVlZFtX8sJenZAAEwlFFaXuodyBNoTAZR6GRR/20/I3W1HIMsIqM5axZ/2nQk2N45A1hHQ1inRqf8aAJB70e3MK/t0pmqEvvrqqw6jNnZUvegF6fw3FgF1iOTiyn5jsa5n6pRb2lPPvPKYlg7ms8q++OAEctpfOk38bedZbkBA8dx2BIqEwHvvvVf6NtQ3IJu4fFKkWpBfXqmz8+fPLzHgtwCVoPCXjCOg9pbV3l988UWkFn3R5ZO1Cy7zyj4kU6AImmeddVa48sorffR87XJ0lwYj4Mp+gwFuUPJpir4t0wZln/lkyyn5tLevv/56GDx4cFixYkWcxaf9tXhpADbzDDqBjkADEeBQswEDBoR333035uKKUgPB9qTrjgBLoLl6j7b+yy+/jOlrm6wd3K17xp6gI1BHBMaOHRv+8Ic/lA6Y9HZ4bXBzoexDNsuKaJBOOeWUyIUVPNdmy10cgfoiYOubRhN9GX99MW5EapRb2tOIPPOYJu2rVeDffvvteJXN4sWLS0v2yw0M5JFXp9kRqBcCP/zwQ9hwww3j9WWkaQfFtJy0Xnl5Oo5AIxDgJgmu3mNg1xpX9i0a/p5VBJBLLrzwwtC7d++skpgJunKj7DNSg7LP7D7G94xmov4UhghX9vNZ1GmKvi3TfHJXH6o1eEVqGhGfM2dOvD+cpXHyZ1ky7a7jVh/cPZX8I4CChKLEzRX6dvS9+FLS/Jdvu3PAAO/06dNjHWaW/5dffoksqy63O//OX/4RYFDqhhtuCJtssklkxk5a5J+7+nGQC2UfAZNn2LBh4aqrrirthfNCrV9F8JTSEbAKjoQ5n9lPxwxfOxtshV8O/wFTDdqxN1zvxNPBV8QBbx6VgfyYOdO+WJ0qT5vAozIifzoDzVLwX/n8+uuvMb7aEaVLWkUywhCehQUC4KBBg+IZKeBBOQhDwtmyLBJWzmuxEKDNSXsWLlwYDjzwwKjsg4yUJX1HxULLuc0bAtRTtqD0798/Xmtt+4Ki9YN5Kzundw0Ct99+ezj66KODrmr39ncNNnrLvLJvlYVly5Z1uPfZ+okhtx2BRiAgRZO0pUi6sl8ZaQkP4GeVRRsToUJLXrG1Z1ANthRLcEdR57tfunRpOPXUU8NLL73UYUDBpsvsRDJP0lD5KaxoVNikv8K1sw2m4l98fv/996X7likL297ad4V32xFoNwTSFH31CZ9//vlabNNmqV1Zy9MdHIGMIbBo0aJIEe36zz//XBr0zRiZTo4j0AEBOyDFgcIYDh0uogzXAZgyfzKv7EMzBSeBn/9+9V6ZknSnhiIgwY5M1JC4sl8ZcuGG4Ms3jNIoJR4/KxDbb5yUNQNPg04c6//++++HXr16hSuuuKI0m0YcBgsQVt55551A+VBWCDBJZZWBAJUj6fJOu2IVXtuRVOY0nyFsWYgDRsfLLeO0+KtcFcdtR6AdEaCepz22/frpp58iBGq32hEP56n9ENBAu+3vqPO2vW8/rp2jdkGAVaK2HVa9lWzTLnzWykfmlX2Eb80iSRCnMPVeKwAe3xGoBgGr3EhJdGW/MnJgZYVfRl21XF6x1Thbd2GsMNgqAxpxluC//PLL4ZNPPolBUNQltNDwjx49Oi5NtHkTkPyVH//LdQjkk4wXM2nDH+FcrrOEXdvO2jBtCIWz5AishQBtQdpjI2gSQgNl9tux4fzdEcgSAuoDLE2Sua2bvzsCWUOAesoj2RD6XE4pX0qZV/atYP7qq6+GDz74IHJiC7c8a+7qCNQPAVvf1Dm6sl8Z32+//Tbccsst4cYbbwwTJ04MWmrFwVYPPfRQePDBB6ON0s0VQFdffXV48803w9dffx0mTJgQ/vrXv4ZLL700HiJEbrQH999/f7jnnnvCY489FsPhbpXzzz77LJxzzjlhp512Cpw0/M0334S5c+eW7owX1TNnzoxXebI64G9/+1u47777AqdrF9GAn1VOKI+nn346rpqg7vPfDsbgZsMXETPnuf0RoJ6nPSDw8MMPx0FEoaH+wRUmIeJ2lhFgAPyRRx6JJNLGJ9v6LNPutBUbAWb1MciLb7zxRnxHlrGySrERWsN95pV9OloMozUHHXRQ+NOf/hSX3KpDXcOKvzkCjUNA9ZAcVPdc2a+MNwp1v3794mm/f/nLX+JdvggTnPZ+6KGHRvcTTjghfPzxx+Giiy4Km266adhss83izRt9+vSJCvsGG2wQLrnkkjiCyyDBxRdfHA444IAYd8yYMaXZeQYCaPBPOumkuMR/o402CrvssksMu+eee8bBAVYEYMaPHx+23nrrSBt0cbgL/4866qjSFUSaoavMZX5DJBV2ygbD1Xs9e/aMnSidJ/XfDqjwX2Hzy71T7gikI0A9T3s+/fTTeAo0A5W0PyhObhyBPCEwbdq0ePPKd999V5oVpW23y/rzxI/TWhwEkF94Lr/88rDjjjuWlHwrqxQHjXROM6/sSxhF2UdgR5CXkZ/+u+0INAoBBD4ZV/aFRGWb7/bWW28N++67b1yVw1VuzMovX748TJo0KQwcODBMnjw5DqAgLDP7z1VWDOyxkgehg5l+hGoZluszOIDCj7Kv8qCMELZR+E8++eSw6667xgP8OG0Y5ZUD5zAcAIhSv/nmm5dWDOB+5ZVXBgYI7rzzzhiuCB2GeAR78FObOnv27Hh/+Jdfflna9kAY+dvvIYLlP45AGyJAPU97Vq5cGdsrzgjBaICQb8Vn9tuwQrQhS9Rd+lxW3VFnfRC3DQu5TVmirlJnr7322jhRBJu017S/bjoikHllX+SyHw6F4c9//rOcSoJnycFfHIEGIWCVGymXPrNfHdicmL/bbrtFxZpGGcHin//8Z3jiiSfCXnvtVTp9n9ReeeWVwIw+yjnGLsfiWithv2TJkjj7zxJaDAMA2jPLfwYBdt999w4nC0v45roslHry+cMf/hD39v/+978P++yzT6SNUeKiGOFpBTzqOrM9DIZ89dVXsfMED/BT+KLg43wWG4E0RR+/VatWhR49egQGxxgIk5Dp30mx602euJ81a1Yc2NUBkxqwyhMPTmtxEaC+ckYT8gpGExjFRaQ855lX9lVwdKIoAs8//3xJydcsU3nW3NURqB8Crux3D0sp6yzZZ6n8+eefH7bbbrt4bd5pp50W9+Pb75h94jvssENpb79ylQCi9PjPAMKoUaNiENylzLOP6+abbw4o8AgwSl9pMNOPsg9N11xzTdzfz559lHziIfzQ7hTtoBfhB6DsgWNFBpjhnpypBB/hqjJy2xEoGgLMht59992ls0O0hxQc/PsoWm3IJ7+ssuNcHVbFqX+lzS9a/5fP0is21RpUnTp1anjqqadinUVWtxM/xUZoDfeZV/ZFKh0nV0Ixu+fGEWg2Aq7sdx9xhIgRI0aEddZZJyrYHNbHPv5NNtkkHspHyggZCMovvPBC2G+//QIz9xjtgVXjTTmgaDLj3L9//3hYH/G4bk+GtBBe2IPPMnQMAs2jjz4a5s+fH9sRlvEzqGDjLViwIB5U9NFHHymptrdR5ukwwVQdJ0wj7NHWagCA9lfv+NuwbQ+SM+gIpCBgZRK+E62ScWUpBTT3ygwCDOSyX98aK+9Yd393BLKIAGcxaWWKyyblSyjzyj4Fh5CJMCpD4+Sj5kLD7WYgYDs/NSa+jL865FliP2PGjLhE/thjj42CBUvse/XqFdjDz7fMbDoz/Sjg2rO///77x5UAHMqH4btnudbgwYPDwQcfHGfn+/btGwhHXE7c16DA66+/HvbYY494JgCKPasAtt1223DvvffGtMaOHRt69+4dl/oPGTIkDkIwOLD99tuH22+/vdCHE4Gh2tty9R4ApdBEMP3HESgoAuoLYJ/JCIzLJgWtDDlkm3bc1ldkbQapdI1tDllykguEAPUVudAaDb4m3W2YIr5nXtm3hcK1WD5abhHx92YhUE7pcWW/MvpqcGmAOVGfZfoIyFy5xwy/GmZm6s8777xw4oknhjPOOCMq+UOHDg0jR44sLelHAeW6vuOOOy6GPfPMMwMn6Z9yyilxO8CiRYtKQgrtBGcCHHHEEfEGD/Lmqj4NHJAW+2wZfOA599xz40AChwKKJi1prMxlfkOAE+Vh21XVdUbLtfUBDq1iYwXE/HLvlDsCtSOgWVF9N9h8K/6N1I6tp9B4BOijly1b1iEjH8ztAIf/yTgCyHNc84yxckrGyW4qeZlX9ik4lunS+HAf9rhx4+I7Qqg3SE2tK4XOTIIcIKgxcWW/cpXQDDHfKkvm+W5RLHHX1T4SirVkn1Q1S6bBAmYahLsUU8UnLeVDePmTDmmTrtJR2rY8UerLtSeiqzKX7RNCS/UZOGHgBUUG7MDCYmjxax/unRNHoGsIIGCyMojbQrQViRRcNukajh66NQjQ3n/yySfxoFr6SV1NS39YxP6vNaXguXYXAa1AeeaZZ+IkETKiZEDJhN1Nu93iZV7Zt4BzcjfLdd04As1GwCo3Ujpd2a+uFKzyXS6G/K2AnGyo+S9FtFwaiovN4KBVTEkf4UVpqizVMZRLr0hu4CpMhPGcOXPidgqUfgZVEPyEn7BRHP132xEoGgIo++uuu27p9hC1ZUXDwfnNLwIzZ86MbT0r2iTb5Jcbp7yICHBQ81ZbbVWSEa38V0Q8yvGceWVfwidCPAdysbRXDZL8yjHmbo5APRGwio3qnyv71SGs0VcwFI5gmJw5sDNjpMw3L0VUyjzupEFjzoM/aSFkK21RhZJql+IrPIo/xiqvxIVOK6zbd6XZbja4wnuyLWWLA1eKLV68uDRwAl5JjNsND+fHEegKAnwfKPvcFMQ3xDdCu0ab5AJnV5D0sK1CYMqUKVHZ11J+9Xu2f2wVbZ6vI5CGAPIIMgy3KnH1HnWXdhi5LynTpKVTBL/MK/sqBDrQww47LHBPtxeiUHG7WQhYJceV/epRLycw8P1aRZ8GWgMCpCxhA2EZ3LFJh3j815OkgjA8tqwIo3Sk5OOv/ClL4hRVMFddBgNr3n///XioofYj40e52EEXG97fHYEiIrBq1ar4nUyfPr00CeHfSBFrQn55fu+99+LBtNRlDCvjMF6PIwz+k3EEkF0eeOCBsM8++0RKJct5/e1YcJlX9hHwpdyvXr261BDBhgTVjiz5P0eg/ghYBVL1zmf264+zp9hcBKjXtlPUIAhUcCq/6j3uaodFoTpV/XfbESgiAitXrix9G/5NFLEG5Jtn2nV7Xg7c2D4h39w59e2MgGQS6ivtMAaZRTJ6O/PeVd4yr+zDkGb9VIBaomEF064y7uEdga4gIKWHOKqHrux3BUEPm0UEaENRUOzMPh2nre+iOykAevsrZNwuKgLqC+Cf70OySlHxcL7zhQDtvuowK7dsu+/te77KssjU0u6iF7J6kzps63GRcbG850LZ17JejeIgnKqBssz4uyPQKARs46G658p+o9D2dJuFgDrGzmYkkwJf8n+z6PR8HIEsImAHwPg2OvuOski70+QISKYGCck1QsXbeiHhdlYRYEUKbXCyrlKXpTdmlfZm05V5ZZ+CVIc6a9assHDhwogRbrahajZwnl+xEHBlv1jlXRRu1baKX3WatK2TJ0+OVyDKjTD2XXHcdgSKjMDEiRPjjBIY2O/D5ZMi14r88M4A1aRJkyLBqr8aBM4PF05pERGQXM6tKLTDMqrH+u92CJlX9lVIjNIMHjw4HHPMMaUTF+XntiPQaATUqJCPRsB9Zr/RqHv6zUaAc1FYEjdt2rTQu3fvsHTp0pIik6TFfhNJP//vCBQBASYf+vTpE5599tnIrg4382+jCKWffx5p6998882wySabhBUrVpTaegaqvA7nv3zbnQPqKXV43LhxYZtttonvLOfHzetvx9LPvLIvxQqy999//3DaaadFDihkXzLXsTD9X+MQsA2H6qQr+43D21NuHgLlRsE5jf93v/td+Prrr+NBfeWoPxC9YAAAIABJREFUKRevXDh3cwTaFQHuJt9oo41Ks0r6Jlgxo/d25d35ag8EZs6cGdv6n376qcQQ9Zera904AllHgIngkSNHhg022CDrpLaUvswr+6BDw/Pjjz+Gk046KVx11VVxaSknRbtxBJqFgCv7zULa82kFAv/617+icsIAKm0rV4ntvffegZl+O6hqvwP73gqaPU9HoNUIfPbZZ3ESgpUwzCjxcOiZfxutLhnPvxoEGKx66623wp577hmWLVvWoa1PbvGqJj0P4wg0GwEGpcaOHRuGDBkSli9fHrd365rlZtOS5fxyoewLQGaZZLwwhYTbzUDACm8+s98MxD2PZiCgem0HTyXkff/996UtK6LFZyuFhNuOwH8RmD9/fgcoWELqxhHIEwJffPFFiVxtRSk5+IsjkHEEWJXy888/l6hMXiVZ8ijwSy6UfZbs88h4YyQk3G4WAlKKyK8ryj7KEQ8KFANUO+20U7j99tvjfz8ttFml17756Mo81U/VTTjubEZeaFAvFca2r6ShdOSuJZ1S9jU4QL5pj/Jy2xHIIwJpdVvfHHzxXeibySOfTnNxEdDE2a+//hpBUBuvNr+4yDjneUHADrDa97zQ3ww6M6/s0/BIKWKJnIwaJP132xFoJAJWsJNQV82e/WQ93WWXXcKYMWNKpOLvj2PQ3TqgiqTZeNVNKfEIbLhJaUnWR8WTUk96eieO2lylq/z0PSjdzmyFd9sRyCMCndVrucMT3wjflb4lfSvJby2P/DvNxUKAOssAsupwsbh3bvOGgCYdLN0+q2/RWPOeeWUfUtWJvvzyy2HevHmRes1orWHF3xyBxiGAcCejjrCryj5C4Q477BBuvvnmKBySnoRGt9NniB2f8vioDsmmraR+sof4k08+UZWNNkq86m4HjxDigCoDA5rlwZ+r9zTbw3+lrbikV6lcFNZtRyCPCFSq3wyqIZewhFTKvQRQDZTlkW+nuRgIUGepu//85z/jIK9m8zXgWwwUnMu8I7BkyZLw3HPPRTbUDmvCI++81Yv+zCv7NDoo9izdP/zww8NFF10UO1UOlKIjduMINAMBW9ekMFWj7GugChqpy7vttlu45557SiSTlj+OQXfrABXJDnxSx7788st4aNh2220X7rjjjtIAqSodK6VUL+kQywl2KPqcMj5nzpy1/LXSCporKUPK021HII8IVKrfTD7suOOO8Z5yDYxpZsn2GXnk3WlufwToB7h5ZauttoqHsdKmy9h3ubntCGQJARR7BqjYGsshk0xWIM9Qr9ER3axBIPPK/hpSQyzMoUOHWid/dwSagoAV3NQJVqPs29FF0mAZ/2233RYVfClNTWHAM2l7BKT0M6N44IEHhvXXXz+st956YfDgwbHOLViwoAMGdIyff/55eOCBB8L48ePDY489Fu1nnnkmjBo1KvTo0SMOFkycODE8/fTTcfYHv3vvvTesXLkyplVJGeqQof9xBHKGQKX6zSw+V1ROnTq1A2fqIzo4+h9HIIMIzJgxI9bh5GBVBkl1khyBDghILr/pppvClltu6RPAHdDp+Cfzyr6WwjF6s//++4dTTz21NJNlFamObPk/R6C+CKhRIVUJctUo+1LAiIdyxWzrLbfcUiKukjDp/uWXrzsu/8WFiqQ6puXDDCIdffTRUdFHEeFZd911o9J/5513hsWLF5fqH+0p/szs9O7dO2y88cZhs802iwdJbrvttvF9m222iTb+HDBJmMcffzymUakcShn5iyOQQwQq1e9FixbF7+eFF16IM0qEx0huySHLTnLBEHj77bdjHebaMowOwJacUzA4nN0cIcAMPvLO1VdfHWVrZCBm9r3url2ImVf2RTKFd//998cZJu9IhYrbzUJAQhz5qSGpRtlnmZHiEo9l/HfddVcUBn/44Ye4BImBLH8cg+7UAe5J1owMHR/v3P19yCGHRAGOpfjM7kvpZ7ae5W533313nJ1H2WcQddWqVfFTYkCKesnMPfSQPsvhfvzxx7BixYrALNDAgQPDk08+GcNXUoaa9X16Po5AIxCoVL9Xr14dRo4cGQfQCKu+QXYjaPI0HYF6IUCf8emnn4bzzz8/fPvttx2SpS9w4whkHQFk7EmTJoURI0aUthVCs/buZ53+ZtGXC2UfoRPjy56bVS08nyQCUthxlyBXjbKfTGfAgAHhT3/6Uxg+fHhU/FG8/HEMulsHBg0aFKhTis82kX322Sf06tUrzuYzoy9Ff4MNNii9MwhAvK233jrGVT21qwPkZuv+N998E/cojxs3LnamlZQhpeG2I5BHBCrVb5Qle+aF+gZ4te555N1pbn8EqL8yKEdMpOHmipJQcTvLCNj2VitSJMNYvyzz0CzacqHsJ0cYUfqtANossDyf4iJg65sakWqUfQmLIMc7ytgFF1wQnn/++TgjdP311wd/HIPu1oFrr702XHLJJXFU+8Ybb4z2VVddFZfbr7POOsEq+PxH8WcvP7Pzw4YNC0OGDAl77LFHp+2phD5s6i8z/Czvf/jhh4vbGDjnjsBvCEjARCbRgVC2r3CgHIEsI0C9VRuf3Barup1l+p02R4BB1f/85z8RCBR91WNfAd6xbmRe2afjlHKl5aodWfB/jkDjEbACnOpjNcq+KCM+e6tZxs8BZxgaI9z9cQy6WweoR+rceKeOLVu2LBx55JFRsd9www07zObvuuuu4bzzzgvs08RwwwmrAjozEgRd2e8MIXcvOgIMgCUNAqj9LpP+/t8RyAICmtmnz8DQD2lmNAv0OQ2OQBoCdkBK75LP0+IV0S/zyj6FQsdJAV533XXxRGjcdChVEQvNeW4+AnSCMmpMqlH2CYuixMOVTBzQd/PNNysptx2BmhHQcmGNZDPKfdhhh5WUfJbys6KErSNz584tXbtHxhzkt/fee5elgTrvyn5ZaNzREYgIoOifdNJJgZsuXLn3SpE3BOg7qLus8KIuS1aBD982m7fSLCa91NkXX3wxnH766REAyUOa7S8mKmtznXllXwWHcr/vvvuGM844I3JBx2oVsLVZcxdHoH4I2LrWFWXfCoDE4zRzTuPXXk/S9ccx6G4doE6pU9NKEYQ2FHiW7LOS5OKLLw4zZ84snbLMV0EHSZt67LHHxlP6cVMdtwq+fceftH0Zf/3aFU8p3whwsGXPnj3jwZWaJc03R059kRCgfWcAmDNcWDmLvKIZ0iLh4LzmEwFkGGQgDhzu06dPZMJXppQvy8wr+xpdxGZ2ipkoDIKnlK7yrLmrI1A/BKQIkaLqXTUz+5YC6nD//v3jafzW3d8dgVoQ0ConBDXeOU2f05XPPvvs8OGHH8YrH5U+559YYe6EE06IB/rhL8VeSgv/5Ybtyr5QdNsR+C8CS5cujYNqU6ZMKa2YsX2F4+QIZBkB2vV33nkn1mFuYGFyTTJ3lul22hwBEEAW5wB3zjxiyyJtryY/HKGOCGRe2ZcgSwPENVEsRZUwqln/jiz5P0eg/ghYAa47yj5xWMbft2/fcNttt5UaqfpT6ikWDQG1h9h6X7JkSUlRBw/c7SoT3OgkrbKvuLKp867sF602Ob9dQYDvjNsvZs2aVfr29M10JR0P6wi0AgHq6ltvvRVXHC5atKgDCboFq4Oj/3EEMoYAExi33npr2G+//TpQJt2xg2OB/2Re2UdAlaL1+eefx/ufVV6u7AsJtxuNgOog+XRF2bd1FCVq9913Lx3QJ2WKDtcfx6A7dcDWL/sNMLBEPWUW3yrvuKn+Et4q+0pL4fGHJtnUV1/GH+HwH0eghMC8efM6nCEkmcVnSEsQ+UuGEaCPeO+990oU0ndYeafk4S+OQMYQ0A0oP/30U1i8eHHGqMsWOZlX9oGLPRgIqBI8+W8F0mxB6tS0IwK285Oy1NVl/Iw09uvXL4wePbodIXKeWogA+/VpH3VIXxoptJ0o9tjHH398ac++6rXaWdLQO7Yr+2moul8REdAAmf3upOS7jFLEGpE/nlWH1dYjp3jdzV85FplitbnUZemKVmYvMjbiPRfKvt1jCuESbMWE245AoxGwDYeUomqUfRuPessBfWPGjGk0uZ6+I1AVAscdd1xJ2VddldDHf727sl8VnB6ozRDgG0h7tFTULnmW4OkKU5tVhjZlR8q+2KOtp16rP5C7245AVhFgKT9GckpW6WwlXZlX9m3hcdgUe+TcOALNRsB2fK7sNxt9z69RCLiy3yhkPd12QCBN0VefMH369PDLL7+U2EXZl8JUcvQXRyCjCKAovf3225E6FH8mJSTjZJRkJ8sRiAionq5YsSJ89NFH0Y1tVLS/bjoikHllXx0qS/c5iX/YsGF+2mLHMvR/TUBA9ZCs1MD4zH4TgPcsGoqAK/sNhdcTzzkClZT9jz/+OF5vOXny5HjgJbP5yZnSnEPg5LcxAihF06ZNi9epfvXVVx2W7/sVZm1c8G3EGgOtI0aMiO1w8hDiNmKzZlYyr+yr8FCwdt1113gvtLj2ZXJCwu1GI+DKfqMR9vRbgYAr+61A3fPMCwKVlP1vv/02Xls2derU0myS7SvywqfTWUwEqKszZsyIdZjDV1mV4vW3mHUhr1xTZ0eNGhU22mijyIIPtpYvycwr+5pFZQTyoIMOCueee26pQH2pRvlCddf6I2A7QNVJn9mvP86eYnMRcGW/uXh7bvlCgHY/7Vm9enUUMmfPnu1KUr6K1qn9DQFuk1h//fUDy/l9Cb9XizwhgA7Ic++994atttoqkq4zU/LERzNozbyyDwjM7tMIXXPNNeGBBx6Iy+T478YRaBYCruw3C2nPp5kIuLLfTLQ9r7whkKbo4/fdd9/F7YXsF/3Pf/6TN/ac3oIjgKK0cOHCcOCBB4Zff/21wxYUV5oKXjlywj71dPz48eHkk0+OFEtW16RcTthoOJm5UfZB4vvvv4/LjBqOimfgCCQQUAOCsxoRn9lPgOR/c4eAK/u5KzInuIkIVFL2IWX58uWlJfz8Jw59hE7qbyK5npUj0CUEJNewXx/D1ljJN11KyAM7Ai1AQFu5qcc6JFWDVF6POxZILpT95Cy+9vF3ZMX/OQKNQ0CdIjmoEXFlv3F4e8rNQcCV/ebg7LnkEwHa/bRHsggzpLr+yfYV+eTaqS4KAmn7m1Wfi4KF85lPBFD4NbAq5R9OknpjPrmrH9W5UPb//e9/r8UxnasbR6BZCFgBrp7KfpogafNsFp+eT7EQcGW/WOXt3NYfgXLttITP+ufmKToC9UdAipHL1fXH1lNsHAIo91LwNXClmX0NxDYu93ylnAtln0KjAB9++OHwwgsvxCtu8gWzU5t3BKxA58p+3kvT6RcCruwLCbcdga4jwAnmt912W1iwYEHc70zfgNCJAOqKU9fx9BjNRYBBKfbsc5r5zz//XJoN9brb3HLw3LqPAG3u9OnTw+jRo+MMv18ZWR7LzCv7anRolA499NBw1llneSdavizdtYEIuLLfQHA96ZYh4Mp+y6D3jNsAgSVLloQtttgiTkKIHc00SXaRu9uOQBYRePvtt0Pv3r3j2ROayKDuev3NYmk5TeUQuOmmm8JOO+1UmuX3Wf21UcqNsk8HOmDAgIBw6sYRaDYCruw3G3HPrxkIuLLfDJQ9j3ZFgEOhfve734VXX321xKL2Ov/P//xPyc1fHIGsIsCsKHX4p59+KilL0KpBq6zS7XQ5AhqQGj58eOjVq1cJEFf2S1CUXjKv7ItSlvEfccQR4eKLL45O2mMkf7cdgUYi4Mp+I9H1tFuFgCv7rULe820HBL788ss4sz9t2rTSIVGaHW0H/pyH9kaAgakPP/wwKkr/7//9v7hdVkq+lXnaGwXnLq8ISNm/5557wh577BG3eKPoe91du0RzoexrlGbChAlh1qxZkQtX9tcuTHdpHAK28ZAwV4/T+Ek37WkcR56yIxDiSqnBgwdHKFTH1YHyX+/Y/GeP8rbbbhvPT3H8HIGiI4BsMnbs2HhHueQUthzy6NspOkbOf3YRoM6yAmXEiBGRSBT9ZD+QXeqdsqIjoIGp+fPnl2QS2l43ayOQeWWfDlOnLGp53NpsuIsj0FgE1AGSiyv7jcXaU28eAj6z3zysPaf2ROBf//pXZExySnty6Vy1MwKrV69eiz0NXq3l4Q6OQIYQQDZHJlf7qwEA/c8QqS0lJfPKPgXGY0ccpfRbBaylKHrmbY+ArWuu7Ld9cReGQVf2C1PUzmgDEGDpM4Y+QXIJ/+0kRQOy9SQdgboggGytVbL2FHPqr8+Q1gViT6TBCGglFdnw7oOv5QHPvLJvGxxOvtWoTXl23NURaAwC3VX2LTUIg/369Qu33357XCqnQQM6XLvkk7zsf9Lgf6W6TzzFJazCY9uRT9GEO+HJH/9knhpkw51wMsk8GunPWR3ig/zJW3SLHtn4iTZo4qH9wJYhLnzJ2LRx4z8zGnK3cfEnrvVXOtiEJZ4exU3ShDtuMrX6kw50Wb7Io1yZQhvu4s+VfZWC245A9xD46quvYsT//Oc/0ZbyxHfmxhHIAwLffvttiUzV45KDvzgCGUYAWQcF/5tvvolUSrayumOGyW8aaZlX9kGCwuOk0DPOOCPeB8oeI3WoTUPKMyo0AmpAAEFCXDV79qmnUvqIy40SY8aMKWGpmSEcUNZQbmWWL1+u1w424aDBKncdAlT5x/JUZZTMBesODzaOfS/HnC27cv5ZdqvEG7S7sp/lEnTaso7AF198EY488sgwZ86coJlR9Q95bjuyjrvTVx8EkDfee++9MHDgwPD11193GIT+97//XZ9MPBVHoIEIIAc/8MAD4dhjjw0rV66Mir9vQVkb8Mwr+3SY6jT32muvcOKJJ0Yu6FDlvjZb7uII1BcBqzhJmKtG2aeOMotKfEYa+/btGweskqOOUvpppCQ0EuaHH35Ya2CL/DUzKy4tfXKrZCfjJP9Xit8Kf2i0dNbaqFdqQ1TW3eHV0tmd+M2I48p+M1D2PNoVASYh1ltvvcBp/G4cgbwhQB/18ccfx6v36OtQ/u12lLzx4/QWCwFNeF155ZWhT58+JebtpFnJseAvmVf2KR8J9FytcPTRR8cik1vBy8/ZbxICVnGTAliNsi/yiI9iSR2+66675NxhX5zqNOlPnDgxDBs2LLC8jrucrXLPe1JJxS0ZRg0eeSt/Mk77L7+s2CWgfqMbvvVAY3LlBOHpAIQFmOp/EjPC4tYZr/iXw1rh8bfv/MfIzdKJm0w9/VXu4kN5JOkoxwdhXNm3iPm7I9A1BFasWBHWXXfd8Nprr8WIamPU9nYtNQ/tCDQfgenTp0dl/+eff46Z+6rZ5peB59h9BJCnhg8fHjbbbLPSalfJf91Ptf1i5kLZp/Fh5pPRGxQllCEpXO1XJM5RFhGwyprqXjXKPmFtw7PbbruFW2+9tdQowau2paDUz507N5x00kmx8z388MM73R9OmhocIA0pkBY7KXiWduvPO/RJQE368b+SX6P902gn73L5wzePjWvfy/GZdCN8Mm3lVy4t3IR3Mi39V3z9T9r18i9HXzIv/XdlX0i47Qh0HYHvvvsunHrqqeHdd98tySS0A64wdR1Lj9EaBGbOnBmQNZJ7nn3vfmvKw3PtGgLohi+++GI488wzY7urQauupdL+oXOh7Evo5o5nKVrtXzTOYZYQsAqU6mA1yj4NkeIiAG6//fbhpptu6sAae/OZGTrqqKPC5ptvHhX9Xr16hZdffrlDuHJ/9G2U86vGTbRVE7bdwtSKXV7xsGXuyn5eS9HpzgoCy5Ytiyu09F2xkkh9RFZodDocgc4QYBWKvXrv119/7SyouzsCmUNAqzdZZYXRqioGXd2sQSDzyj4dqO1EIT2533kNO/7mCDQGAdVBUpcgV42ybxsc6i0z+xwmgmE/Psv1TzvttIByz3LQddZZJyr7uCE0Egdb+aOgkiYP76JFXPOfxo445Yz8la4NQxwGJBjRT6YrWsrFI41G+cM3jTk08ZTjC38GVaA9qcATnzjqECy/YAif8ARmSZ4JS5o8xFcZKA3SlV8yX/4Lk3I0y69WPMulTZqi29Y/6MaPPZnwCz+u7Ks03XYEakNA7QdtBSbZJtSWusd2BBqDgOqpbPoM+gb9b0yunqojUF8EJJ/5mRPlcc28sk/HqUYHARbhFtuNI9BMBNSQkKeEumqUfUsjCukuu+wSRo4cGV544YVw+umnhw033DD07NkzKvgbbLBBtDnwady4cXGvPkv8pWhis0SJpaM8q1atin7KA0WOA6PwY5ST0Xri8M3woCwzas8gA48dzUf5Iy6rDIhLPtBLx8/3xhaD77//Pj6844Zfo/2hi2tVOGUV2qARPtQmcGIwK36EB//xo7ygDZqJC1bwRHrWHwyEh/gSXmC3dOnSmC9xwVdGdIEVNIEV8UgbP8qNtMlf6TYCL5WT8IBmyhh+wQs6VF/xUxmDGZ2iK/sqUbcdge4hwHdvjf0Wrbu/OwJZQ8DKNdBGH4Ghr3LjCGQdAclk2Mg5kt2yTncr6Mu8sg8oapCYEf3www991LEVNaXgeaoOAoOUp2qVfeKqE+3fv3/YeuutQ+/evaNi/7vf/S5svPHG8Z2Z/R49esT3TTbZJA4CDB06NCptyveGG24I66+/fthoo41ivJdeeql0ei5X6Oy5554xPgMHBx54YMkPARR6OcSEPMn/oosuit8SDSRK6cknnxz9GIAYNGhQPD+AeHT8jz76aNhpp52iP6sQLrzwwhJPKI1ciwnNpA1/OrCKuJ9++mngJg38SJszCVCwZa666qqggY4tttgi5iWMUab333//0oDIvvvuGz777LOSMAJPbI0gbQZNbr755pgsAwLcagAG5MkACqsq3n//fWUb0wEHVlOAPXu+dN0QSvTf//736E5c8nj11VdjXAY6SIeBGw3UwD+0YlD2n3jiiehHultuuWW4++67o+KNPwMI3CpCOcI31x4tWrQoxmXQgHy22mqryBN8se1DNzSgrF988cWlfHfYYYfwxhtvlMrirbfeiukRj7wvvfTSONhB4vB0+eWXR37hCbooq8GDB8e8+VHnKQfKD37hCcMAxjbbbBMeeuih0oCLwrrtCBQNAb5L2pyvvvqq9I3yvbhxBPKCAAPl1157banvU/1Vm58XPpzOYiLA5MaCBQvCHXfcEQHQzL5kyGKisjbXuVD2KTQankMOOSRccsklcWbPC3LtwnSXxiHQXWXfjpCjSKIgnnPOOVGR5FAclDIeFE4pjih6o0aNCrNnzw4fffRRB6ZQylHuZs2aFd588814Wr/yQFEjDu5TpkyJyqxV3oj7/PPPx/j4q1FUBvPnzw+TJk0Kr7/+ekxD7tjMBKNIosSTPvdLW/P555+X/ImP0moNJ/6yZYF8CWsNii7pzpgxI0ydOrWkFIsv3MiTMwwY0JChTFA+J0+eHNMlDW4vwGh2DcWauPiBmy1HFGcOJyJ90k7S9cEHH8S0oZsDYKRwK/9XXnklpv3000/Hzkbu2HRAxIFvBmTY1yt+8Oe6I+gBD/KXYeCFuKz8gG7iUm7WQCf0ct0X4TSQRBjaSfAgHulzcJgMvH/55Zfh2WefjVjTQe69996xXU0KduBn647SYJUEN0o899xzcnLbESgsArRdO+64Y/zWpCTxDdt2prDgOOOZR4BBcfpAZA76GfooydbqQzPPhBNYaARod8eOHRsnc5Cxk3JtocExzGde2afxUceJosSyUwxu3hiZkvTXhiKgOkgm6gyrmdm3CiLKJTP7jz/+eKy/zHiTRr9+/Too/czInn322ZEfCZAoXsq3HKPJBg6BU242npQ6zWATRkqoVRoRAjByIw3SlFEcpaf/8ldc5V3OHxpI3/rp3SqbwoA0VQ7QwoCC/itfcOKxgw3iQTyLZuIobZsO2waSRmmQtuLzbuNBM/yKZ6WhcoA34mCUHu+iAZ5ImzQt/YSx/CofGxfeVD42bcJgoEH+ooF8OBuC1QFc88jqBFY3sOLjiiuuCKy4YBUBqwHwP+uss2IYVnZMmDDht5TdcgSKiwCreRisZYAzaVw+SSLi/7OIAIPa1GH6EPUNWaTTaXIEkghI1kFGYWWp2tykDJaMV8T/mVf2KRQV4H777RdOOeWUWE5yK2KhOc/NR8AqdWpIqlH2LaXE22677cJtt91WckYBY/Z59OjRoW/fvqXZfZaNM/urvIhg6zydshRj/PQuOoknpVQ2eSkNlHkaSimAdPRShkkvmS//CU8+yqPExG/KK2kqfWylwTsPNPMoLbmTHnSQNnngLqO88NejdAlDeMIQR+ngJqM8+c87xirS4ll5YtsBGqWt9ESP/ktR57/1E43kKWVfcbBVJtBKWJWfwihfm6b1I57NW7wRRnnbNG1YlTl0XX311XG1Cds2qJsMPO2+++5xpoel/gwE7LrrrnGQivpJG8x2CJQb8SC63HYEioYAy/e5QYVVNBi1PXy35b7douHj/GYbAeorqwHZUsbZMuoPs021U+cIdESAbSissGKrIkbtcMdQxf6XC2WfIkIIHz9+fFyOK8G82EXn3DcTASu4SZmqVtm39ZU90sOHD++g0MIHyhpL45988smoWDHSzuy+8lIY8Ux4lDYULksb7zaOjWeVP6Ujm8ZRSqCll/Rs+qRt/YlfLl3cSI+w5RreJI2kk0xX9ODHu6VDdIs+q8zKz8aXG7bykY2bDat8rAJt49m00t61OkL4yC4Xx+Jq6SIs8URT0q9cWpYX+05Y4ieVdAl4Nix3LrMNwQ6MKO/ktoJyNLibI1AEBFitdeedd8Y9+/p+sPW9FgED5zG/CNC3sPWNs4Bo69VX09an9Vf55dgpb0cE2NbKmW7IUeVky3bkuas8ZV7Zl4DZVcY8vCNQTwSs8KbGpBplH4VPSh9KFjOlOkiE/3YWGXrpYL/++utw/fXXxxlW9lgThu9AHbHCiT91yii80Em6NrzolU08/O1/FFvSJ759CKP0iYfElbPLAAAgAElEQVQf/4mvNJghxl3GvkMLj3UjHGngpjR4l3KtsISxNCp93KEVfomPURz+S9jmnbyFm8IoHWyF5dR6pSt/4uOGTVy944+bjPLAn3dsjKWd8AhT8iMcj2giLPxjK56UB9zBGH4Vn/TxJyxpY4tGxUvSwH/ypD6RjvLSQAk4KS5pMdND3jZP0pApt91Bfm47AkVDQN+Jvt+i8e/85hcB1V1xoP5B/912BPKCgOqyZJm80N1oOjOv7AMAhWeXwkqpaTQ4nr4jIASklPFfwlw1yr7iY6P0s0z6rrvuis5S9FGyUDaThuX9CxcuTDqX8peHFE87C4ufGj3Rrv+Kl/xP4yg3pamw2EqHdzBQY4othZF3FMqkITx8kr5NR2lhSxm28QkrZZ0wyjOZPv9JWwpxOfrLxZGbyjQ54CB3hcO2NIgn62/fy8XHn3yYURduNo7ebdxymIFX0l1x4Z8HTCy9+CsO6Vts8SuHm9IirG2HlY7ydNsRKBoCtr3QChm5FQ0L5zd/CNCeq5+hr1DdxY3/bhyBPCGArMNh0m7WRiDzyr6EVQmWaoD0f22W3MURqD8Ctr6pc6xW2ZeyRDwO6OMqNdVjKfkoUjRU5KP06XjV+dp3xRWX+q8VBLLlLwVOiqVV2Mgz+Z94ylfKILbiWxoJC70SdPmv9KDDxk/SozhS7sWH4stfNvlogEQYkaYGOXATr6Rhw8hPeRCOd4WRezl6yUP+hBc90C13wiitJE38BzNosvUoGYf4yh8/jPghH/Dnvx78bXjRkiwfylL5Ko3/pr7mV+mQNmFUBoSw9cnWAdWRNan4myNQPAT07SQ517ebdPf/jkBWEFC/oD5Y7bvty7JCq9PhCCQRUD3FVnvbmYyTjFu0/5lX9lWAFAx7mFGwZKyf3Nx2BOqJgBQodYZKG/cHH3ww3ncvP4VFOeJdHald7rztttvGa/dIR/5K021HoNkIqLPU7L/qJAePHXPMMfHKQNFEWPnLzW1HoJ0RoL6nPQw+HnzwwYGbVfRtuFzSzjWi/XhbvHhxOOigg0rbyjR4JXmm/Th2jtoFAeQW6ilXEB999NGRLcnj7cJjvfjIvLIPo3SeCJqcAs1VUcwoeYdaryrg6aQhoI5PSpHC0qA88sgj8aRyDmlC0NOMr8LIpkGiznLoGXv2x40bF8PbGVOFddsRaAUCEuw0s8Pdyz169AgIgqr7sqGP+q44raDX83QEmoFAmqKPH1utNtxwwzBlypRIjq92aUapeB71QoD6SlvPgcDIMVZRchm7Xih7Oo1CgPpKOzxq1KiwxRZbxNWxyCla7dmofPOYbuaVfQpTQuXAgQPD0KFDI864SRHLI/BOcz4QUOdHg4KhA+TBfeLEibGTHDx4cBgwYEDguryddtopDgBss802gfrKdWYo+LgTjk6V05u97uaj/ItAJfVZ9Vv86u7lRYsWlZbxW2WfOFoNoDhuOwLthgDfRdqDgkSbPmPGjMi6+gv++PfRbrWhPfn58MMPYx1mBaKVS+x7e3LuXLULApdccklcZavBVp9IW7tkM6/sQzKKPbOmLNMYNmxYfNcAwNosuYsjUD8Ekh0eApwUo08++SRcccUV4dJLLw0XXHBBGDFiRPzPgBTK/RFHHBEuu+yykvvo0aPDRRddFBYsWFA/Aj0lR6AOCFDPaVOlrKC8cG/t8uXLy87sExaF340j0M4IpCn6+LHyhRWHXP1E3+AzSu1cG9qPN84Mou5ycPCqVatK5/LAqbfv7Vfe7cYRExC0w2PGjAkHHHBAPGuIdhh90U5OtBvf3eEn88q+Rmpgjlkme9Kij5x3p8g9TlcQkGKvOHaQScv2EfCSHeNnn33WYWZHSpQO5FN6bjsCWUDAtrPQw8j43LlzOwh/duDLfgdZoN9pcAQagUAlZZ8858yZEwVL9QE2TiNo8jQdgXoiwNYt6rDqr9L2Nl5IuJ11BL799ts4aAWdXm/Ll1bmlX2RjfCpkRrtK5Wf245AoxGQAJfsEG2+HNYkZV7KPQNS1FurTPGugQIb398dgVYhQH1VJ/nrr792OI1fNEnZ51vwgVah4nY7I6B2vzObtlx9ws8//xyh4DshvBtHIOsIsHRfq1HUvrt8nfVSc/osApK15Yb8gvGl/ELkv3bmlf1kQVryJZxaN393BBqBAAKdhDqbfrJ+Kszq1as7zIraOFZAtO7+7gi0CoFKygn1WsIgYfXeKno9X0egGQh0puTLHRrU5ttviMEwuTeDTs/DEagXAi5X1wtJT6dZCNi2V5PCzco7L/lkXtm3QiVLo+fNm1fC1hZwydFfHIE6I4DQRgeo+oZNg4Kb6iej47gTlvcvv/yytBJFs/oIgITR/zqT6ck5AjUjoI6SGZ/33nuvw3VMqrfUYQa5sN04Au2MAHU87YF3TjNXPyCbtt5Xv7RzzWgP3pBh/u///i+8++67UXZR/W0P7pyLdkdA8gpXBXOGFvUZGdzr8doln3llXyRTgPvuu288CE1Kk/zcdgRahQD1UkYK0MKFC8POO+8c3n777VRB0ZUlIed2KxGgDtulm7Svs2fPDltvvXW8LlJ1vDsrUvgmFB8eqfN24AxBk/8y+JO/Om0NMODf2Soa/IjTWb+AuwxCQLnvzi75s2dw2DwRLCRcKD2bNm7gqPTLhbVuFheVgfUnLfK3ZQMewiSJm2gSHdiEIU1o4iGujUcYmyf4KP0kfUoHrIRLMi3i2HiiARtD+vJXeem/TcvSJHokwAlfuf+WdEMs4daZvWLFitCnT5/Y1osP7GbQ1hCGPdHCITB16tSw6aabhh9++CF+m3zbqsuFA8MZzh0C9CMc0Ne3b99Yb73uli/CzCv7tuC4uuycc84pcWL9So7+4gg0GQEJn8qWgyRRlFzZFyJuZx0BKVJSsubPnx8FQFaoyA8Fxtb1atrfZBji0zlbd/6jYFtlz+JFWARQ5c1/KVNSGBUePwYQRDPulm7CW0OexFHaSb/kf+LrEVaKK5s42sYDHdbdpoc7eeuxfuXeCWcVfynchCUt8cZ7Mk/4FL2E5x03HvAhLcXHT2HJs5whnjXJcPhzhkklY3kAK+IpLd5Fh00nmbf1q/e7sOzMppw32GCD8M4778SshTs86L3eNHl6jkA9EWBlCtdHcuaEvj3Z9czH03IE6o2A+qybbropcN21jLe9QmKNnQtln4aHTn/XXXcNxx9/fIfZgTWs+Jsj0BoEmOlS50gjw5I4ZnuefvrpKPDh1tnTGoo9V0fgvwigYKnDxEXvU6ZMiQLgkiVLSoq1FGzCUZ9V57uCJXGsQqe0SE8GGpLKejmlT+GTNodfkp7iWOVQCiTpSxlVXjo0U3zBL2nwfaNkKx19y8r3l19+iflZxdViRTjSZkADd9JTWviJJuWrdGXjL3yIL3rl35mtsiznDz/w1lmeygNbtEID/0UD/MIL/ztLh7yTeIkepct/8LEDGbhBnzCFF+WhclM6jbRFe2c2WwtRlCZNmhTptbQRx40jkGUE+J5fe+21WIc50ZyBUgzfpv0+s8yD0+YIXHnllWGzzTaLA1b0Fcm+xBEKIfPKvoQOCuvOO+8Mzz//fKnc0oSZUiB/cQQajAD10HaMK1euDNdff33ct9+ZkCj3BpPmyTsCVSEgxUT28uXLw6WXXhpnqOWGUicjN/2vly0FT4pdMl37nRGGbw9aUBYtfcRLdvjEJf0k7VLy1dfwnyWtmGRY0UPe+Clvues2Dv6j+Clt+VubNJSndeeddKXoIoCjVMtI2eY/aVhMFAZbaYARcTTYQJ6Kgztpqy9NrrAgHHnIKJ7+J238RZ+NRzjoka1yk5t4xZ/TlBlAkSEM4Sk7DO9SShSmUTZ5pz2U8cUXXxyWLl0aMbU82/dG0efpOgK1IvDNN9+EYcOGdfimqPOVvvVa8/X4jkCtCFBPMW+++Wa49tpr47vcak273eJnXtlXBw/wScHJO9N2q47540cNixVW4QKhGYN/2pM/jp3idkJASh6Cneqy3rFt+4sSJ6Ow+t+Znaz7yXAoS50pvHKnneddijp08b3pG7NpEobZVhniJfsJaMIdfggvHlF6OZiQJYEHHHBAmDZtWhSAxSvpkK/Ck4fwYzk3cZUXCuvo0aPDX/7yl3jQIcqpwoo24az/8FOOJ+WTzNeWB/nykAeDHDwKn8yX9AgLvSNHjgxHH310uO222yIZ8Cd+y8UjEP742fwVJyby2w95iEfFAXfcZJQH9JL3c889F0466aRw2mmnhU8//TQGU/ivv/46sNIEUy4/pVlPm3zSHvKSXKIBGfFUTzo8LUegUQhQv1V3yYNv1I0jkBcE6IfoIzTQroHgZvURecEp88q+gFSHyn8VpvzcdgRahYAEO9VJKwBDU5qg6I1Rq0rN8xUCaldRzGSoy1b4k7sVAqutu3TCfCPYyTi4SyElD/xR+HgsPYSDJhufMBj8bFhuEOBcFymK+KeZpD8Hrl144YVxWev48eM7RCV/8rL5EQBarr766vDQQw+VwqPs33HHHWGjjTYKTz31VIc44oO2wuLM/2T7IQFG+TA4YsOo3Sll/NuLFGT+grH9r7DkDY1bbLFFOOqoo+Rc1mYQQpjbAORv04Y36KOuCCdbbwgL5tiWN6X50UcfRUWf/ZePPvpoTEN4Pfzww+Fvf/tbYOVUswx5V3pEC3ueMbZ85Oe2I5BFBBhk0/er7xU3N45AXhBI1tfvv/8+L6Q3lc7MK/tqiECFmQiEKDeOQFYQUAeZVBqWLVsWSaxWUMwKP05HMRGgnqouCwGWUqsjpX5bxdy2ywpfzla62DK8ky7tOQaF0Sp+KIdSLFetWqVo0e2nn34K7C3lgQarWJEmCvrvf//7MGvWrBhPyjRhSZe8UVxJ98cffwwIBgx48C7DFT5bbrll+Mc//hHpZJkrj+WBNKTE3nvvvfE8mbvvvrtDGGjcaaedAucfwA/hyUtKoXgkX/ggTXAAd8sX8YQVYSkH6MW2yj7pqlwIz38GB2RUfuAkGnC74IILwuWXXx6DkZf4wkF1gnz0Dt3wZsNJgVde1oZWBlHgS/kqbTAlPes+d+7ccNhhh4WXX365lAfpP/bYY6Ffv35x5YVNv5Hv0Jf2kDcrDmRsHbHv8nfbEcgiAnY1VBbpc5ocgXIIqH9HL0Q2cNM5AplX9iGdjp5CZWT/vvvui4KQd6SdF6r7NBcBBGzqKMI6BkWfPft0oGmCotfh5paT51YeAat0KgSn8F9yySVRqaReoyBSx2VQ9Lpbf0kHZRSF+8QTT4xXqp5++ukBJQ/DnbnDhw8P3L5y8sknB263QLlkb/SgQYPCwIEDox/Lz1EgSe+7774rLQHfcMMNw6hRowJKOH0G6Uophg+WihN3u+22C3vttVc4+OCD43+W7aOM8z1vsskm0f3QQw+NivwxxxwT9wVCH3xLyEAp50rYffbZpyRsaLUEuO2yyy4RxxNOOCHmxQz6rbfeGgcZhCVXX5111lnRv3///oE877///pgevF1xxRVh//33D48//nhUihnQOPzww8NBBx0UPv744zgADk+4wQuK8p577hnzvu666wLnL2BQ1lGqWbIPhqRJGYPz2WefHXkSX4RHgNLggWx4f+aZZ0pL7a+55pq4KoD0WHrP3knVE5R8eCUfBj3I549//GMJR/E/Y8aMcMopp4Qdd9wxHHHEEeH888+Pt5lMmDChpOwTFtop/0MOOSSeJWEHRJRWvW34TXt0tgXfC4btHDLEc+MIZBkB2nG2xpx55pmx7dPgIG2FBveyTL/TVmwE1Ne++OKLcZWaJoPt4HixEVrDfS6UfchFcNpvv/1KV+81o6NfA5O/OQLlEdDsljpJhOIvvvgiKgsffPBBqqDowmB5TN21eQhIiUMJtobZ6N69e0dFW2Foc3m6IgimKUr4ofxymjmz4ihKHHSGssh/TtfFn9nuxYsXR4Xwr3/9a5g+fXoYN25cQKlH2ZTAeuqpp0YFnvRQeFEyUcJfeeWV0goFBou5U3qPPfYI99xzTzjvvPPCzjvvHGl46aWXYt4sE99qq62i21VXXRX+/ve/x9s1/vCHP5QgAgNmxV999dXQq1evcNlll0Vs1B4QkAEGZqJZyo+iyyFYKOg9evQoLZtnwAM+UfJRwqEVZZc4hAdvFHmW2jMgQj/4/vvvx8OI4JMtAhhwE5YMMDzyyCNRIedauLfeeiuGgV6U6c033zwOsoDlgAEDIp8I+xhLP/9V9nrHn7IAN/InfXBnnz2DJ1w5qlUVbG0AG3BjgIJl+YTp2bNnPA+BNLmeFHp22223AD0Mwmy88cYxDDP7qpeiA35JE+EuC4aVIdRDeNZACWWkAY8s0Og0OAJpCDDYyLesgSoNjKbFcT9HICsI0N7SR9O3YJJ9WFbobDUdmVf2NXIDUAgmzLDIeKMkJNxuFQJS2CWMQgd3lCOQvv76667st6pgPN8uIWDrLxFRENdff/14o4SWf2OrvlebeCVlH0GTK1VR7GbPnh2GDBkSFTm+IRRlKbOkg5I/duzY8OCDD4YxY8ZEhRglVYoV/QFLvXfYYYeSgouyzBJ8aEeYJX36Ee3phw9mn1HuuSoTw6wASutFF10U/5M3J/0yKMBMrpQ6PKGFVQD2lhjcwZOZaJR0thXoYDn8WPVD+4Ciy6w9gyoo9DKsVmCWfPvtt4/L3+EBulGGMaS9YMGCiBuz/dADfxwIiKKvJbkMJDCjjiCE0swgAYo1s/nCjMEFBiLOOOOM0sok8qDfZcWHLT+EKAY5SIstDmx1YM+/DGXIXvs///nPkQb4PvLII0urKgjHmQoIZUOHDo3RWBXBf/bqyzAgwwDI5MmTI1+qf/DNygHwpsyyYFhxgqJEPdY3BLbg5MYRyAMCUvZZiUO9VT3OA+1OY7ERoH+izo4YMSL22erXXOFfu15kXtkXyQgfLFFkdsMKW/J32xFoJQI0OmpoEKr33nvvKJhaYbnceytp9rwdARCgXiaX8s+cOTMq0ygzUrZUv7uCWrk6b93YZ8eydRRVTsFHcWLpPgIo3xDL8zEoyCiyKMYsUWefObPfKMUYde7MtKPssxUgaZh9ZRk4s/UYBgegBaOr9hAceCdtZsdZsYPwy6AD6WpvOfHABSEDpZfVPNZoRprl7dCOQfnGQAcDKaTJaf2sQJAR3Sj/8MoACHmx3QGe6fugh9kM/FmNoCWLKP7MkGNUnszkMzBC2bFaAmV83rx5MQxpYOhT2UagwfOkoqpyt0oAijirEXRYnvBHiT/uuOMCq5pYlq9BDBQJGWb6GQQAD+iV4s/qBPJmKSbu3F2PUX8PpuAM3hyiqLJTuq2woYfBClbCQI/KAlqSOLaCPs/TEaiEAIOorLahrdW3Rt1Ve1Apvvs7Aq1GgG1/9Bk6+0f9X6vpylL+mVf2EUjUaTL6L+EPAUTuWQLUaSkeAtRFHgnDdJgo/LghAKY9xUPLOc4SAlL4RBOzyDIo/NoDRx22fgpTyU6r+0qTw+FQwo899tj4sF2LJemcqo/AyXfE3nr2aoseZukPPPDAuIQcGkgL5Zvl3XT6uvecTl9bbFBAuVJPM+SWdmbKpaiRJwqcPY1fh/CxSgAjLFD2GQRYuHBh3IcPrRjhSjoophi1Dyj56667btyDz8w+8ckfI6WZgQ9WG3z++eeRf3hnqbwMKwyYpWdFgdLlfAK2J0ADijHtEGcFsBoCg82KBVYUyBCWvf4sy6c/5WFlAUa0iCfcwBkDzsywoyjIIGhRJgxMcMghgwFaHaEwYMuKDQ1wMGDBYI81DHBA52uvvRadxR+YM0CAH9smsmIYYFIdU7lDs9yyQqfT4QiUQ4Dv/Nlnn41eTKrRBujbLxfe3RyBrCCg9pZzst55551IFnKABq2yQmcW6Mi8sm9HFyV0aKZJQkAWgHQaiomARhAlBFsU8MM97bHh/d0RaBUCalPJX4os72pjEQBtB8r/akxa3dc3w3YXlF+UXi0rZ4afPd4YviMUeGb8iUPHjjLM7DuH9mkAGD8OtkMJZZYbw3YAZq01S8xKAOKxDB0eGDxgjzzLxskb88Ybb8Tl95wLIP4ZIGBlmVWUye/OO++M+bHtwWJIOhwsyCw0y//Zj88qBgYBWaHAEn32e6M0s6Sf2XVmyaGJg+m23XbbOMChGXGW2bOigcEGTn/X9YAcwCfDwANK9IcffhidGPDgQDwGTTAcIgc2KOQc7Idh1QG0oPBDrzUMGMCj5Ut4PPnkk3F1AisXUM4ZlIAHyu3222+P2wCYvYc3ze6j/HJwIm4jR46MWbHfnz3vt9xySxxkoLzYt086bKuwZUsE/BkgYPsAtLXaSCaBDhQki1WrafP8HYGuIqB2HTsL31dX6ffwxUKA/ihZTyW/qC4XC5HOuc28si/SUfpViFpKKT+3HYFWISBhT0IwdVTv1FkaorSnVXR7vo6ARQBFXp0mdTo5iEWd1tJ04qne2zTKvafVfeWH8opCzN5xlkWztB2FTsvNCcfefBRVBgVQBFGimdnmncP4tJycGW+UYg6O40Gx50C+u+66K5LH7D6rBFAw8VtnnXXiElYUeRR/ZrY4F4Z0ic+sLaf0ExY39pijKIMXmLDdgCWwKKsYZrd54AkFnTjkhQ29KLrwxiy8DHvccSMMPBKGvfbkiwFrVhaQD2EYmNABgsRjKT/pERd/lskzs3788cfH/+utt14cBEEZZUAAvgiHDU34s60AejUbrb4WHjXLx7vKjEEKZtihA1qhg7RYnaH+ec6cOfGARPLi0D3RxyAAhjwoNzAlDHz36dMn2vynjHW4YIwQQjxUkbwmTpxYokt+rbCpLzLUH+EjN7cdgawjoG/dDuZCs777rNPv9BUbAdpg6rDaXtXbamWUoqCXeWWfgtOyQoQojdYgjKpQi1JYzmf2EEAApk6qwxSFOgCMBijtUXi3HYFWIKCl68rbrqRiiRwP9Zd6bjtP+6645ey0uo8f3w6zocz+siSdNp2ZaWbmeVc+zIqz1BSlGpuzBDj07p///Gc83I+BCA1GcKc7SjrnADADzZJ/vk/1F/DIrDFpMTPPAIAMfQx0cL0ce/aZfefh4L8HHnggKtYKi42yyiAFe+PVN8mflQLE48A89rjfcMMNMT/dyy7s4Z/rAVmtwIw3NOsMAAQZaMLQpjCTz6oEeGeVAQcEkg74cLvAQw89FFcmEJ7VDGwZ4LHL7dmeQV7s5SdNtseRJwfsyYgXbCn5KgvCaLsE7+xXB2utKMBNg0VgD9bkB+3QodlvwpAmAzTQyM0K8AZe4MEKAbWj0AEObO8Ab842oP5kwTCoYQ10wZuWmFo/f3cEsoYA35YO9eSdwTr7rWeNXqfHERACGpzmv64/ZdDV668QWmNnXtmHVIQ4BA5mKph9kLCwhg1/cwSygQCCHh0ns4fsOeV/2pMNqp2KIiMgxUz1FCyYUWXmlmXk+NP+WlNtZ6o0O7MRLmXsu9p43OyME30B9Ihm4oo22/HjThjyTdKKu3XT4Xwa6JAtuuSv/6SpgQXcUNCZbWc7AoZBBetPeIx44l2H9WkAAjeFi4F/O0DQYiKlPxlWA41KX+mAmx0wgWeFIQ1wI32FFy3i32IsmrBJh0EWZvSlJNgyIozNV3QLc9JNhocHlSPhNBCifAmP4s9Wj3PPPVfOLbcRMPv27RtQ+CnzZB1sOYFOgCNQAQFWJ3G2CIOQ+gaJYtuwCkm4tyPQEgToK+hrbrzxxjgIrD7L9pstISyDmWZe2ZdQQMPD8kyd3AuWEnIyiKuTVDAErBDNMl+WDkv4LxgUzm7OELACnpQVrkhjmTcHx6lu06nSmdrwWWcVRbaWpxJ/9EvM/KOAchid8KsULy/+WqZuhSdm6rkusUePHvFsAbYNsJWAekLdkMClelMLr7aucT4DBw5qZQTpVirbWvKuJi4rDNhyYM9yqCaeh3EEmoUA35C+43J5crAZdZhBPr5zwtvvnTh8y/X4nsvln+ZWzfetQUTSIbzaH/2vlEYlf5s+aWrFWxrdzfKrRHslOmqNXyn9RvtrkJhVemwjw1D+9MvJcms0LVlPP/PKvgCkoeGUZg70ceMIZAkBGhw6RzUuLMHl2intuc0SrU6LI2ARQAjUUn3cpVwx28M+dU6Z16AqfggHGNk2rSy+VxJmKvlXy9O7774bl57b8EmB2frl7Z06ICGaZfdsUWDfPFsq2DLBgIeM6lC96ohWHCxevDhuuaCdleJRr/IT7V212TLCGQJsjcDoWxHNXU3PwzsC9URAq3RIk++XFTN8n/pGGZxkoAp5hdVGtt6iMOn8DeLz3Vn/etLZWVqVvm/8WbatSUGbDvRXE79SGNK08p3y0Leu/62wq6E9ja5a46el3Sw/+gJuteH8GDedI5B5ZZ8GimWAfLiM7LPvEQGVj7vZDU/nMLpPkRGQ4KlZPU6m5kTp5OFSRcbIec8PAggAKC/sQ+c09HJCjYTFrHNVSZip5F+JPw3wWTwkYFu3Sulk3R9eLD/gJsNgkQY2aAttOIWpxdY2AJsG8gB51lp+Ns3uvDOzP2TIkLiMH5lE2w/KfTPdSd/jOAL1QuDaa68Nu+++ezwQk9s+dOMHq3SY2WfrITeFYHNgKttTuKqU8zmQte03D03lvst60ap0qvm++dZ4aHtoFzQoSRqV4lfy53tWm5ZMOwv6RyX6hWNndq3xO0u3We6UCe0u5+lw0w51kv4H97TVLM2iL0v5ZF7Zt2BxGJIO67Pu/u4ItAoBNTY0MFL6oUWHhbSKLs/XEagGAdVZOkwprsRDCODqNhRXCQRKj/9ZEHRET5ot2rtrp6WNH/jYbx8MdTAbeebdUD+SfIhfbAx1B2Gb/7Ye2fpUCw6kQztLnVOepJcFZR86UPhlVPYImlbpkL/bjkAzEdA3yDd83HHHhW222SYMHz48DBs2LNoXXHBBuPLKK+M7NleMXnrppdHGj1s0OMhTirMtvBEAACAASURBVFOyLWg0L+SX9lTKPy1uNX7J9IlDW0R7x3urTSUeKtFXa/xK6TfLn/qpa1qblWfe8sm8sk/nTqfJxyWj0XP9d9sRaDUCUpqgQ4pQFjqDVuPi+ecDAatEsUJFM7WinroswRE7L4pMJWGmkr/4r2SDib53Yan/leLmyd/yqTZP/MIH/qo78q+FPynPpEG7SvoylcquGfjb7wAZxf4XnW47Aq1CQN8I+aPsc+0lyqq+I/ylyGtlomjl+x0wYEB44oknSoNsfOvN+K5Eg+jvzJbizbcnuYu4tEHQ31m8rrrDtzATbVmwK/FRicZa41dKvxn+lL3ta7SyDt7crEEgF8o+5NqCy+JHtwZSfysSAnQ2GK04oeGRW5FwcF7ziYDaVSso2XcpbnCHIsN/BB/buWaZ80rCTCX/SrxJuQMTYZUnfCrxJ394gtdkuav+KFy9+2YJbqSvvKBF77WWn+jurm3LnXYffESzlKjupu3xHIF6IsBBmlxdKaNvWW2Y6ivtGHIMA20s9R87dmxpQIC4+BNH8ZReI+xK3zd0WgNt9F+4814pfiV/YUQehGXlEulmxVSivxKdtcavlH6j/aE/aVSPk+5F/595Zd8WJocBJe+0LXoBOv+tRUD103YKCH3cW92MPW2t5d5zbxcEkkoadZfr1ewBTQh3WRJ0qsG+kjBTyb9SHuDE9w5+pNVuir4duLR1hHpAmyc3/hM2KXxXwq+SP3givJMP6QtfzULWWn6V8q/G/5577int1Se8vhHZ1aThYRyBRiDA9yHDGSycJSTDt8r3lDR2sJfrNf/xj3+UtiYlwzb6f7XfN3yUU/Iqxa/kD3+0O3a1G7g1Y6CjGmyroT8tnVrjp6XdDD+1sZyTNWHChJgldUHuzaAhL3nkQtmn4GiABg0aFA9hAFy7vC8vYDud7YcAQiiNCyO+2Aj/8+bNi/dBc1q1G0cg6wjQ4ScNJ6xvsskmYcmSJSWB0AqByfBZ/V9JmKnkXw1fdqDPKrvlcK0mvSyF0Sx1kqakMMV/hGLLc70FYost7S2mHuWX5K0r/7/99tvQs2fPMGnSpJJMAg7UCYtFV9L0sI5AvRDQYBzpoeij8COnyOidE+31TcuN0/mZ2UfZV9uvMIrfaLua7/vDDz+Mh3f/6U9/ireDVDsQWClt/Ll69rLLLgt//OMfO9yulBX9oxIPlcqn1viV0m+0P/TTL1x44YXxPAqVPfk2u642mtda08+8sq/GCnufffYJp59+euSZgqSg3TgCrURA9VPL+KFl7ty5UQCcPn16K0nzvB2BighoNoQOE4FO/z/66KN4QjMj5lJmEQK9za0IqQdoIwQqCcN8L5xkPmPGjMi1vhX+1Huwo41gdVa6gAAyhq1XyL601bTH5epYZ7Ixyr6d2YcE257bd9KgbjOzf+edd0Zq5U++lp4usNKtoAzs2YE+DaYpMfooDhzkO7z66qvlHG0p5fAjA54avLDKofzJCx6Jw+GbZ599dpTnHn/88RgEekhDsp/iYUMbBnzAS/kQVrTgb91jhN9+CCNalZb8+Y+fLXOFJYx9t3E540z5EQ7aNIgLXfxXmqTBf0ur8s+yPWLEiLDeeuuVSFRdLTn4S8i8sq8yYuSRw0XOO++8kkAqP7cdgVYjQAegxva9994LAwcOjPdPt5ouz98RSEMgKbDwn46fmf3NNtssMHOpeo2fOlHZaWm7nyOQdwSo52kPt65wwvnkyZPjd8K3ou8l77w7/dlAAMXTttPUL9w6M1LGk210XpV98Um/hCIqI6UbPFDQUcpvuumm2H9ZZXX58uVh0aJFgdu8rNKrdJiowY8wmrQhHPmRLoMeJ554Yhg1alQH3QOcpSTzTp7kxfPFF1/EuNCmAXTy+/HHH2Neyvunn36KfawNY8sNOtTvql1BeScdFHa5sQLvm2++KW11In0UfvjCgBtb8uy2PPBTvtAxf/788P3334u0uFq19CfDL/B28803B66QhCcwEy4ZJrvppGVe2bcf98svv1waQQcpL9Cm1xfPsAoE6DCee+652IhXEdyDOAItR4B21randPpPPfVU3Kso4tQWE84Kn/J32xFoNwTSFH382Lb14IMPxu0u4p3vI00ZUzi3HYFqEKA+WQXQvpeLr3Y66ZdHZV/KNLygmKqPYtXk+eefH/bee+94ywDXBu6+++7xCkHx/dlnn4UzzzwzHHDAAYHDCZksvO6660pyGUrhxx9/HK8ZBJvBgwfHh/crrriitJqAvo74d999d1i9enUMv+eee8YtxeSBQdEeOXJkzGu//fYLhx56aLjooovCp59+KnLCrbfeGmnlesNnnnkm5kE6e+21V/j73/9eUsRV3tCnsuadh7J97LHHwllnnRVpYlCeKxKPP/740K9fv3iN4rJly+KgByuhp02bFuPccMMNYejQoXG5O4METJ7eeOONcVsHAxnHHHNMxPKQQw6Jty+UiM7BC3hRH1588cUO1Aq7Do4F/pN5ZV+ja5QRI1r2P5XfjSPQSgToCBDsaHCwaWBwo57apVStpNHzdgQ6Q4D6igBhO0bemQGgvZXSQv2WEEn99ra3M0TdvZ0Q4FtIe2jjEZ7tcmDJKPp22gkP56X1CNi2mvqXbL9FIbOc1uRR2dc3BM/0QZjZs2cHlNKtttoqbutla+8uu+wS1llnndIyfiZcDjrooBjm8ssvD08//XRU0nfYYYeopGuWm3iszEHhvf7668Mpp5wStwP06dMnDi6ALQo+yv69994bxo8fH3r16hV23HHHcMstt8Q+Ev8zzjgj0nDJJZdExRNFmjRQwjVbzmQlgxJsNyANFP2//OUv4aSTTupwCKJ4tv0s7zKcD/K3v/0tbLzxxnF7Aekw0AAmbGOg/YE2ztzReQuPPvpoOPbYYyMenHEA/ww4sHpvo402Cuecc0649tprI18MejAYIDqUb5ZtrdqgLRZW9jvJMu3Noi3zyj4Fl2y0VIj6+JsFlufjCCQRoDNA8VHD7HUyiZD/zzICUuLVpkIrnbw6THX4Coe/6nqW+XLaHIF6IMB3kfaUy4NvxX4v5cK4myNQDQK2Xbbvybi0ySi4VlZG6bMmj8q+6Ld79q+55pqw/fbbx5l2vjN4ZhUabsOHD48z8vxHkdV5A6TDMntm+lHuZ86cGThAGaWblTkoiRgUdw7jGzJkSNyvLzxZFcD5Bf379w9//vOf4wCL+sipU6eG7bbbLs6Mv/DCC1EeZMXAySefHBX7N954I6ZN/hz4hxJOWbBtAIOiagcLxWvagDpnCey2225xgIHVBdQNBudXrFgR3xlgYFk7KwaUzksvvRTp5DweDHEYjGDGn7gYBjwYAFm8eHFpi0L0yPgP9QCjdhfe5JZx0ptGXuaVfRUgNnth7F6cpqHkGTkCXUSAPVtuHIG8IIDgwqPZe+hm9N8KIfKjE5Wgkxf+nE5HoDsIIDSmPaTJAWFuHIFGIEDdk9HAK/9xRxFFeZRyiDvvnSk5eVT2xbNs5H/4QOnG2H6I5fPMnGPYX8+yfnQGDHvcMZytwaAAM/0sf+/du3dU8PHT/nXspUuXxvBgyaDJ/vvvHzbYYIM4C37xxRdHP/088sgjoUePHvEGJhRwZspZdbD11lvHByUbQ/+JMs7MOYMCMuKN//bdliXlDS1S3KGJPBjUwMhdacID/HMtKP04hiX/0KfzBMCSVQWcc6B8WQrP1oi8yK+SSRis0fkEwsDWDbkV2c6Fsk8BUTE5nI+RKvsRFLnwnPfsIECjQ2PMsjpGbGlEWW7mxhHIEwJ0kAgK1F2EJz+gL0+l57TWG4E0RR8/lAn256J0oXxJ6JbwXG96PL1iIkB9ssoL8sYPP/wQl5ezD50bgGydK6fw51HZR57iO5Ph/2mnnRZnqBcuXFjChAPm9t1336jkE3bMmDFRGdYtGfou77///jjjj+J7++23x5n9N998MyaviUT2vM+aNUtZxllv5DlO/OcaPg5fBnOZ1157LabJXnwO7IQuZEBm/Jnh16F/hKc/ZQuA0re8Uab2P+GJqwEH/qtcmYnfYost4p58KfP4Kz6z/Sj77NVXnNtuuy307ds3cIA0hvwOP/zwcNddd5XaLVY80O9/8sknMUwefuCPwRtWKaAbapVGHmhvJo2ZV/apkBjsQYMGxQ+d/xSwKnEzAfO8HAGLgBpX1VP8OJSFUV06ATeOQJYRoP7yqINUfX7//ffjbIVfvZfl0nPaGo2Avo/ObGbq2INrB3bpC+yKmEbT6Om3PwIo+lbGYGYXxZGl6swqs4z8qquuKi0NBxE7OMD/PCr70K0+SaXMQXfMyJ966qlR1kKx5sA6vkMO7WPQjf4LbBiIY0k6CjGz6QceeGCcgScMCu2GG24Yl+zPmTMnfrPM/DPzzlJ2FEdw5vA99v9zMB60HHfccXGQgP8o3QwOcDgeBwEyuICCzizzAw88EFcE6ApmBgbfeeedOAjB0n4GBqAdWihbDTbAJ3nb8uM/eWOTDifnb7nllpEmBjpIC1oZ1GDQh3Ac/AdN0AIevG+66aZBgxu4gw/bIuADGjhYmgEBBi/zYhgAYiUHKyowrheWL7nMK/tUYAyVmOUljOphqJi28YuO/uMItAgBGlcaa2ZFGc1l1JWR3c6ERLk3mlwa/loe0dmZ3Wj6G51+LdhUE7cz3Kp1p8NPeyqlo0HRzmwEDWvgCcNM0frrrx+FCHWesm34ztKVuw3bivdK+NTqLz47syul32hMKtXRRuff7umjCHAwGMK0lUco9yyYSuVfqX5Wil+Jx0rxK+XfaP9K9GfRX3ULZY195Ci5PCwzR+nkGjL2dMsQHvnkiCOOiIqq3GmzlBZu9h0/ZBnS1753+VOmtq4rvWbZKNMs16d/gmfuVx8wYEAc8Fh33XUDd66j3DN7z5J99uWDD+E4xE7XZILJww8/HJV//Hv27BnTY6n7hAkTIo/z5s2L/sR94oknomLOvnYUS+Kg+KN8v/XWW3HGnsEDBhlkc8o9/ij16C/EgUbiE2bbbbcN2tNv8QPjcgbZ8qijjorp0O6QHulsvvnm4fHHH49RiMtgI4MNHOJHGGhC+YePgw8+OM7uc/YAftDy5JNPhldeeSXKrbgxeJSHpfzUU5R96jzljKFc3ayNQOaVfVV6BF5OzOS0SzeOQFYQ4EAXOkHNjELX119/HUeH6Ry4/zTtYUS2lodR67Tnu+++C7U8dFRpD6PatTzsjavlYXYj7Vm1alVo5cNBObU81K+0h72IaQ+n6qY9CE666xcBiRF+hLzXX389rk7h5F7S54oxcOQdelhCSjzipD2kn/aQRi1PGm/4MQDXyAdBI+1B6Ep7aDca+aQNFOHHIHrao0H1Rtm0na18kC/Snkr9DG0v+3kRwvluJK9UiletfyVsqk2ns3CVyrWzeHJPw67eWCjPZtqdDeI1y51vkzKiDQNPfatgwKoS9m2jnKH0cvAb7zworBxWR99I+4Q54YQT4iw29VQKEfVLxr5nRdkXTbRVohl66VPpo1i+zSn3rKZkwA2Flb4JQ/vPknX2zDMLT1jCgKE1rMp59tlnw/PPPx9ntu0SdjBHGcdPq3WQ75gBJz0GxWV06B9psYqAvpM+EwPtDAhAH4MQhGF/PEo2fS6GcpahjOCZPCl7ykNhoJe9+vA/ZcqUmB4n69OPWkOfDe3wzwAHs/Xkq5UGH3zwQdwGwIAHdJIfs/7Qx+GFytOmmcV38Lnvvvti3YYH0a26k0WaW0FT5pV9QFEllkJFIerDawVonqcj0BkCdDAYRnIZSWcUN+1hVLaWh04+7aklbeIy2p32MHJcy8NyvFoeRqxreXSITqNshLFaHk4OTnu4SijtYWYj7WEEf+edd44n92KTFjYzJaxOgXb+M8ODHzZ7DnlnqSN+aQ/h0x7yqeVhX2Lag9DbyIdrj9IeFMFWPixbTXtYxtnKhyutGvlwinbaw8xc2oOClPawfJj6z0QE13ZxsjWncDOjxwxcWtxq/Egv7WGlYy0PV4alPVxrlvYwO5j2cKVX2nPuueeGVj7sw0572KPdyOfSSy8NaQ95c3XchRdeGJV37n9nuT57scGVvg/lnlluzfQib+DGTCdtNcu0mXCgvlHXpQwhp1iFyL4TBoWTtjsrM/sow5ZG6E8q7lH4SvwQzw4UiG8Ngii4xQU3Vr2hPFpjlUm5J2lCN7GKO+HQXZQWtlYsKw3ytm7leLVhk7SKPwYnJIMqfNIWbUqDwXhLG+HhPQ+DdSpDeNHACvW2mnqRxKXd/+dC2VfB6aNSZW33wnH+so8ADSWNojoBDUhBOSOwjO6mPe+++26o5SGPtGfatGlx9LZRNqPLtTyMytfyMGqd9jAin/Ywst7Ih9UdtTzMSKQ9Dz30UEh7uBs47eHAorFjx8ZrjDi5l3t5GSW/++67I93jxo2LbtgIfYTB5nAjlglyuE/ac8cdd4S0Z/To0aGWhwNb0x6WXDby4T7ltIfZtVY+nByd9nCoVCufs88+OzTySVNU8WPfb9qDEp/2cHAXyjJhuMeaQ6J4R0HHLy1uNX7aZ92ZzYByLc9hhx0W0p5KA0GVBrI4NC3LT9pAHX6NHCgk7UoDnRooZXCVE+j5jw1tDMRKwWdgXrP6KP56x2YwiJUn1E8UfhkUJMnUuNl3/LKg7KPE8iBfiT5sdACUYympzO5CLwZ9gVltGeJbxRV/lETcSIO4UpaJw7vSlkKMu/JUurIJjx9h7Tvpkhc2+eFPnryLbtIQPzYvpW1taOIhL+Jjkx98W/5EJ+kpnOIoPf5jiC9DeOlacsuLLbrBUjiqvuSFh0bTmQtlX4XGiFXyQ2k0QJ6+I5CGgBoWhaGu2lUnNLZpj+J11ya/tKe76TYrHvjV8qRhi1+rTVrZVOPXDP6SdRjMEFCgzxoJFNjqXCuVXaPpr5S/pb8V79WUcSPDtILnruRZqfxq9e8KLd0JK6EZIZxvgv/6TrqTXr3jQEvaA71pT6W6WSu9ldJvtH8l+mutf5XiV9s+qi8THtDNlioGC6xir3dW43HQHAPNnMxOfFa4sGdddZY0SE/GvkN3FpR90Qj9lj77LvqtLbyEv8LzX4q8DW+/WWa1CWON9ceddNBFlC5uUugVjzBphnxoM2zavIt24vJOmCT/8sOWv83PpiEacLNh5N4OtrZuWCzbga968pB5ZZ/C4yPCsC+H/cdU2HKVuZ7AeFqOQLUI2LpI3aQDYD8US/krGcLW8pBf2lMp/1r94b2Wp9b8a42fhl09/Gi/ankq8ZcmqFfjh6BgDTxTnsyMfPTRRx3OolBHqjA2Xnffa8FG9HQ373rEq/Tt1iOPRqZRif56fANpaTSSt2alzb5Zu6ILfjFgW6tJw075pOVRqW1Oi1uNX6Xvt1Ialepfo/1p/9KeSvQ32p8yBgPNwEIr8jBtO4fwcTAby/ZR7jmVnxl+bq1iNRWrDq1huwzKvq2Xnb2Tb1aUfcuD6pvcLP242W8CzIQbfipn6674pGvDEp7/0j34z7dEGopDGSg/bBuW8DKEVxy5YeOm+NY9+U6+lQy0kD/p8djBCuWNu+XRrn6Af9LAMNCP0f/4J6M/4pNvQdcZwif8uOmIQOaVfVV0Kh5LxlhyJ6NKrP9uOwLNRkCNCo0OjQyGZe2ccMphMLilPc2mt6v5pdEufruaZjPDq4PvzKYNaeTTTF67mxf8c0iQbU85qIf9oJw2rk4fQYF36jx4YleqH5Ww7S7N1carlH+t/pXoqIRPpfi1+lfir9b0sx6f+pr21KoMc7gqJ6Bz5Rb5IHCDeV5MpfrRWbsp91rrd6X8G+2fl3KydII5uNA2U/c0m8/yfrZXSaGT7ExcwjOzz3YQDOXHCkTcZew7eWRB2YcGvqvODHTKwK94l5vlSW7YiofcJhlOtsLxLYOTNckw8lN6/IcOaCZvZu+TxuYpP+KXo5X8pNASFnpsOPFr3ZK0EM/WBeWpuMJX8SQLyF3hs2ozOMFWPbbFuOkcgcwr+6qAVHiujpCyX67yds6m+zgCjUNAI7rqbDgplsPNdJ9pWs400rU8aWnXw68W2poRtx48ZjkN2r+0hzqX9lTLm9pZhWdlCkIkp42nmUplnBYXvzTeqvFDIEl7KuXfaP9KPDQ6f0+/sQhweDDfiZ1VamyOHVOvVL9q/T475lb/f5Xoa7R/JY5anb8UQ6t48Y7Sx8pB9u1zCB/npuhUd3iySql40JkSlmf8ZOw79SoLyr5ow7Y88Z/BCimsNpzC2vCEk84Ab5LZCGv5xj2poFMGyW1tlIHSJ47SsOUEfcqTfEiDvDHqs+OfxCw6fnZ2XXGUhvIiX4XjXeEsDUqflUeiV/GtH+/JeHaQQWGzZsM3hnN7WN2CoazzQHsktok/mVf2NbJGQ8apyxxqo0qpyttEvDwrR6ADAqqLLIlSfeS6F06YnzRpUkVFvkNi/scRaDIC6hRVd8keYYDVKSgxn3/+eYf2NikoVCK3XHjcbH7KE1vtPUKMOnJ9YxJmiK8Th5U+8ZQm8djPSjyuBcQkwytN4tsl2HZpY4wYQhQcJFSW81c48reCIv+Fr4Q7bPEo2pW20pGNv8LaMAjhGNLnsX4KTxj4AgeM4vAOPoRT/hIEhS+2PXdEWJGPhMuY6G/lpXi4wR/hLA7W3yokyfIVtnInPaWjfPWffDDJpcrKS/7wmPbERGr4YTCMu6u5qkp5in79ryF5j1pwBPi+k4Z6xTdL3edw2oULF5YUvWRY+1+HPFo3tQG42Xe+o6wp+5Zufy8GAuo/4ZZ2Vd9Dsm0dMWJE6NOnTwkU+atvpA9T30gg3G19L0Vs45fMK/u2QDhVmnsq3TgCWUHACsKiiU74uuuui/fTU3/THsVx2xFoJQLqFEUDB96MHDky3tNsFSi1x7IVPs22iiXx+K80k4ohyhwdvJQ70qWDp6PXt6a8lIYUQMWBdq4+Y/8qV1ZZY9OAFoRm8SJBAgV53rx5MZrCW2UZD8IqHv/xl4DBfytY8F/p8C66Ca84pAcW8C5+CItReCv4kL5NkzZHii97yFney1Yi3jFSQKHZ0m3fbV7QBU9JPghDvtwwwjJiDLSDveiMjgYDKSZJd/6j/OveZ/nLJm/oIz/VT5WRpQta7eAE8RVH/HZmK6/u2uTNdWis5pIBhySu8nPbEegKAqrvNg5ufM98nwxi2rpG3cMf27YPxHdl36Lo73lAwNZt9QHQTR1X/8D7W2+9Fa+kJAzfBPWfx8ax/BKnaCbzyj4Foo6dJXMSjmwlKFqhOb/ZQYB6SIOixoNOGLeVK1fGzpb3tCc7nDglRUZA7SoYSFBEebRKlIRH/G34SrihpOr7KBdPnbYUUqWH0svMvO2w+ZbUH+BPHNGltInD6hoOpOLOc/KGF8IRB8WUdKyRoozbzTffHIYMGRJ5l5JPHGaeeZQPfNmZauJCG8IGYaBbYZUfcTSDDT3iTTZp8E444UGapANf4lUrFuCHsNYsX748Xo/ItjeW98K/2iDFt+F5Jy/aLMq2nIEGHTgKfTfddFO8xks0Kg6KvWjDTSsLeIcO0lceYPrss8+GXXfdNR4GSRj8SF/1RfGwMVqhIX/4gTfRsXr16t9C/tcS353ZHQJ384/ud7ZlCG9uHIFaEeB7oO5agxv1Xu2g/PRd6X8yniv7QsbtvCCQrNPl6KZvJBx9oTXUf/oj+grC0E/yzdBXJL8dG69d33Oh7KsjVyEkhRu5u+0ItAIB6iONCY0L77aBwi3taQW9nqcjIASoq7a+4q7OUe/Y/5+98/CZolr/uBpLVBQFFfu1d1Hs2COgiIIFLKCoiBWvvbeo115iV6LXFr2Cxh4UjFhiiy22XNSAGkss0au5/v6C88vncL/L8867O7vvvju7M7PPSWbP7KnP+Z76PW1wI6JIWe9LZ2nbb/xKcYPuvHnzYoeM2VdffRW++OKL+MUVuUGHhPJAIiGPkCsRZuuOuoedyBfft+cb4siqeCHnXJzJd6dZUbYkn7Bwd8QRR8QjYyL6Fh+Fg1vOac+aNSt+2urbb7+tiGIHHQqDNiCpOCIh8spXZtgSTjjCGfcikAsWLIhf+EBuke5keKSNz2yhwImbt7mwyyorP7gwGELZOFmxnzlzZnjhhRdieOxysPkNkT3xxBPjt77lz6ZZ+U3+vvvuu3GXBCsvwkh+iPe2226L95uwU0BK/TuYkT+kiXd2bIAZE1DIgEyKizLLJMezzz4b3VCuwDOt7a2WJ5KhUd2GAQaahFC+NxqOu3MEqiGg9lm6Lc+4x1zttW2nqoXlZL8aKm6WZwRoU+mzKOP0G7yj86itTcpv+4RqdQKzNP/J8MryP/dkn0yRYmCkjMSsVmbLveuOQDsQoAO25ZQBula3bOdc7b0d8nkcjkAjCFgiSNsKoVIbqw6ScHBnyV9a2LgTecOdwoOQ33zzzWHttdcO06ZNi/Xl+uuvD3vssUe8dOr++++PwY4dOzbesrvnnntG8jpkyJCw4oorxi+zzJ49O4ZHvWIb9ciRI+MXBDbccMPoh6+3MMCVevnll8MOO+wQ1lxzzTBs2LD42arRo0dHQoobCOnJJ58c8M9nrCZNmhSOP/74MG7cuEh8JTuTEsccc0zYeuutAzdgr7vuunF1+sYbb1RUURdR5w/vPOCIzkQD988gy/Dhw8O2224b38GDOO228HPPPTeQ7vXWWy/KxtlE3Nh2B+ywX3XVVaObbbbZJuq33HJLlAW3VkkOa8Y7n+zaYostIr58pxssuPhI+cGOicMPPzyej0SmyZMnhwkTJoSJEyfG3RQKD/K+8847h4EDB0a5OFZAXmqln3PGp59+etx9wd0QU6ZMCUcffXTEnNV+yt7cuXNj+WCXBf74v++++0aciE9p+vjjj2O+chvz5ptvHp/VV1897LjjjpmTfdJLWVZ9AFeU8lp4uO4INIsA5ZxyRfujMq+waItV5mRWy62T/jm76AAAIABJREFUfSHkepEQoNyrnCfLv8YWmDMZLEV7jB/G5bTF6rtlj17NzNqX7T33ZN9mJmf277333gqxUgdbtkzx9BQPATu4gwxwOyifZaIRSnuKl1KXuEwIJAeKShurolx604pt/AqTuBQfHTHkGnI7fvz4WEdYtWV7OBeeMRGAmj9/fiTSK6ywQiTu2CMXhJQvXrDiz4ou35aGOGN3ww03RPK8zDLLxAkA6iYKUsbEAp/pIe677747nuu//fbboz2TAVOnTo0TBZz3P+CAAyL5hNw+//zzFUJHHMSNOfKx8g0hhfzed999MSyt7NpJwGjxvx9wJY0Q3fXXXz/uJjjnnHOivGACicbvFVdcESceILl8IQGMILpghBsUhJ7z+RDdW2+9NWIIUSfsu+66K7phkhzMpZQP/NcuCSYo8cfDTgPMmehgcoV00Y6x4g8pJ618mpG8O/LIIyPub731loKPbR+TJRB3VuaZsODS0quuuiq6YZX/sMMOC9ttt12U8+CDDw5jxoyJeD/wwAPRDflFWplwIGx2Ljz55JPRD58RY9WHvGWiw2LP5ZIbb7xxnIxJa3ux668CoxNOOKFyxwNjEoVr8e5vPO6/exGwZbgRFGqVOyf7jaDnbvKGAKS8GtejnKusP/TQQ/HMvvo1zPWu9NCf0g92G8lX+nNP9pUxbDdkW+IhhxxSmalRp6rEuO4IdAoBGhIN7FnVYsWPyyRtR13tvVPyeryOAAgk21A6SDpKyDAkDzKrThNzuZfeKIq4Z+JWYSluVnshjKo7bCGH3LG9Wx08q/oQWVaVpbj9fIklloiTam+88UYkjCKS9BnIzXn9UaNGVcgsW8JZuebiQVaViZswLrroIgUbOPN92mmnhZ122qmyCo0lYZIGtodvttlmcWIBUspEAViRBgg3F3OiGFSIjFYC/x+xVlrZms+ns1jVZsICBeGGyLJKz2Qhq/+s/DOpYQcqXEDIJ7fAiKMKYKbt/eDMd98hwNptgF9NehCPzQdNqEPAWY1npwKT6kwU0IaBF8Rb/ogTjNiNoHJA2SBd6KSblft77rknTkgwicFkBZMPF154YWWAhnvwY5KGySUp5Tv/H3744Tj58MEHH0RrwiffGAuQJhTxsPvg0EMPDQ8++GCUnXzgiAXypT0xgH78UF6pJ3x5BYVMVv5+BO1eHYGGEFDbVM+xk/16CLl93hCA92kyGtko6/Qvtv9i4pz+nH6Z9phdYVL0+XbBQv2U7LtJzz3ZV2bQYbOaw2oLSgMU2bvuCHQCAdvoKH4G6WxfnTFjRupAUwNl+XPdEegUAiJOIqKsIkPOWEmWWaODSpsGiA8dLPWEhzCIS8T/oIMOitvAqQvY0VlDdCFw/McvK+gHHnhgRQ6Fv9Zaa8XVYSYGIFx2UIAbVlwhmSjsuJl/0KBB8aZ+Bgec6R8wYEBcGUYm4kNBbiHPkGOZ6Ww7dwqw8o4/yDZknRVuZOE/O3qSinAYoCQVhHiNNdaIkwXYERd4XX311bGvg+gyQD/qqKN6pZ3dBcTJGX5IN+m08hIeux3YGYACe9Io4kue8i5iCs4oVu652A8Czu4GJjDYHs+xA11+R1is5u+9996VsOUfA3YFsOsAjCDgkH3+szuDVXgp4uZ4AOZMJhAGaUAu3sGDHQX0+6zsIzP2hMkECO+EQd4yAYA7Jm8oC2DDZI/SW0uXLM3qDCapJ+z8QBGP6kuzYbo/R6AeApQz6iGK8mbrH+a0r6rbCsvJvpBwvYgIMCF+2WWXxX6HyXj6AB4muzkmRjvMfTvY0TdxjI++kZ1oTH7bOkL6k/+LiElfZM492afD56EBo7EiM2noMHPlCOQBARoNOlzNOLIKtemmm4annnoqD+K5DI5ATQQ06602lXaWtpUVXQgfxE3kRYNLAsN9Iwp3aQ9n31mlleK70dQdSCdkDsVKNyvOdvWXVVuIKDfns8pPRw+pRFEfWTVna/2IESOiGemAjDNxIMUqPdvx7co+dhB2SLgIPmacB2QAzYCDc//ICE7EAz6YM0GiM+nIgHv1U6QF/CyGrMQz+cDkggbmkEcmNlhd5yw6fR53AxCuwkYe7hxgUgR/kHreSQ+KuCHnTESwOq90JCcchC9hSE5W3plk4BgCmDGZwB0B7FSSIjwGUAykFDZ2yh/8gB/3CkiRXxxXuOmmm+LKi2RhUody9sorr8hpxFJfOWD3BJMN7J5AscOB7f7s2EBRtjhGwY4N8OQIFTsUOO5BmWBLv8ICF6UTfyrXMaAaP2llFzvSTB6CN4o8l58aQbqxI9ARBKqRfQmiesF/6gmK9oE2k7olRVtB+UbhR20aZryr7MuN/OVVJw32UXqk2/RUS5N1Vy391cyqhdMsPkn5kv+bDVf+lL5autz1V1eZY+JWfWG1MHUXDRP3HPGCD6Y9TJTTD0D2UY20+dXiLYNZ7sm+zXhm91lZkbINlMxcdwQ6gYBtRCiXkBU1YJ2Qx+N0BPqCAOXXkj780kGKKPHfDvTo/BtRycFH8j+kkVl5VrPZ0s3ZbTpnVmr51CruOdvNKjOX93G7PDfBQ265hI3z4JBcVuLZ6s/ZcFaPIZqEw+CAYzXvvfdeXLFmtp/zfRdffHFcFWDCgIvcOK8PwaXusvWdLfCs/EMWkZFz7Jjjhi3iEFS27rM6T3gQdFYZOIevG/bBx7YLwos0oSDTXAQImWYSgkkGtu1D9Fm9RrEtnZVvjjI89thjkfSCDXLzWT0UcrG7ABlZCQdL0kT6wY6dRijitYQXMysfRJpVfUj89OnTI+lm0ofJBuSyxP7UU0+NcjMxcM0110QCzgQEN/iDCfEjDyv3pIsdechDOOSFFBM1pJ+7EpjoIf/AEZ34nnnmmXhnA/7BlskI3DNJw9cQUJhxHwB3MTBBwm4Udh5QZt5///1KGm3awaKRMoy7tIf4mZCA5FvVSNjWvb87AlkjUI3sq/5r8s3KwEQwk3yW7FMXpDRZqP/oqisih/a/SDX1kIe45Q7d2mPHU8+/jbvee7Ww6vlJ2tswmqnjffVv8an2Lsxq6Un5W/2fMUHaU0sumesiazvOkIxqU3ELbpQZVu3pK7XLTOHU0vkiDP2FLvNVeSesblO5J/tkCIWJhkeVy65wdFuGeXrziQDlkwaJRkeDYt5dOQJ5RoDOTwMvyakzb3S26hyxYxs4blXO5T5N1+Cmls72Z1amIW+cueMsOivSED5digfRg4QyEQChh2izas8xGQ1SIVyQS7ZwQ/xZfd9tt90iCYYMMphguz+TBHT+bPmGrOOHbfmsBDO5gOK8PwNj3CEL4UFSRS7Zcs4N9KxUIzfknNVnzPisnxRpTiowFb7sFkAOJjHYdkg8rKQxmcEKNQqZmOBg0oKb9iG1xMWEA3LKzUknnRTlYQKELeyki8vvwIrVfdonBucaQOMP+ehbpZCHwRSTC2CCfyY92HmhlRG5ZRKECQncEh/ysVVfNyJD8JGT+Hm4a4e8AzOOUCCPFPnLhA8TFmDAqj2TpSjwIh7yApyxQyedZ599dnTDJYCsrisfiI8L+jjGoYsScUjZ5WEcUS1vYmCJn1rlVuZq68FVcfFu600iSP/rCHQEgWpkX4JobM1/6giKNpP6yNZpFG4aKdeqGzbMGECLf2wd5p34GHMhf7N10IbT7PhNYTSSftykPf2FDFnSnnrhg0HaU89/I/bwOSZnac/tYq78Ij+KvorJer6YI5WGHXa0z/RRjA/s5FSzeat4i6gXguwnK261WaAigu8ylwcBBqVqlBrpEMuTck9J0RGg3FJ+pSD1UpYMYk4HipIud7X0tIGG6gsdPLess/2bbXysMNub3SH+2mrPJX1s17ZyKW7O+z/99NPRrwYNrPrblWT+Q8j5/juDDAYArOrrgjyFRfhs0ceOrfUoBpG4J+0QO8JitZ3VY8Ky9Z5BhoglfqsNLlh1gLSyDR3Fijir8EobOOidCQa2urOdnd0MKA3KeUcmJghYadc368GD7eU2bvuuMIhDYbFiAhaskJMHxCls8KvJFfyyXR53HFsibk1iYEdZIT3kF6v9KDABe10kiBlh0p+DNZMphKlyIZ2yySWM2IMJuLN6T1khH5CfNGNOXoARRyqSijQSn82XpJvk/3rlV7jhz+a/fU+G6f8dgU4gkEb2JQ/1Q6QInZV97SCSG9v2457/emx9kfv+6GoDmg0Dufojk/XbjCxZ41MPl6T8yf/Il/bUC78V9rTpTPayE4sJenZoMRZAIRttPO0sfQq7zthxh9LkavxT44f+hC/XsENOijLBZLP6VpmXXc892bedKQWAAZIUmebKEcgLAjRMKBolBrUMRl05AkVAABJn21MIFkRNRJc02La40YFPcnCR/G/Jo8VJK7+QbVaXmNFnZV4XoeFWfrW6Kv/UQ+SHfFoii/x2iz3uGdBqRZ//DCAUt+pzclBgcdI74RAfOnHLXDJC/ixmEHHuGGBrO58DZPu9JiXwa8mi0qL0QY4xk7wyT+raIok5adegif9Km/wgJ/JrAIWs+EEnTSjZyY+Vwb4rXtpBlHT5k046hTVmkon0kX7+p+3isxglZbPhkQ7cEl/ykSy19GR5Tf7Hn70XQOEoLfrvuiPQaQSqkX3V8Wrl9Ycffoi7rTjyRBuAG1v+8csj82rpo77hp5aibVVdx21S1fNP3Glu0uyIi7hJQy139dIn/7UwqCdfMr3J/xbvau9J93n7T/rTHtJEGYDE0xfy6Mgen9Cln7R9NjvI7F0w9dJLX8Juv2effTY6JT9RyvN6/stkn3uyL7DJHC7mIaOpmK4cgbwgQIOPYlBLOWXljRlKVhldOQJ5RkCDOJVhZKUMs9LOJXRsFRfZtYM2+56WvmoDFGuGX8KHsCMDnTOKAQKK7eBsJ2dbOlu42SrO6m01RbiEkST/uKXPsKST8EVQk/IobOyxgwiDSVJJ1qS5/ls/4MyDHJizs4Bz6qSN8+0MxDnfjhvSYPMDGVCN9Hu4Jf3ygz+1S5ILHdkh95qMkJ1kVlzoyfxPXqKkvCIM+eNd+Cls4Y/7JDnnv+zl3urC2rrRZCpxSgbCAUMUacEOP8k0YC8zG0/yHRzTHnY0sPqpYw6Sz+KfDNP/OwKdQKAa2UcO2ppkO0DbQB/A3SC0vRy94TJV2iwmJ/n0JseNeDhCxGor93jwlRDccsyIFVoetmdzBwdHpThSxS6tSy65JB5P4r6Pa6+9Nlx33XUBcscFnrfccku49dZb4+QuE7zc5XLHHXfE40hc6Ml9IkyO0l6yYsudKexo4v4P7hjheBfHgJiE484PiB67fdhhxE4nzm+zS4iJZHYuzZ07Ny7OsBuI3UzstKJ9ZvKVsRy7iNilxI4kFhvZQQQJpe6zI4m7V1hBZoWaY0xMUDKBzKQnbRQTmrTJYEqbqDae9ok2KO1Ja3uwU19RS69XzuqFn7U98oEXx9kg+nxCVaQfks79NNzBA7akkUmBSZMmVdr4WumWOTvVKMOUB/oC9W/1cCmjfe7JvgYPdOac7eRTTSgy05Uj0GkEKJe2EaFxpIPgfC2dpStHoEgIqDNkoETHy23jIk+UbRRlXu7qpa3eYIGwGARJUZfwo8EnOoMpOm0GRXalV8QOWegP5Ed9BgSRsJJ9Bf60okyYco8MhIF7TQRY2YgHv1YJB+LBD4M6dBsm7uXO+tWqBdvkGSwqbuuW92oEkjxRHKRT8mIu90ojaSCdpAs5UfxPKtlhnnxPuleZSAuD+NQ+kjbJiB/MUTat/Lfx4IY0WDekjXCV9hhIyg/ukFXpUbzJuGoFgb+0h7xjcGp3nDQqW6043dwRyAKBWmSfuFRmKeu8045BkCjbHDXiM5bsroL4Mw7ngaAxIayHOzqSD+7THu7x0MOdLcmHONIe+a2lJ+XhP/d5pD0bbbRRvBQUnYk8Pdw3kny4Aybt4R6RtCeZ3uT/NOyw4+6atIeLY9MebqtPezgfn/YwGZ/2MJmT9tx9993xmAj3vlDW+HSqyL7eIf2jR4+Ok0Dgz2RTo4pxwzLLLBMngfCj/oVyrv6x0bCK7i73ZF8AM2ChonLRD8oOHOTGdUeg3QhoYC1SwGASsk8DZQeA7ZbL43MEGkFAREZu1RmyEkKnC9mXGYNAiBZlvhbZUzjSFX4tHXeEidKAk3fVK8VDew/RFvETsbf+ROSSnThxEwdhyT/+GNDauIhDYaBLLvxLDvnT1kLJGQNK/Mgffq3/ZN9FuolPcWuwnQgu4oNMhCslP/ov3WJp809+ZYZ7pcGGJXylCzdhJpnxjz/SpzDRNSli3eFW/iUnOm2n4lY81p53wuGxsuIWv5ijwFX5THhKq+xxozzlXfJGzzV+CCPt4S4F6gkr+8JKaa8RpBs7Ah1BoBrZT9YB6pfqC2Ubos1KvHVHPaO+U8eog9Qp7PFLfaT80wazqs1EJG0lx8EgXkzWEi4rtVoNR2fSjF1krJazcs4KOn0PD/eYsKrOCjtjK1bcWXnnWC+r8KzGc2cHRydZpWfFnpV7VvB5qJus6DMeY5WfHZd8FpnFGFb+9Z/JDXYFcA8LuwT4OggPuwbYPcBFoOwmuPfeewM7DCCqXH565513xp0H7EZgVwJfR2GXAivS9h3Sy5dSuAPhiiuuiF85YLdD2sMOirSH3RZpD3wp7WG3XNqTNpGAHdvq0x5NBNXSuZCWyRIR+8UXXzySc9pUtvPblX4mQjAX2Vcbn9Y+UwYJh7xF0f/U6mM6UinbGGnuyb4GATQmVBwqixqjNuLkUTkCNRGgY6MDVCNCR8XWNS6ucuUI5BkBBm22PRURZXDFt2wZmGEm4kRaKOciXVmnLa0jtzJlLUez4Rdd/mbT3S3+ICpsbYaUoOz9D0Uon92ST57OEI8KQfitsmXUvtMnQNohYhBTlOwZk9tJMxte8h0/aU/Svf/vGwJp2GJHPqU99P9pD2PbtIdJnLSHex/SHiZ9uOSVnbBJcq8JAC7vY3eB7u/RV1hIXz3F5BITBo8//nh0Kj8aq9fzXyb73JN926gwS6MVlTJlgqeluAio8bAz33SGbNHtxgaluDnZ3ZIzuLNlGDToKLVjhf+aFKB8J91mhR71K+3JKt5WhZsmu9qOVsXl4XQGARF9YtfiRGck8VgdgdoIVFvZt22QfXeyXxvHPNnU619oj/rzUA7SnnpY1JOPiQYmlTiGIXLP6j2fy+NTrNz9wD0M4n0cHznuuOMabmed7C/KodyTfYlqt/9pu5zsXHcEOoWAVkJFimi41Gk62e9Urni8jSKgyVTbptIBq1zbcOSW8t0uUlNvsGDly+N70eXPI6Z5kslOerFNGVWt7uRJZpelOxFwsl++fK/Xv9SzzwMi3Mmz9tprV87qDx48OEyZMiUe10i2pcOGDYur/I2OP5zsL8rh3JN9m6n2fVES/M0R6BwCIkAa9EGUUNI7J5nH7Ag0jgCTVQwMUFrB5922ubZMy23jMTTnsgiDlbSUFV3+tLS53UIEtBChCTNN8rarjng+OAKNIOBkvxGUiuWm0/0L49+0J21XgMYZbOPnbggugpw4cWK8j4Fc0NiDNNLGMkbBHav9qEaOEjrZX1SeC0H21WnyeQ6dvSAJMl+UHH9zBDqDgG2YOLfJp2W4cMaVI1AEBNTxSlYuTOJsHKuVamed7AudxnWwS3saD8ld5hEBJnn57BhnT5NKfULS3P87Ap1AwMl+J1DPNs60vkX9dn8kyDp8ZONTulxSyKXAVjHeYCJB7SiTqHxFoS+fX3eyvwjR3JN9RCWTyXgympsj2dqh2fNFSfE3R6AzCDDgUxmFNPG91iFDhvSYmOqMZB6rI5COAKuR2p2CS8oxZZgbijk7x03I2kqn3SvpIbbWth2DjdZK3DO0osvfMzX+L4kAN4dzsRT1hbzWcS7eNUhN+vH/jkAnEHCy3wnUs42zv/0LfX3ak630IX6tQXGwUs9lgMiDYiySHHOwss+FqHIjv7V0J/uLkMk92bcdJp9eOPjggyvSW7uKob84Ah1CQA0Qn4hZeeWVwwsvvNAhSTxaR6BvCKjsivjzWaPll18+fupIK/p0vu1uc/s7mOkbCq13XXT5W49IuUJkMMl3nGfNmhUTRn6jqE96L1eKPTVFRcDJflFzrrbc/e1f+uuf8UB/HlKGf0vqGWfwyM6OObbeeuv4KULsGmlfnexHGONP7sm+RCXzN9lkk3DooYf2KBiyd90R6AQCaqTQtQLKd18h+/bISSdk8zgdgXoI0K7SaYrQyz3fJx4wYED8LI46W9wyGdBIJ6tw+qv3dzDS3/j767/o8vc3/WX3z2dWuTmab3bT/pPfycFr2THw9BUDASf7xcinvkhZr3+pZ18vrnr+69nXCx97JkZ5NH6WH1b6tfggs0033dRX9gVGH/Xck31lNoWK7yz6amkfc9idZ4qAJUm65OzXX3+N2zr5/qjIEY0Zbq17K5hmMjGTG8q8GkLX07ebOT7N4UN5E5nnXZeM/ec//4mfvGFbHRNZlEm1xbijY3bMm8PccSsPbtSLGTNmhAULFlAtKoo8pr54Xpcnr/OYl5UCV+PFttl777132HPPPaNLxhYar8grZlKklS8LrbfeeuGKK66o+OGF/sKGKz+uOwJZIKB6R9is7J900kk9xixpcfrK/iJ0ck/2RXwWibzojULgyhHoJAJ//PFH1egtgbKdKI4hT5Aq3NChomznKcKFOX79cQyyKgOUMdpRyh/l0bapluAnB3gqr1nJ5eF6mS9CGVAbjS5l61AR0uAyFreuqczV0xlz7LrrrmGfffbp4ZS8l7LvlGEn+0LG9U4iQFlUm+pkv/mcyD3ZV9JorKQ00NR/1x2BTiOgjpIVUSmVU+xYIWWlX4otStx4fuWVV9a8tV9hyo/rjkCrEbAr9AqbXSZ2p4nM1eHy38umUHG9mxGw7T07uuwEbjfj4mnPFwKUS1b1neznK19cmvoIONmvj1EjLnJP9kWYSIw6UyXMB5xCwvVOIkBHalfjkeWHH36IIv3++++9iBFbPi+88MKw2267xQ74ww8/jG4pz4QlRZiUf38cg6zKgAg84bOSz9ZOEX3KH5NUKNwxQUX55MEtZlnJ5eF6mS9CGaBufP/992qyo642nPa8CGlwGYtb1zQxW0u356B1Zh8zmdsxtH2nbfeV/R7V2v90CAHKIg/KV/abz4Tck32SRudJhzR+/Phw5plnxm3Qyvzmk+4+HYFsEPj888/jJyK5qA/1119/RQLFlv8HH3ww8PkQPmu2+OKLh9tuu62HEF6ue8DhfzJGgLJpFYNG2tpXX301DB06NBIZlUlNAuAeMzs4tGH4uyPQLQjQ1m+//fbxNn4mx5gso/6gVG+6BQtPZ/4QEKmnLO6+++5h5MiRUUg7ISWpbXuOeyf7Qsb1TiJAWVRb6mS/+ZzIPdmn41QjtO2228bb+EkuZnbw2TwE7tMRaB4BdaaEQOfI/9deey2sssoq4aWXXoqroT/++GO4//77wwYbbBBJ/tJLLx0GDhwYtttuu6Az//Z8tF1dpZz74xhkVQZU8ulMGQBqh8rcuXPDUkstFfiOOGUTZY9S4Zb2Nyu5PFwv80UoA6zq84nKp556KtYRDUpVr4qQBpexuHVNRKiWrnKIvuOOO1bIvsopeS9l37F3si9kXO8kAirbyOBkv/mcyD3ZV9Ig/euvv34YPXp0ZfApO9cdgTwgoM7y22+/DRtuuGG44YYbwgMPPBBXfpZbbrlI9JdYYomor7jiiuGOO+6IYuOPs5+abWfCgHf9z0PaXIZyIsDWfFSyrM2ZMyesuuqq8T4JlWs78YofmZcTGU+VI1Afgc8++yysueaaPVb27aRY/RDchSPQPAK0wWmPPWKy8847B7byo7S4YNtw++5kv/k8cZ+tRcDJfmvwzD3ZVwOEvt9++4WLL764MjCVXWug8FAcgb4jQBmEKGn1E0LEef211lorrLvuunHVhy37epZZZpnKO5/CGT58eDjwwAPDiBEj4hl+OuQ99tgjjBkzJuyyyy5x6x3b7/xxDLIoAzvttFNsVylrlEWevfbaK2BOmd18883jAJHtn5RN2VNGebKQycP0sl6UMkAdoJ5QL2jPIVPUJfSipMHlLG5944b9tOeWW24JP//8cxzY6I4gxizaFWvH0PbdyX7fx4LuIxsEnOy3Btfck31myWmEeCBSbHF25Qi0GwGVQxoe1O233x7OOuuscNFFF4Wzzz47Ppdcckm49NJLw+TJk+O5fFbzl1xyyQq5Z/s+A0O2faJD6A844IBw+OGHh7Fjx8Zn//33j7tXDjvssGgnc9cX4uM4tBYHyuDEiRPDwQcfHPbdd99w0EEHxeeQQw4JU6dOjWUUM9xRNnHH5NSoUaOi7vnR2vxwPIuFJ233oYceWmnDJ0yYEMaNGxfbctp2z89i5WfZ8mv69Onhl19+iWMWTULxR7u0LMG37072I2T+kwMEnOy3JhNyT/ZJJpnNRVI0Rrxr62lrIPBQHIHaCCS3ZFL+mHDaYYcdwuDBg8Nmm20Wt+yzis/W/S233DKeK9p4443D2muvHc04m8+qqFb10QcNGhQuv/zySsTaGYCBOt3k1uqKY39xBFqEgO6MsMFRxrXyY83tu5dNi4a/dysC9s4WfblC7Xe3YuLpzg8CHCmUYgzC7hMU4w3acFtW7Tt9gJ/ZF3KudxIByiIPys/sN58TuSf7tgFqPpnu0xHoHwKW/NBRstWZC28wZ0KACSguN0Nn1lwKexoqbuZnckCr+qzsb7XVVkGdMe7wS3lnAEkYNhyF57ojkCUClGGVdSa1RGYww44BIuUSOy+fWeaEh100BHS5Jf2D6lDR0uDylhcBjmZxXNAqO7627072LUr+3kkEnOy3Bv3ck32SyQCT56GHHgrPP/98JE+2YWoNFB6KI9AbAa3ss7OEMoii7O25557xrDOER7OO2PHOQA+3toy+99578QabAmGMAAAgAElEQVT+Y445Jm6TZmUfwn/ZZZdVCBWDRB6r1NC5vnB213FoLQ6UUwi9yInKLOWQz0JycaSU3PBfdcHzo7X54XgWC0/qDueiv/vuO1WTHrrnZ7Hys2z5pfELCwncK8EF11apvcfMvoODr+xbpPy9UwioThK/r+w3nwuFIPsQKhoiGqvx48fHdzvwbD757tMRSEdApEY6ruk4t9hii7g1X75pkHBjO0zsWO3h+eCDD8Jqq60WPvroo/Dbb7/FT/FxppOLnN59990YDP55CAvlZTzC4D9tREDlnM9Grr766vHTe3ZFX6JQNr18Cg3XuxUBSP6QIUPiIgQYaLcLbbjXj24tFflJt9pzxiVs4WdlnzLKGAZlxyv2nfLrZD8/+djNklAWNSZ2st98Scg92SeT1WBtsskmcTWV5GJmG6fmIXCfjkDfEKDccf4Nsi7FwE6r/NhTbu1g75NPPglc2Pfyyy/LS+CM59133x1v768YhhBXWlXm1dC57itEWZQBlbvkjpJXXnklDBgwIHz++eeVnScqk/KDnoVMHqaX9aKUAcg+O7SeeOKJWC1sHSlKGlzO8tY321azsMDxQ1b7yXOUHUPbd+yd7Fv0/L1TCKh9In4n+83nQu7JPkmDNLFdjkvRjj322LhSaolU88l3n45AOgLMgGu1Ri4Z0A0bNizuNGHVE6KkzlNu0Ok8NfibP39+PLP/9NNPR5Ivd/Ind5hzZMCVI9AOBCjflFO1p5RDyvTjjz8eyf4XX3xRscOt3OHHDg7bIavH4QjkDYGPP/44ruzPmDGjcl+Lvecib/K6PN2FgMYXpBqiz/FDq2wbbt/x52TfIuXvnUKAsqhy7GS/+VzIPdm3DdAVV1wR5syZU0mttasY+osj0GIEbDmD+EOIuOyGbywnFXbJyQEGf2+//Xbcxj979uwKSWKGXWfqFC7+bXzJ8P2/I5AFAiIoKrv8P++88yqfbSJOyH5yB0AWsniYjkCREOCTq6zw03ajVEe8HS9SLpZTVrsQAdGH8EvRxtsyat+d7Asl1zuNgJP91uRA7sm+JU8QIxokZhxdOQLtQkCdoAZzxMvn9NgW16jizD638XMW2pUjkCcE1Jmia/IJ+eyllAwMRWKwY1IA964cgTIjQNuf9lAnqDPaIQMWqifaBVNmfDxtxUGA8UpyzKKxDamw77TtvrJfnLwts6Qan5BGX9lvPqdzT/bpSLXqpGSqM7WNk+xcdwRajYDKmZP9ViPr4XUaAUtSkIW29Y8//uglFmXfTgQ4kekFkRuUEAHa/rRHScaNdsVQp1BeR4SO63lAwMl+HnLBZegrAk72+4pYdfe5J/uIrU7z119/rWyVq54cN3UEWo+Ak/3WY+oh5gcByjfn9EVWJBnk3pqpHca93uXWdUegjAhQ1tMe0sznKXEjRZ3hv607snPdEegUAk72O4W8x9sfBJzs9we9RX4LQfZZ2WdL0QknnFD5LrkPNhdlor9li4AGcr6yny3OHnpnEKAz1W4pJKCcz5o1K17m9Msvv1SEUvmnPnj7W4HFX0qMAGU97eGCvgMPPDB+ZeX//u//fDGixGWh6Elzsl/0HOxO+Z3stybfC0P2Se6WW24ZRo0aFVPO4NQHnK0pBB5KOgJO9tPxcdviIsCWY9uOagsyZH+JJZaIn96TmSX7Wr0sbspdckegPgJpRB87vlbBp/e4jR+lusICBYNUV45AXhBwsp+XnHA5+oKAk/2+oFXbbe7JvgaYJGHzzTcPI0eOjKnB3NrVTqLbOAL9Q8DJfv/wc9/5RoDOVO2p7kd59913I4n55JNP4hZ/UmC3JTNBYCcJ8p1Cl84RaA6BemT/hx9+iPXk2WefjRGoTkD67R0XzcXuvhyB1iHgZL91WHpI7UPAyX5rsM492Vcyf/7557DvvvuGk046KV4g5URfyLieNQJO9rNG2MPvNAK2PYWkPP300/FTkd98801FNHZTabWSOmH9VBz5iyNQIgTqkf033ngjbLHFFuGZZ54Jv/32W0y56kiJYPCklAABJ/slyMQuTIKT/dZkeu7JPufgpD777LMes+XeqQoZ17NEwMl+luh62J1EQNuOWZEUgdf5/QULFoQ///yzIh5utXKJoepFxYG/OAIlQ6Ae2Se577//fky1dr5wYR/1xNaVksHiySkgAk72C5hpLnJcYBDX80/vNV8gck/2SZo6TekajDafbPfpCDSOgEiNXcncbrvten2zNi3EDz74IAwePDi89NJLac7crkkEtP1c3skr5ZvMXO+NgMq0dFz89ddfPS7sw4y217rxM/u9sXST8iFQj+xrLKKxiRDgQmFXjkCeEKhF9m3Z1YQVcrNTZb311guXXHJJJRns+kr2tW+++WZ46KGHwu+//x7d2QliSJqtQziw/TJ9ilZu5Va6dVcRIPGCf/vYsHjPWllZJa/0rOMmfOLqz9MOGdPiqCe7PQpFuRs2bFg4/vjj45HCRnD+6aefwnLLLRcef/zxKIb82DKfJl+Z7HJP9vkkFBlDpWIQilKDpI62TBniackfAmogLNlxst+efKLuU98t9rxjhp0abdoG3mkvUMkBSXukLW4s4EV7iq52ltSo7NP+WkzBWnbFTbVL7gikI0AZT3s0PqFu0CbhFr0dRCNdcrd1BHoi0AzZX2eddcLll18eA4J4qb9llxdfojjmmGPCGmusEa677roe/YYl/D2lWNinUD/aUUdUd4lLkwKkgYd62hdFWJJbYaX5x71UNb/CUm6q6ZK1li55aunVwrRm5GnaY9124t3iTBvLyv7kyZMr5bCeTE72FyGUe7K/SNQQ3nnnnfDrr79aI393BDJHQI02DY+Uk30hkb1OR6Y8IDZ1nLzrmA8dN2RV7nwisLF8AScelW3p+GYXiiX+EBsNkJJ50lhs7soRKBYCtCdpD6lhG7/aHf5rUkx6sVLs0pYVgWbIPiv7Z599dg9yRXnnM9jrr79+WH755cOQIUPCe++91wO2H3/8scf/an+S9UrETkRcfU01vzJTGPRH+JdfEVi5q6cTjg1D4dTzZ+3xnwzD2jfzrvTV0uuFKUxr6fX817OvJZfM6/lvxJ68QKEPHTo0TjCBcyPKyf4ilApB9ik4NB777LNPvKCPLXJawVuUFH9zBLJBgPKHosGUcrIvJLLXadhFSMkD3tXYK28YGOgdidTpZi9duWLgvDEEn9vF11577fD1119XEshqTiMDsIoHf3EECo4AbUraw1crNt1001hffvnll9juaIIMwuHKEcgLAs2S/WuuuSYmAZL/97//PWyyySZh2WWXjV+h4LOTDzzwQLSnb1Y/jA45s3WnGRzox/XY/r2ZsNxPbwSEbS3d5l+1994h9s2kWpjWjNDgepKPcTfb+FGY1VNO9hchVAiyL3G59faAAw6Ifxnwu3IE2oEAjQ/KyX470O4ZB5irUVeDjwvelR+soMkNAwy1DU5Me2JZ7R/YQU4gJha7OXPmxMHcRx995HhWA87NugIBO/Cs9g7Bh/A8//zzPfCgbVI71MPC/zgCHUKgGbL/t7/9LRx99NHh2muvjZ++pqzzLLPMMvHZYIMNKl+hYKKYflgLcSL+acm1/Xs1d4Sn8Vc1+3r+NemAu2rhUEfp+3BXzY210xjDylEvfPrUauHaMNLeiTPtqdYm9cUsLe5G7NJkq4ZXI2Em3YCh1Pbbbx+OPfbYynhP5rV0J/uLkMk92acyqfHYYYcdwrhx46L0rO63qjAtgsPfHIHeCKiToNGW8pV9IZGtDvaq5wyoNajGTPkie0miziFpLnvX6yMAzgzo+AKKtiNbPIV9/ZDchSNQXAQo52nPl19+GcnPjBkzKu0RqWXc4soRyBMCzZD9NddcMyy55JKxjIvos3V/iSWWiGaMg6ZMmRJXW6dOnRpOP/30cPLJJ4dp06aFE088MZx66qnx/bTTTot2Z555ZjwWcM4554Rzzz03XHDBBeHCCy8MF110UbwI8LLLLgtXXHFFuPLKK8NVV10VJxm4D+D6668PN954Y7j55pvDrbfeGm677bZw++23h7vvvjvcc889Yfr06eG+++6LuwwefPDB8PDDD8fnscceC//617/iBW0zZ84MTz75ZPysLJ/KZPfaCy+8EGbNmhWPrM2ePTu88sorYe7cueG1114Lr7/+enjrrbfC22+/HdjBw1GFDz/8MDAB/sknn8Rn3rx54YsvvghfffVVmD9/fuBTtd9++234/vvv48Mnw5kQ5LJDLjDkLgO4C8cPef7444/Uh8mItIe+Oe2hHUp7GCulPf0tv2ltJ3ZpsmEn7occ4LDtttuG4447LsrciGxO9hehlHuyj6jMrrH6dMopp8RGgRlEV45AuxCgUUI52W8X4j3joTP74Ycfwu677x4f3kVA6QBQdAp0yvqPmc2vniH6PyFAh4oCK8g8bS1YMujZf//9A52lcBTZpz7gzpUjUHYE6g1Wv/vuu3DooYdGUsAxF9UhdPUbZcfI01cMBJoh+2uttVbcsr/iiitGcr/44otXiD9b+VdaaaWw5ZZbBkg/O2+32WabsNVWW4UNN9wwbvfHLO3ZbLPNQtqz8cYbh0afjTbaKCSfen6RM+3hzoJGH3ZBJB+OwqU9HIlIe8A27dltt91C2rPffvuFtOfggw8OaQ9b5tMeJnfSHiZv0p5bbrklpD1M7tx///3hzjvvjJM7TD7BAxttW53sL2qbck/2GbxrpU4DU4mf/C9z1x2BViKghkWkh7B9Zb+VCNcOS7POuBg5cmR8eJe58oYZ+0mTJsUZefIJc28fauMqG+FHO6t32WEmUo+d2mHMdTGi3LruCJQRAcp92kOaWbWzCtKPsv2Ftfd3R6ATCDRD9iGaRxxxRGBlfvXVV49Enx1frO6z0r/TTjsFLb4lL8+mn0BRf5j8oj/GjPrBhDJ9CIt4rHSz4s3KN2GwGg5J454uHib3WSln1XzBggVxFZ0dNayoS//3v/8dd6Gx4s7KO5865o4BVuS52JuFgDfeeCOu1rNyz2T2yy+/HDiuxoo+l9Gyys+ONlb9n3766fDUU0/Fh7HFE088EXcHsEvgkUceibsG+Nwguwi4s+Cf//xn3F1w7733hrvuuiuS0zvuuCPwsAOBnQgQ15tuuinuUmC3Akcj2MWQ9rADIu1JI+LYTZgwIfUZM2ZMSHu0wFJL51N4aU/aRAZ2aRMh2K222mrxAsgVVlghXghJmWN3CErlK/6p8eNkfxEwuSf71TLVB/GLMtDfskeAzgplB29O9hfhbrdagRVb3ejQGQSzTU2KLW902mx5Q7G97dNPP42dPQ039ZoOmc6YFTMpOnm2k9OB03ijtMrMO4SU76gyi6/LgjAnPAYSUuQfF86pc2cgoQ6DMHSxloisjUNhlE0n3cn2lP/CRemF6Iv4g0vSXu5cdwTKhEAa0cdOxN7WB7U56jfKhIenpbgI1CL7SpEtr7TxlGNWvSGoKAjx+PHj46f2tLUf0n/JJZcoiEja+WPrQ8XSX9qOQL32q549+difh0mctIcxYtrD0QjGgowZGUtyGeoZZ5xRGbNoTE469E7Z1RiO8SK7Upiw6fYymXuyz8BTg1EKhR2AK3PbXoM8wq5CQJ2gLW9O9nsXAeomM+1jx46NM7J77LFHnF2HKDJjzzk+tsTttddecWb80ksvDVy4wiDkpJNOCgceeGBYZZVVwqBBg6JbyDf+2CYG3gw8zjvvvDjAVpvAhAG3BRPmcsstF4466qh4gQuXuDDLjqLhZ0WA+LhQiHCYjWZLGLPumliAzCKrBuu2remd2nKZqNO3ZZxJHE3kYC+yT8qFf7lQ8NQ4Aj0RUL2opeNaK5vyyaAS915HhIjreUCgGbLP6ip9rvpCJrdYDad/pS9npZU+nEl7FOUeJffxj/90DIFa7Vaj5owH+vNQDtKevgLDkQ/uhtAuQ/wzvtM4ReGRPsoqCzoDBgyI9zZowQJ5sNfijvyUXc892ScD6DTJKC7z4EIOlM7slj2DPH2dR4CGAWWJkJP9hfmihlwDW/7zDV4GAWeddVZciWelngEx299oeDkjBknn8huIPG7XXXfdcMghh8T/3P4LCVcDzpa7yy+/PE4gcP5MirgYZLCysMsuu8RwOGd+0EEHxTjYJieCCtHnfCFb1pjt/fzzz+OZdM4dMpiRUl7rf9l1OjxwlKKM85/dFMccc0y8bEiYKI9xixuZy6/rjkDZEKCMpz1sPeYiMrYR845irALht/1F2XDx9BQPgWbIPuSKy/O0g0WpZoce2925rwKyz3Z12z/gzvYr8ud6exFIa7sasWuvtL1jox1lkVeKsnbYYYfFHZq0tzyM5yifjBcplyzsMK5h7McuTsZ9zz33XAyCtlnlUrrCLrteCLJPJpBJw4cPj58B4b93pGUvmvlJH41issw52V+YP6qHzK7qnZl/zmOxdYpbbVlB54waW/G5rIezayjqNFvzIdyTJ0+O9pjTaIuk20m9ESNGxBX8hTEv3L4v91zywkqDbuunk1AYNOpDhw4NgwcPDv/4xz8CN/Ry1g45mGhgcgDZyWelITm4UZxl1dXxacDGUQzyjTwjn1CyEwbCSv9ddwTKhkC9ATEDTdqVV199tdLelA0DT085EGiG7NOncqYcRXtPP69+FTP6WW7Hp68XwVJfWg7Uip2Keu1XPfusU8+YIu0hfpU3dlwyruT8Ptv52XWy8sorRzPKKaSeXZvrrLNOvF+Cd8abjPEY75FWVHKsk3Ua8xJ+Ycg+BICbNvfZZ5+8YOdydAkCaiQsuXGyvzDzLQEUQaZRZmDBrD+X1dDYsqLOjaqjRo2K5/JF4vmcDQ01q/8oNfy8QzIZQGhb/Z577hlvniUfMMdeDTeX6XBm35J9hcGugiFDhsRJBUj/wIEDYweBGbfnMlNs7xbAH+F3k1KHqrLO+Uzyzcl+N5UCT2sSgXqDYc6SUk+4wEtKbZL+u+4I5AGBZsg+xIldddWUJoFZeYX0S9GX2HGBzF1vPwL12q969v2VuNXhM75jcomdJCzW8PDpxR133DFOAvDJRog9u8DZ2Xn11VfHnZ92PEe5pYzaMtvfdBbBf+7Jvm1QaKzY4svgnwG/d6pFKGLFl5EGC+Vkv3deMtMvJcLIf76Ry8wrN+hznp4HYs0Wfi5skVu2v0LAWRlDqb7zrskD8Keus7OHyQKrtMULss9kIFsLUfihMWeSkIkFzupzczDb07ntFzNu+SVeLgVEkb/EyYO/blDkHwMzYa0006ly+zLfDFb5twM48kPm8uO6I1A2BCjjaQ/HgdZYY414ezdpp82hTlE/NKFZNkw8PcVEoBmyT7/JMTn6Zcq27QOoF/a/RcXLvkWjc+9pbVcjdrRj/Xn6m3LGZDx2nEnZ4kF+FDo39DOO5EI/lMaFjONURjm/T1ikpxtV7sk+mUoGodgSzEqTlAiD/rvuCGSBgBoVlUPi8JX93khDGDVbykq9PpvCFr/Ro0fHFTBtCcQ3n7o5//zz46TA2WefHZ599tm4Ms8qu8Jh5Z+Z2hkzZoTNN988fnMWQs/t+/ZSIMg+3wTmvoCZM2fG7fp8Lubkk0+OjT2fDmL7FzpHByCzbOknHzFT52BTZfPbmpfxnbTaARrvnHPTpAd1wLa36kDLiIWnyREQApT7eg/HgphAlMI99UltmMxddwQ6iUAzZJ+JLPpolWn6AN5R0nmnrFtCxn/bn3Qy3d0cN3nUyace9rSTaY/8M95QebLlTmMSFo1oh5PKrujLv9x0W/uce7JPxiiTlLHJVShlnuuOQBYIqHGhUZJysr8QCWZJRfyEEzorAVyaxxkr3HDZGyvFkHfcs2LMTCyfRVl66aXj+XDO7rM6D4nXCj+X50HSOT/O5X5845ezWZixTYtdPop30qRJlXDYRcA3gpkU0Mw0MjABwaQAOjsP9t5773DfffcpWyvHAzBIbu2vOCrpC/miMg6mwpXkkh9qf8Gz2zrKkma5J6sOAqoHtXSNTdDtwNLWnTpRuLUj0BYEmiH79N9sjUbR7ttyzX+U+gy9M0Gs/js68J+OIVCr3WrUvL+CNxpPLXeUMbWxkkXlTeNO2eurKHzBCWXLIOGovNp2WmF2g14Isq9MUiZ3Q8Z4GvODAA0RypY/J/sL84cGV/goxyCFbNWn0WWbK6SZz9uxos7WeXCEpLPl6qOPPorPxx9/HG+0xp3O6BMeZ2KZtcUdEwU8vGOGnQgobomHiYK33347xsuN/1bRyOPv9ddfj7uEcFerk5G59V/md/JE5Zu0W1xJN22w7TyT9mXGxtPWvQioHailq04w+aV33LpyBPKGQDNk317Qp3JNPyGilbc0ujzdiYDGI5RNlVPxxu5EpHeqC0H2tcLGeVsG7GSmr+73zkw3yQYBNR4iQ8TiZH8h1rZxFfoMepndh/Brax8NLzOvwhK3aqAxww8DZswszgpTbnBnw5A9OnEQH22EBt7S5Y7wcWPjJrxaj/yVVQcLize4iNh/+eWXPbbx2wFeEtey4uPp6m4EarULMgcdJiDtahF1iPqhFafuRtBTnxcEnOznJSdcjlYhoHEIn+DTEW9xxFbFUZZwck/2NRCl49x1113DhAkTegxOy5IRno78IsDADqWyyLuT/YX5JWwW/lv4K7IIOeRdyuIns77odoBt/REucanhT9rZ/8l3hVlLT7ov43/ws7spSOOsWbPixWNMsCoPNUGCPWYyLyMmniZHAARqtQsyh+hzHIn7R5jcpC5Va4ccTUeg0wg42e90Dnj8WSDAYvDFF18cttlmm7iQo3Gmj096op17sq+Ok5V8MpNvYqNYBaTDdeUIZI2AypkaEeJzst8Y6hYzcOS/VvD5T71mIg8iiZ2wVuiY6RHB1H902gfCYycB4WCGO8z5T3g81fziVva1dMlRVh0MUKQfBWZgpU/vcSxCJB9d7tDVNkeP/uMIlBCBWu2CzKkffHrv6aef9vpQwvwvU5Kc7JcpNz0tQoBxCZ/a4x4nFGMYV70RyD3Z12CUgSUXfk2cODGmQgPQ3klyE0egtQiI4KgsErqT/d4YC6feNotMcAM5t1gusu35JoJeLVzMsK9mZ0PBXm6tud5lX0uXu7LrpB+l41FvvfVWWG655eIdCGprneyXvRR4+pII1GoXZL5gwYKw5JJLhhdffDHp1f87ArlCwMl+rrLDhWkBArTDcMPLL788DB48OIbYyNiyBVEXLojck30G9FLjxo0L06ZN01/XHYG2ICAiZBsRJ/vNQQ+G9ux3rVBE9GnI8cMjM/3HTkS0VjgalCsPk+6sfbX3pPuy/uecm21rP/zwwzih5dv4y5rjnq5GEKjWJlgz6gef+HzzzTcr7ZqtR43E4W4cgXYg4GS/HSh7HO1GgHuHbrrppkD5tsrbYYtGCLkn+4irTynYS3CSZ0x7Jsv/OQKtQ4DBHQqSKeVkX0jU1sGNBteSe7bb6z8r/NrSD2nHHIyFd+2QF9ngH9JPPDyaFJALG5ZkIS7Fh33ao3DKqtNRWkX+qJxjx38UGCnf+A/mrhyBsiOQ1jZgh+ILH7Y+qG3RLpmyY+TpKwYCTvaLkU8uZeMIaPxC+8uXnlAyazyU7nBZCLKf7DT9TEZ3FM68pFKDOpEg5HKyvzB3hI3NK8zASgNg64aBsJTs9d+6k5l0hUm4tdxVM0/GofCk4yftkbtu0ZkQob1NtrmYWyxtPnYLNp7O7kMgrW3AThNgjEn0Tl1x5QjkDQEn+3nLEZenvwjYMTlhVRu79DeOsvgvFNm3g82yZICnI/8IMKhD2YbFyX7+860MEtYjGyqbzaZVOytoW3kXUUnqEBnspURs9N91R6CbEaC+2EUI6oftL7oZG097PhBwsp+PfHApWouAHQPR5moHuPPFnjgXguyr03z00UfjLdE9k+D/HIFsEVBjonJIbE72s8XcQ1+IQD2yn8QJ9xAPHltek+7q/f/+++/DHXfcUek4Cc+u5vcn7Hpxu70jUBQE+L7zXXfdFb788suaO46KkhaXs9wIONkvd/52c+reeOONcO+998ZxT7Xxejdjo7QXguwjLN9SHD58eBg/fnzlHKkS4bojkCUC1RoPJ/tZIu5hC4F6ZN/ai+SL6DdCyDX7rZV7zrvx/swzz4RBgwYFLiBTOHY1X3VCcrruCHQjAh988EFYbbXVwsyZMyv3Wth60o2YeJrziYCT/Xzmi0vVPwQY75x55plhk002qew+5K4huzjRvxjK4Tv3ZF8DTQaXQ4cODWPHji0H8p6KwiAgYqOyiOBO9guTfYUW1JL5au8QCwg7ZZNOr69KHaK26Kusz5kzJ34//LPPPquc1U+SmGbi66t87t4RyDMCXAq12GKLheeff74ipupQxcBfHIEcIOBkPweZ4CJkgsDUqVPDgAEDKmF7G1yBovKSe7KvTGMwuuuuu4bJkydH4ZMXSFVS5C+OQIsRUBl0st9iYD24ughQ9tKeugE06EAr/MRFOX/77bfDkCFDwueff15Z2ZcbBZn8L3PXHYFuQeDbb78NK620Upg9e3blFmjqkNeNbikBxUmnk/3i5JVL2hgCLDjwXHrppWHDDTestLuMYbwN7olh7sk+4rL6BLm/5JJLwn333Rcz0cl+z4z0f9khwOAN5WQ/O4w95OoIpBF9lcukT8zpAG15Tbqx/3Gvy8VoV/msKWeQTz755MDZfSm7sk/YjYYv/647AmVD4Oeffw5TpkwJn376afjtt99i8qgX1JVa9bNsGHh6ioGAk/1i5JNL2TgC4oazZs0K55xzThyT/PnnnzEA54g9ccw92Wd2Rp2mHWySDJn3TJL/cwRai4DKmSU3vo2/tRh7aNURoOylPbSPPCLfmumWn+qhLjKlTbVt7CKbEOg0tb0fc235J2zMicuVI9DtCHA+1Cr1E9QTV45AXhBwsp+XnHA5Wo0A45GffvopBuvtbnV0c0/2EZuM1MoT/yvsLUoAACAASURBVLkB15Uj0C4E1HhoEEe8TvbbhX53x0PZS3tYWfz111/jBaaQDoh7s0qz5OjJiVWIvcg+cRCX6kWz8bk/R6DoCHBxMEqfe+KdnTGuHIG8IeBkP2854vK0AgHGIna8ojbZmrUinqKHUQiyrxWkWjPoRc8Elz/fCIjU9Ifsv/nmm2GVVVYJr732Wo/EilgRtuLp4cD/OAIpCFB+Ro4cGXbeeefw0EMPhf/85z8V10yQqlxp9V+WbHGTnczoHG0b+8svv1QIPnZ2IsGu+Mu/645A2RBIm2hTe53cLkqdZMwi+7Jh4ukpJgJO9ouZby51OgK0tzzavu9jk+p4FYLsM2hl5vzEE08MF198sa8qVc9LN80IAQ3amiH7mnV877334oVnr776ahwIWuKUJna9wabbp698lx2fBQsWhC222CLeCL766quHESNGhHvuuSf8+OOPacWqh50wsoYvvvhiOPLII3uEQ/nn03woOlQ6WFeOQJkRUN2opXO3xYEHHhhef/31eK8Q7bpWlPDjyhHICwJO9vOSEy5HqxBgDAI/nD59epg0aVIcn8AVMdcicaviKno4uSf7lhQNGzas8uk9MlKdatEzweXPNwIatDVD9pWy999/PwwePDi88MILcVCo2UfCpixrkGjjkF/XHYFaCFB2dtppp0j2+QQYz8CBA8O4cePCww8/HL755puKVzpAkXUMzz///HDKKaeE0047LRx33HHxojG+V3vGGWeEvfbaKyy11FKxA+UCMiZaubDvvPPOqxyj8rJagdZfSopALZIvc7bsU+eYHEsqrx9JRPx/JxFwst9J9D3uLBAQoWcMM2jQoEoUljdWDLv8JfdkX5lJPq233nph7733jllmz/B3eR568jNGoD9kn3LKNk9W9CH7c+fO7SUtZZyJKyYA0G2Z16DS9e5ewa+V/9wAPnz48LDssstGkr/EEktUiD+kny3+jzzySPjqq696lDtmv9dcc82w6qqrxskCwhg6dGh8eGdguP3228f/W2+9ddhmm23C+uuvH92//PLLMSyfbO0Bqf8pIQK16p3M2UED2X/yySd7pd62470s3cARaDMCTvbbDLhHlzkCOnbIosXyyy9fiY9xt49PKnDEl9yTfaSk0+RSvkMOOSSuRkGe7ApVzyT5P0egtQgwsEPZlZq+XtA3b968eGb/zjvvDDNmzAjXXXdd/JTk1KlTw7HHHhu3TFO+x44dGw444IC4NZT3/fff3x/HoGYZYAWe73wvt9xyPUj+iiuuWPm/8sorh913371yXwTtKe3nkCFDwjXXXFM560YZp/Pk3D9lHndcdqNO8/HHHw+bbrppnLhqbQ3z0ByBfCIgUl9L5xgNk2OvvPJK5b4M7drKZ4pcqm5FwMl+t+Z8edPNmBxif++994Z99tknHvfWvUV+zLBnvuee7Gs7Bp3tJ598EgemvFvi1TNJ/s8RaC0ClDeULXONkn0N/D766KNIviZPnhy3TI8aNSqerz766KPDxIkTw4QJE8JBBx0UST5kX4+TfZ/sSCsD++67b4DMs7KvbfzoSy65ZOU/9hASJpnsjihW9a+66qoeZpRzlXc6S9thslWZ3QBz5syp+bm+1tY8D80R6CwC1IW0B+lo21mAUF3R5FhnJffYHYGeCDjZ74mH/ysHArS37HDkEmyULurTOKYcqex/KgpB9kX41Ylq60b/k+8hOAL1EVCj0QzZp6zinwEh5GrmzJnhhx9+iI0T5ZrVU/sorvpSuQtHIESCsccee0Riv/TSS4cBAwYEbeVnxZ8B3n333RfJSBIv7K+++urKZTb282HWLUSGsvrUU09Fsv/pp59aa393BEqLAO1x2qOxCW242m7ebV9RWnA8YYVCwMl+obLLhW0AASZYtaAm5xrHOE8UIgv13JN9VqKSmWlXp3omx/85Aq1HQIM4O4BrdGUfaRgQclafFVbO7tdTxKcBY9pA0+3SB+LdgM93330X9txzz14r+az4P/roo5HkgwPKtpuUZbb6X3jhhT1ICu4g9ygRGfljRZ+t/++8805l9jw69B9HoKQI1GtDNDZR36A6o4WJksLiySogAk72C5hpLnJDCKgdZtys94Y8dpGj3JN9mxcMXvmEGcoz1CLj71kiILKkAR1x9YXs4/6DDz6IF/S99NJLWYrqYXcZApyp5yslbN1nVZ8z/LNmzYoEvtrMtsoyOpNPV155ZSpiIi84IlzIPrtUFE6qZ7d0BAqOAOU87aGO3XLLLfFuC90jpDrjhL/gmV8y8Z3slyxDPTkRAQg+uw3ZwYjSOF3HqhymhQgUguyTeXSqrFbxCSg60WoDWc9URyALBERs1IgQh5P9LJD2MPuKABeEjRkzJt718Nxzz4WffvopEo9ak6Eqy+hO9vuKtrvvNgTSiD52fFKVr1TwSVW2j6p+dRtOnt78I+BkP/955BL2HQHI/vXXXx8XPTivz85EzFz1RCD3ZJ/OUxnHTdDcuIiC8HvH2jMz/V82CKicOdnPBl8PtXkEIBgcDZk/f36PQNh6X21mW2UZ3cl+D8j8jyPQCwHqSdrDMRp21fClCpTGKvQVOv7SK1A3cAQ6gICT/Q6A7lFmioAWNaZNmxZWWGGFSlzaXVUx8JeQe7JPHmkln+9Ajx49OmYbmamBq+ejI5AlAipnTvazRNnDbgYBdXb4hVzoszO1wlJZRneyXwslN3cEFiJAPUl72FkzcODA8PDDD0cPjEsg/Kwu2brpeDoCnUbAyX6nc8DjbzUCtM3ww3POOScMGjQo/Pe///V2twbIhSD7kCy27d9www3x0inN2pDRrhyBrBFQOXOynzXSHn5fEaCj64tSWUZ3st8X5NxtNyJAPUl7fv755zjQfPvttysXWqqOdSNenub8IuBkP79545I1jwB3pbz88svh3HPPjW3177//3nxgJfaZe7KvbXHkgX2v9r/E+eRJ6yACGrw52e9gJnjUqQjYLcNMhvJf5dZ6lBm6k32LjL87Ar0RoJ6kPfhIjku0GNE7NDdxBDqHgJP9zmHvMWeHgHZQqR3Wfztezy724oSce7JPR0um8SgTuYTBlSPQLgQogyjbePgFfe1C3+NJQ0Ar+7SNbOFn+3C18qowZIfuZF+ouO4IVEeAepL22D5BlwazlRQ/GnxWD9lNHYH2IuBkv714e2ztQ0CLHeh8ochVbwRyT/a5ZEqdpmbMbQfbO0lu4gi0FgEGbihb7pzstxZjD605BNTJWd8qpyq31k5m6E72LTL+7gj0RoB6kvZQ1/TJPXwzVlH96x2amzgCnUPAyX7nsPeYs0FA3DB5V5EWQbKJtZih5p7sq6MF3qlTp4bp06dHpMlk7Fw5AlkjoHJmB3FO9rNG3cPPAgGVZXQn+1kg7GGWCQHqSdoD0R8xYkT45ptvKjsPSb/tK8qEh6eluAg42S9u3rnktRGA2M+YMSOMHTs2OtJXiLwN7olZ7sm+xIXcb7XVVmHChAmxI9WgVfauOwJZIaCyZhsPJ/tZoe3hZomAyjK6k/0skfawy4AA9STt+frrr8Pyyy8fL4hijMIxGpTqWRkw8DSUAwEn++XIR0/FIgQ0Jr/gggvCmmuuWbGA8HsbXIEjvuSe7GvrPtJuttlmYcyYMZUUaAtHxcBfHIEMEFCjoYaFKJzsZwC0B5k5AirL6E72M4fbIyg4AtSTtOfXX38Niy22WJg1a1ZMqT1WY8cuBYfBxS8BAk72S5CJnoSqCEyZMiVOusrStsMy63Y992RfGcR2ueHDh4fx48f3OCMne9cdgawQEEFysp8Vwh5uuxBQWUZ3st8u1D2eoiKQRvSx+/zzz8Nqq60WnnrqqZjE5Pn9oqbb5S4fAk72y5en3Z4ibdk///zz485vndXnDL/GOt2OkdKfe7KvbXEI/MYbb4R58+ZJ9qCMrhj4iyOQAQJqNJzsZwCuB9lWBFSW0Z3stxV6j6yACFBP0h6S9Pjjjwf7bWf1Exp4FjDZLnIJEXCyX8JM9SRFBD755JPw5JNPxneNcRyangjknuxL3L/++iuu6LM1Tp+4kZ3rjkCWCKjx0CCOuHwbf5aIe9hZIaCyjO5kPyuUPdyyIEA9SXvYLspnL1l40Cef7AJFWXDwdBQfASf7xc9DT0FPBOCDyfb2t99+i46cJ/bEKvdkP231XgPXnknyf45AaxFQOXOy31pcPbT2I6CyjO5kv/34e4zFQoB6kvbY1Khu6ay+7S+sO393BDqBgJP9TqDucbYbASZfXfVGIPdk34r83Xffhfnz51sjf3cEMkdAgzg7ePOV/cxh9wgyQEBlGd3JfgYAe5ClQoB6kvaQ2H//+9+VNIvoc3mwXyBcgcVfcoCAk/0cZIKL0FIE1MZyRv/777+PYcuspRGVILDck31lHJ3orrvuGqZNm1Y5qy+7EuSDJyHHCIggOdnPcSa5aA0hoLKM7mS/IcjckSNQE4Fvv/02bLzxxuGFF16ojEvUT6iu1fTsFo5AGxFwst9GsD2qtiHANv7rrrsuDB06NMapm/g18do2QXIeUe7JvsVvk002CWPHjrVG/u4IZI6ABm0axBGhr+xnDrtHkAECKstO9jMA14PsOgS++OKLsPTSS4eZM2fGHQAaYLIQYfuLrgPGE5w7BJzs5y5LXKAWIXDWWWfFr6KozVU73KLgSxFM7sk+naZutd10003D6NGjI/AyK0UueCJyjYAIkhoShHWyn+ssc+FqIKCy7GS/BkBu7Aj0AQG28C+22GLh6aefjr64SBhFX6G61ofg3KkjkBkCTvYzg9YD7hACIvWnnXZaGDx4cOWyPj6B6u1vz0zJPdmn0+RWRTLulFNOCddee218l1nP5Pg/R6D1CKjRcLLfemw9xPYioLKM7tv424u9x1Y+BLhHaK+99gp8+omBp18OVb48LkuKnOyXJSc9HUJAW/YfeOCBMH78+DjJSjvMxe6+ICyUFuq5J/tW3J9++skz0ALi721BQATJyX5b4PZIMkRAZdnJfoYge9BdhQBb+VH6chA6K0tO/LuqGOQ+sU72c59FLmCTCEDsv/766+jbjtObDK6U3nJP9rl8gVV8bY8jF+hImdHxmZtSlsncJUoEyTYivo0/d9nkAjWAgMqyk/0GwHInjkAfELBjlD54c6eOQFsQcLLfFpg9kjYiAD9Mtrs//vhjlACe6GoRArkn+4tEDTFT//vf/1ojf3cEMkdABMnJfuZQewQZI6Cy7GQ/Y6A9+K5B4Oeff45p1f1CrOzTVyQHoV0DiCc0lwg42c9ltrhQLUCAtpbP77mqjUDuyT4zNyhW8h999NHA2Qyt6OtyhtrJcxtHoP8IiCA52e8/lh5CZxFQWXay39l88NjLgcAvv/wSrr766vDll1/GBNnFCP80cDnyuCypcLJflpz0dAgBHZ3igtR77rkn7gJnnO7EXwgt0nNP9iXqn3/+GbbddtswYcIEGQXvTCtQ+EuGCIggZUn2Kcu2PBOnJrNo0Hj4z4OdZJFsJF9+cMuEGG6sPeFjLnv+M4mmsCyEVh7CkD+FiT2yoGNW7VEY1ewww97KSXiSTXKjKw50m07OxCoM/PHIjdxV82/TKX/IoTitvd5t+mWGDn42TsyUDslXLVzJVc1O4WMnd8JLdvwnfOInPqssJsnwscM96Rk4cGC48sorrdde7/JPfLNnzw5rrrlmeP/996uWmV6e+2igM86KU7rMlU79V/DCX9v2pCuduJNf3uWevEf9+uuvPfL+999/r7iJDv73Y8PASBPRcsMAQ3FjlswzuZObZHikV4/cKn/JL5T0RgczwlDh4f+PP/7Q3xie5FBdkCWrJZKnlo5bmx/40X/ST9ikwSrFh5nkS7pRHskcHdkt5oRDXJZgKx751/+s9O+//z4ss8wyYc6cObHMqExJzypeD9cR6CsCTvb7ipi7LwIC9DkXXXRRvI0feb3trZ5ruSf7DBhQdPZbbLFF5dN7mLWrQ68OnZt2CwIakKosku5WndlnAJssx4qPeHT5UxJrDfpxi1w81p91j3ktO7mrZV/LXP6SssscncG4xcza8Z4mM/aNyJ0MU/6Qq5rsmEuuWrJX81ctnqQZ4dUKE7dpdtgrH5Phyg6508LATpjxLuxrhbvqqqt2nOxzH4vdBk1aSQPtPem1xBR3v/32WwUeSB7uLAGsWIYQ/WIvBSYMDFiNraaS4bz++utxcvnSSy+tOE+SbGFecRBCZZVXZi+88EI4/vjjw6233lrJP1vGmMgWQZYf0kb6pYiHtOAWpfylHQAT65/JBOuX/9UIsQ37lVdeiV+7OfHEEwOfk5NSeUrTyUPksljb9EkW5NBEB+GDN/lh/SleJlyYiDr88MPD3XffLeOKPn/+/Mq7wq8WZ8VRRi/ffvtt/PTerFmzYgzCmQGn5Mooag/WEegTAk72+wSXOy4AArSxPH//+9/j4gUi0w/Y/rAAyWiLiLkn++rAGRDstNNO4aCDDooz/CI7bUHJI+lqBFQGRZ4Ao1Vkn7A0kLdlmjgZDGOHWrBgQVw9YhWSgSSP5KGxo37QwOEev4Slz1Pyjp0dfOJfA1PcY89DmPxXmIoLHXt07HAj2UU8MCeupFuZY6cHMx6U4pMMihO3IkK4kTvslXbSqHAICz/gRliYk0aw4V12EA7CUHjoKMLEH+6FO/5xK4W5jc/Kijlh8Cg+wpK8ioeweBduuOfdPgqH9BEGssud7NBRxKW8IVwe4hSxUroxk+zElZeVfeRDKT3okhNz0iZF3kIEreI/YUDEFRbvF198cTz6xTtYyE5+iQeyKaU8AxsUBG7IkCFxNwPxoiSXSL/yVLK/88474dhjjw36cgz2zzzzTNhwww3D2muvHSCHKNXN+Mf8KFzyXIr0Ky+RjbisvdyRFsmOmU0b/5k4UfhgIZkJi+NxO+64Y1h++eXDiy++GIMkTpWnWrriRhcWvCMz4ROP2hnMrXzWL++6WIlwyFO+nbzWWmuF3XbbrTKZQJhsmZ88eXJFTvwSjy0n5FNaXMm4m/3PLpcVV1wx5jEyaDKm2fDcnyOQFQJO9rNC1sPtFAK08TxMUq+zzjqViX/bF3RKtrzFm3uyzwBV6vHHHw+stqDswEL2rjsCWSCgsqbBMXG0iuwzEBaBIB4aKdtQYccW0TFjxoTjjjsufPrppxX3tm40km6lA520pPlP2suPJQnJOGl08cejRlhu5B87ySE7dMwVtrVHRsKyCntwqeYeO9wrjKRfG07W71aOZuPKUv7Bgwd3fGWfPJTSpAZ5rnzEDnOIZxIL5XE14vvZZ5+FkSNHhqlTp/YivZBg+SV8woZoUgZRIvaYQ9wh6iKi2mlA+bPxEh4r7NTTYcOGhXnz5kV71eULL7ww7kzTf4VHfKTrhx9+iHHrB9IokmxlxW2y3koO7ISVwoHcK07MCEvtjdxIf/vtt8N6660XOP8ohfu0B8zsTgkrm42Xd9LDJAcqOWGj+NBJh9I8ceLEsM8++8SJCoXHJ5Z23nnnsPvuu8cjGPhRe6BwarUzsm+lzo4NlQvCVZmW3sq4PCxHoFkEnOw3i5z7yysC6iPZAfvkk09GMekn1IfnVe5OyJV7sk/Hr8EJ76hqBKAT4Hmc3YGABp4iA6S6VWSfskzDpIGsEIUMMPiGbKyxxhphueWWC+ecc06PRgy5GFCqXuCXdysndQcz3GJOfDxKE8SHuLHDnR7JIb/6r3AIl3AUvuwlA3JBPORG8WHPu/xjj1vFr3BwIz/YIaOVG3eYSxEG9gpH4cs+mY6kf7mTTjgiUZhZefSfOKQIHxmUFplLT/qXudWT2Fs73rFHLqXRhsk78oATMkiRBiunzNHzQPbJM9T9998fDj300DBp0qS4Gi/zBx98MEyZMiUceOCB4bHHHovln5XyAw44IOy5555ho402CmPHjo0dPemEeEIGcQtJ33vvvcNzzz0XCSwklp0xUrwzgTZ69OhIHgmHFYKrrrqqUieuv/76wHGHo446KowYMSKMGjUqTpBUw/T555+Pq7znn3++oqiQWy6X3WyzzcINN9wQt8uzQ+3kk08On3zyScUtecUK+/jx42M8pO+UU06pTHC/++678TgAMkLiGeicddZZYd99941nFgmI+syxA9Jy7rnnRp1JD/B74403YlyUFcoScZN+ZCGeW265JWy11VbRndojlbFaOvicdNJJ4bLLLou4sOLOvTq33XZbjEvknp1J4LLrrrtGrMH8jjvuqExoCISbbropHH300WH//fePYR5xxBFxAkVtlNyxa4Py+/DDD/cq39XyRv6y1LWqrx0VYOzKEcgLAk7285ITLkerEKCt56F/krLjNpm5HkLuyT6ZpIG8Mkydqv677ghkiYAaEkiWVKvIvsKz+ty5c+OAl1W2xRZbLD4cYYHESEkmO6DkHZJEY8cjwiQ/6PgjHfKftKPhtOmUPWbUw2r+5Ib469lbeeVPOna1yDLmyQG/9Yfc1cLGXO1HtXTJrlq8hAeGPNgn00Z4kC4maxQ3bjDXf2RGhqTCDDvFa8NWGNjxVIsfM8heEhPJTP4jlw0XGQgPP9itsMIKHV/ZFy6XXHJJlAdiDQlkGzxpYSs92/OoB9x6TrquvfbaSOQZvOJ2lVVWiYQcOxSTAxtssEGl7lBX2UIPef7ggw+im88//zxOGBAuZJgV5M033zz6YXINcoqCOOOG+2KGDx8ehg4dGuN64oknor1+ILWQXrZ0f/PNNzKOOuSPm4IJhwsOkY3LZnG7/vrrV0g4xH3dddeNhJsdCUx8sK2ele2vvvoqQPa33377sMQSS4Rnn3024nPkkUfG9LPdndVlytXll18e41pqqaUCGCE34fD+3XffRZnwD/HmmAJpIl4mFJERbFT2KD9pD2leaaWVor+//e1vMV3852FyEsXRBSYRiAuSz2VKrMoTF2mW4tzl4osvHuVBJsJAbnZKkC4wVt/PVv7VVlstHHbYYT0mcAiL8t0upTJHfNrh0M7425VOj6f4CDjZL34eegp6I8A4yLbDjI1Q1cZ7vX13j0nuyb7NMAZgdvtftUF092Sdp7RdCIgw2bLYKrKvRootwy+99FJcuYMAMOhlMMwDKbvxxhsrBJKBOGRNSv/RrYIsITv1pFpdIT1p9ooDv2pAk+FjLmJr7fRez66aPWFKXou5wsSOtOK32sDahqm8s37BXOHLXDrhVSPJ2BMufm2cyXDk38qgsJEF81p2pFV5Ij/opBXCqPywdrwjA0TIypV0g50wk93KK6/ccbIvLCCqEG5W0CGk11xzTTjzzDOjqGeccUZcoed8NIrOndV6/uuMPGlhlRdFOj/66KNIGiH+kG8IrC6eIx/uvPPOsOyyy0aCrnPsXKQHCd90000rZ+vZoj1o0KAwc+bMGDbHaCDrIrIYgj9Eb+ONN473ysiMOo1CXi6Zoy6fd955QZfLsdJO3WYlm4k8yDDn5jmCgCLP//GPf8QJAo4BoJhk2GSTTWK6+U95YQWfCRGRTdIDkWeSQPUWLAmbSQMUq++QacIDD8o1Zsj48ssvRzf8YJf2gPU222wTJ1/YhYFCflbmyRN2D5CXTMiwsq/t7uis2hPfq6++GvOGOySYkNGlpNwdAKFny74UdUBtAhMGYCE85Ub1ALnboT7++ONe0YC72vZelm7gCHQAASf7HQDdo8wUAe0cIxIWCFCa9M404gIGnnuyD6Z03jwMik499dTKoFcDxQLi7iIXCAENGjXIRPRWkX3Ceu2118IxxxwTB/UMfvVopY0VM1YG33zzzfDhhx9G5CAYlH/usGD1ky3ErPxpMgyZIRtsXYaoQI4gQCIgNJKsuGHHgJ97ARg0K1zOEEOksGfQDcnR9lTqIoN4tlOzPZmdCBA0/BIvpANZiJOwITUcS0BeHt4xww75CEsDdOQjLuIkbogAZI1wefjUFWlmZRK/rPDRuJM3kCrCAg9kQ2clEDvJxdEI7MCLsDFHIRdpwAy5yRMIopTkghBiTz5oSziEByzxw7kx4kUumyYIAWnCP9hwszxxopAf4opMPLxjhkI+iKDw4NZ0Jj0VNqQCEgsW3GlCGQF/hQ1xAi/CBXPCEulnZTkPn94j31CQTVZ+33vvvbjSDFkkPay80/ajKLcQeLZws0rO7he28rMCTL5KUVYZ3LKtXFhAvigLlO277rorhkF5AmOVA/JtxowZMRjyHJLNcQARafxCMtlGTnlHoZOfTB5MmzYtEmylSfIwaQCxV77iBxnHjRsXJw8oF0zyXXfdddGL6hpyseqOO/KasgWxZ2JQkz/IAimWPMhC2olTineINGWWB5LMrgCUVsspW5jr7CN2wqaWTn6w28BOfuDvkUceifhSTzl2wM4IDcZUdplUIN9wy0QN7Z52LynP2DlAmRAehK10UyYoB6qnmtiQrnjwk5WivWEShfxAqU2wfUVWcXu4jkBfEHCy3xe03G2REGBnIOVbE/fe/vbOvUKQfcRmUMGAgbOIKDp0z9DeGeomrUdARMCWt1aRfYjswQcfXCH4rG4xAGZlH7IPgbDkn094MfDVCvMOO+wQllxyyeiGM8EQOhSDZQbamjAgDFZONRhF1xZl/EP8br/99gp4kArIh+Km3nHpGAqyyBldthNjz8onW6xFZCBErOzJL2QJEo1ioD59+vQ4SMeeMCArGsAz2OfMsvwSNuSaOFGQXsiPdj5wzlurlZAdzkHjly3MfP8aEiXiANFne7DCRi6IkRS7JyAP2EM0WXkUgSKfWC2VX1ZxIfwqE5ApCJfsyVOVGzogiAn5ij1xMHmDoh0jTUzoYEd+c85cpIcw2NItv8hFvonIgLWVi1VnJklQyM6ZapUB8hh8pAiLPN5vv/3iKjBkkDPpdJoQLAgmdpyPZys4RBByzeROKxUYkE7KHPnD+XIIPmT+hBNOiGSbfET985//DEsvvXQkl0yaoJg0YlWcCQ8U+c2EEmGwTdx+rg97azsgfAAAIABJREFU4oOcghUTPMRt3dDXoKhjnN9nVZowqTNgioxsleddbiF9hAexVZkhDMLGDXWL9GjVXm4oY/hjQob80Fl3yhXxIyvlnR0PhMVdBOQDEz6agDj77LNj2SM+kWIIOOVZ6l//+lfMQyb0cEOYTEyo3uHuqaeeirffQ/pRyEicaQ/1Bzw4828V5JfyRp5Q5pBZXyLQRAhtAuWdyQUmX5gMYcJMCty4U4DyiJzCTGWfOgVm8iN7MGuVSks7dpQf6i3pVboUv9qsVsni4TgC/UHAyX5/0HO/eUWAvpJdY/QFKG93q+dUYcg+GbjlllvGwWf1pLipI5ANAgzqUCJ2vLeK7DOghZhw9lhnhhk8QlbRedhWzKCZlUYRaqUUQgDhIwxWKa1iUI8ZK3cM8jUI1aAYsgDJwV7ndPGvwTR+WY3DTgNZEWewYEUZv6yGCiPFT9gQVnYaiLhih3/Chxzhl1V8KcLEnngJG3fsRkCJxPBOWkgvcRA3SnlD2gibeHEH0daAHXcQNuwYpKNbO/ICc/C0kwAxgv99GozwIB4ibUo37RNkBrnQNamijgf8CJNHpEfhojNhQbrJX3BBKU02TN4Vp4iazX8btvIKDJEbrLS6il/OO0PCIIaUPSYw2JINsWdilbIH0eW8Ndvbd9lll0jEKQ+UJclh09Gfd7Bh4oJOm0vjIKNMVDApo63dkN3VV1893HfffTEq0sEllpz1Z3cK9UEKEko45CuKyS8uwAMXJpxIH2RSfsgDJjv22muvWHbww+ffwEi4QbJZyUU2q8AWOZkYES7CH3dMBpEWdqYRFuWUSQpkgPCTh5B+8oKdDSjKzumnnx4nCdj+j2LXAZMd3FuAohzih4kEyjOKSTnSwQBI5Y/0ki4dZWAyhzZGk2GkHTmYXAMnKdKS9lBGiZ87A3SMgt0YlCFkIq0333xz5Qy/yjbxaUKQNoCJM7Bgcol6gKLNYxJnjz32qNQJyYXORB8TbJr0UVrVvlm3zb6npR072jYmHpmoIl6b583G6f4cgSwQcLKfBaoeZicRoP+h3WVBhEUUV7URyD3Zp0MlM9FZLWOlh3eUd6y1M9ZtWoeAypvIFyG3iuwTFmQDYgshhIxsvfXWceDL4JeH1W8N9nEvkocfERWlFhkhdpI1OfDFr4iL/FidMPFvlcKivmHHpINVqofExeQBg25NLOBO+GEm2a1/3iHzNl4bJ/aQYJG2pF/+E2/SXoN/7MFWcvKfdGo1F5mUBwqb+IUtbkmziApuSAvh4YZ4lUb5RydN8mMnK+SGNBE2ysomeyYMkubIij/iRSb8K265Rbd5JHO5k27zSG4U9+zZsyPhZ/IDpXRq0gd8kn7kty96sjywc4UdGWzLY+WX8s+uEpUHVsAh9nTsTEhw8R7/cQfZhlSrzHPWH3N2vzCJwTs7KCCT4MaxAYga/phQg5wSLjJQR1gx1m4NdsVA6CHErEYzCcIXBKTAm3iYMLHYkz6OF0CIiZ9z8kysIDsr38glcs9N/UxkIA8TLOzUIS6+AqDjO8iFPavghIEbwuWB/FLOkJX/pIe4WXVmwgKzQw45JE4sQU7ZpTFgwIBox8QIaccNl4HqSARlJe0hfaQbf+w+QR7C4V2X71Fe2a0ClkwKMFkCTqSNuwRUb3WPAO5IG7sPKAvsPGIwR9oJC0W8nOXn8j5N+FGeyXuVS+nKo2b0tLRjR9ykRfccqL43E5f7cQSyRMDJfpboetidQEBjPCa/2ZmosZjGKZ2QKa9x5p7sk3nqtFlRsitXyYFiXkF2uYqNAIM6lAgH760i+1oBVviQEAaMbPtlwKvt2wx8dRGUGrgo1P+229YjXxpQy4906hb1KBkm9gyeSTtuVAflTzrxihTLzOq14sVNtTjll3CrEWT5E1FV3sifdOWV3Mm8lnvZi9RWkw2/spd7dIsNWFbDg/CQiTBE8JOyiKzYsO079uBp06S4ITkKNykT7olbRERhEL9wwg//tduB/6xaKkzrDjvCqoYRdn1R5LHCJi0QU87Zs9rLRANbtZkAA1elG0LPUQ9IKef3WUlmFZvJYB0xAA92frBdHzLK6jCX8rESrjQRJkdIxowZEwk4kwoQeMxRTHhAoFmtZ+KANDMJgRlHHDguobBwzyo8ZF5HDjADU9LE0QTOn3PhHvFAVEkb9zNYxb0LhC+ZmeRjNwFK9YHwSD+7LS644IJ4zp8dCpBlBjmQbNJLPLgFH3ZxMBiyFwRC6EkHOOKfFXiwBw8dB0L+tIf4+PQfOOqzgYTBsQGU6j95yYBst912i2kjXu3OsPWF40Gkix0eYH7vvffGXQq6E0ATOUwE8dUEMNeOBuyQVUp1Q/+b0dPSrrjeeuutStBKCxM+SnvF0l8cgQ4i4GS/g+B71JkgoL6ahRv4IYpxie2XM4m4gIHmnuwLU3Xy/NfsvuxcdwSyRECDOpES4moV2ScsGieIiSVPDBop55AYBr6sArLiyCASOdTIJdPNAJcHYiRyhBvqj+zwS5rUIBIe9gxOJQNueE+GgRmyyR1hEy7hiURiJqywQxEOZAnCorqssCUX/yEPGjBHj/9bxcMNcdp4scfchqO8Urz8T5opXHRkwr/cYGbfhYNkxl5pwwx5JJt1o/jBhHf5wb/kBX/y064EY49SOnGr/PmfVdSICzu5kx1xKR8I16ZfbvCjNJL+pFLZIl7cEZ5mypHZpiXpt5n/kkW6tnELJ4WJHFLIgJy2L2BnCOnnsXkhPzbdMpNu3eNfsih/RLSRiXeVUYsFxJ2dBlx8J3uFL8Ku/8KY/8SddI+ZlQl3IrW84x5ZkBWFrp0x8gdeikdySseP3FkMMVc8xAEOaQ/HStiJpPs+aMekJJ9kVJyYqzzJrfRqdYEyKllV3jm6wZEDdnooTcozhdUKPS3t2Fl5wdumtRXxexiOQKsQcLLfKiQ9nDwhYMcFyKW+2tvinrlUCLJPp0qHr44+bRtyz+T5P0eg/whoEKlBJSG2kuwrfEma/M9gnIu/+O62Zi/llgE5cjGARlkZ+U/DR71R3cHMNoKQt2R8uME95vgnbMLFHw8Db8VDQ6t3/KHwJ/KiQfr/rHpoIqMKGx33kpcwiI849K4AcGuJKu5IC+7wz7vili6MFEYtXX5tJyKZCEvpRdc78YtYkf6kX9KKG9wTFkq4Yy47wkfOpKzYY2fd8o4izUojMiT9Yqc8ATPcJxVtqgiY5JIb/EtmdKVT9v3VwRslLJPhKZ3IpbRYN5Jb6SYclQObD/KDO2Fgy5AwJK+SBBi/pB03klNyW/LPCjmr1+xMsG4VtyXD2tWjcJgQSGKLLJznVzoUN+GBhwY2Ch974QAuClv2yGTN9A4exGUVdsSR9nAxHxORbL1nUpLP7JEGKxuTB4QFfooDGeWOOPmPvLLHDPc2H3hHfi7L5P4IjvThBmVxobwQfytUWtqxU/zERTqRj7wCTytTK2TxMByB/iDgZL8/6LnfvCJg+wz6EXtHVF5l7oRcuSf7djDDLD4dvRQdqytHIGsENHC0g7dWkX0bpgaWpAdzBo8iBPyn7DOQZIAJSdGgHvciAyJG6PXqh/XPYDzpXumWPMSLH5lrYNsM/lZO3kUGkmFpME28wsrKCUaYKzz823TZ8ORGYWInM7njv4igwlK8ciNzdK2mWjverR/hJjeyk465lZn4kUOyCe9kuAoPPGyHJ3PKBOESHvgmFWTLxos9shIeOlulwZf4LeYWv2SYff0PBjyEiY6cxGdJcbX4MEua204e7EiblZsLG60fm8/IDV7CHN36tfbKN+UL7kTSIfkQXmRRXLobAvfUW+WF0q04iUNhqgwIT8WpiQ3MSZ/CUrjIQry23yRM3CKjZFK4SiPx8Y4s4CCSjd+0h7TyxQe28fP5UI5B2DJFfMKGOHm36cVMaZBMyJ6U007KUCa538CayS+y4he9FSot7YqDiwmTZYn8sji0QhYPwxHoDwJO9vuDnvvNIwLqO9gNyOeFUeork/1MHuVvp0y5J/sCg86Uc4xcMERnrkyWveuOQFYIaFCnRoR4WkX2JbMG6fpvdQ3krZne1aBpQK1BZ60BL/FogE8YIg/4Uzoxwz+DVR7rnnpXre7h15oLK8xFRJFR75qcUDpwb/0rTuRA4V5m1p3SLzvcKg5hIvfCRnGSNskpN9gpTJmhkw5LoBSHwiIc/AlDzImPODQhIbdWVrlXPuAmKbcwwE7y8k44srPmxIlS2PGP+cHcygC2yfzgM2zcHq/b20mLZCRO/gsnE3SfX5VWxS+ZZW4DJF6lTenGXnlRzQ57m1brnnfCERnnv02T4sC/Nced4lIZseEqPqVF5c6mSVjKrcJRWggPpXg06QdOyEV+y6+ww73i4l1x8C63vCstSh9mUpZAI3+9B3/VwiYOhU+6caN48UM6lTbhRD2xShNplvwTFv+FE2HIP35Jv8K1YTX7Xi/9XJzIPQ3cf0Ce2DailXI0K7/7cwSEgJN9IeF6WRDQuIfPu3L5q/oM2yeVJa39TUfuyb4dIOlTSiSagYR3pv3NfvffCAIaTKphwU+ryX4jcrgbR6DVCNCG8liSRxxcdMdN9Xy2T6SN8q+60Go5PDxHII8I1CP77IDgSwS6pE99hAadeUyTy9SdCDjZ785874ZUc5nrwIEDeywYdUO6+5LG3JN9JYZvMPM5Ir4fTEdqVwnkxnVHIAsERHA0kCMOJ/tZIO1hdhoByjqz4nzjnE+osfVdbS3mqgvSOy2vx+8IZIkA5TztgeTzxZTHHnss7jbQLgvVmSxl87Adgb4g4GS/L2i52yIgwGIwixV8wnWjjTaqcEMWL+xCcRHSkrWMhSH7ADF9+vTA9lJXjkA7ERCxcbLfTtQ9rnYgYHdHaQWfeLkI8txzz+2x4i97iIxvk2tH7ngcnUYgjehjx7GBiy66KH7SMSmr+o2kuf93BDqBgJP9TqDucbYDARYnrrrqqnZEVdg4ck/2GVSKZDFbw+BUs+bSC4u+C14IBDRoUzlEaF/ZL0TWuZB1EICsqHxb4o85W5RV5mlrRfZpk63bOlG4tSNQWASoG2kPCeNuBK3o85+6gh/dw1DYxLvgpULAyX6pstMTYxDgTht2f6M0ZjHW/hpCyD3ZJ+N0GY9yzLdnCAnX24GAyJBtRJzstwN5j6PTCKjMO9nvdE54/J1AII3oY2cnvXjHjIkyxijqNzoht8fpCCQRcLKfRMT/Fx0BFiCSfFBf8tHiRNHT2Cr5c0/26TC1gk8m+vbRVmW9h9MoAhq0ifjgz8l+o+i5u7wjQLlWG4usanOZKbcX96nzxK23w3nPVZevFQhQF9Ie4uCzT1ZRP+wkgLXzd0egUwg42e8U8h5v1gjQ3qodTpL/rOMuSvi5J/sCki1xZ599drjtttt8m4ZAcb0tCDjZbwvMHkkHEVAZRwSI/Lx588Jhhx3mF/R1ME886s4jkEb0seOzjQcccEC840J1iPqj986nwCVwBBYi4GTfS0IZEaCtfeSRR8IxxxwTk2cX5cqY3mbTlHuyrxlyVphYTT300EMj2Wf23DO12Wx3f31BQAM3W958Zb8vCLrbvCOglXraVcr7nDlzwlJLLeWf3st7xrl8mSJAXUh7WE3i03tcEIXCrcYsqlOZCuiBOwINIuBkv0Gg3FnhEDjuuOPCSiutVJH7/9s795+7iuqNi6ESClTaYpF6q2lEI3ghJSiiNTFQ1JY0XlEMMUBRg1FBgo23oNFERIM1MRriDyVYWppKC4GWBsrbtIUUaNrSCG16IbWkQKyQ8B/MN5/BZ3/nnNP3Pad9z9l79t7PJOfsvWdfZq1n1qxZa65vvPFGce6TNxHI3tnXwjc4WvPmzQtf/epXI+VUqF4Ax2JcBgJy8nGE+BEuvfTS8OlPf3rg5J955pkwY8aM8PDDDw/8jh80AqNGAD2Kg8I8YwJD9ZH3xx9/PEydOjWuMi7nhbVTdO7G1lHnjL9fBwQOHjwYTj/99LB27dqi80FOPuXKwQiMEgE1REnmSEvTrZQu+hzn57LLLotbVyueYyqj6Tn6nYUn58yZE26//fb4iu7zve400m/63AiUiQDyyNZ76GGC5LRMGuqQVvbOvjIOZfaZz3wmXH311XXA1TQ2CAGUCeFknH1Vwtu3by+cfX1H320QVGalpgh0N5zSs//e9763mAcHWzbwapq5JntkCOzbty+Wk8ceeyymwarQ6HeCbJeRJe4Ptx6B7vnJctIFjFYo55qe/U996lOxUQrZROenMpqe6zt29oWkj7kiQCfET37yk/CRj3ykQ55zpbcqurJ39gGGFkbCgQMH4rkUVVWgOd12ISCnXE463A/as6+e06eeeirMnDkzrF+/Pla2OE78kGX/jEFVMvDf//636K1HzjEekXPkdteuXR07oagcIP9qxKqKbqfrMpODDFAWnn322Vge0sYwyhUhBxpNQ3PLikZaMZ2EUSZpQJeT9wR09yc/+cme0Yi6zzPpuZ39FEmf54qA5J9GraeffjqSSSNWaqvkSnvZdGXv7KN0VInKwCTOwQiUhYAUB3In2RvU2ReNOE7nnXdeGBsbU5SPRiArBBjKL4OvX4UpXZwVAybGCFSAgAxOkk6nHabxFZDlJFuAALYJuvqOO+4I119/fZwmmMod92Q/f+ELXwiXX3550ckAPNL33efYOR7G3wIBagiL2jUIuySV6YawNxQ2snf2yTgpKxQXwYbmUPLeHxkQgYmcfSrWiX4kgQxv2bKlGMafVsDIsn/GoCoZQD4x7Ehf8/aJk8wj28gvMqv7xGEIoperotvpuszkIAOUFS0GBT0ahcg55SQHGk1Dc8sK8oecXXPNNeGtb31rnFLCquTr1q3rcHrQ4awxxFRYdLvkk3iF9NzOvlDxsQ4I2Nnvn0vZO/uwQAWKImI7KLa6wciU4dmfRT9hBCaHgBwfKkB+hBPt2d+2bVuYNWtW2LhxY+EkTY4qv20EJo8AlWRq5OmLGIM7d+4seiqJl+xzrjKh5300Am1EgLLDFC0cLn4Kcvp17aMRGCUC3//+9+OuEOwMwcKqzF++7rrrwtatW4sGKObs4+wrMNc51f3puZ19oeRjzghI53oYf/9cqoWzDxvMP7rkkkvC4sWLY6tkf9b8hBEYDgJybE7G2acCpXEKZ3/27Nlh8+bN8bp7YZ3hUOqvGIGTQ4DeSWSVH734q1atCuecc0548cUXC8eeBlY5/JQJnZ9cin7LCNQfgd27d8fpWQ8++GAsN8ybVi/Ta6+9Vn8GzUHWCKC3aZj94Q9/GKZNmxbe9ra3FU4/jv/73//+8IMf/CDs378/XHXVVeHKK6+MDbjqLEsd/PTczn7W2W7iEgS8QF8CxgSn2Tv7Uko4RxdccEFYtGhRZCcdCj0Bf75lBCaNwETO/oYNG8JEPxbkY7u93/3ud7ESZm4dvfsMs+O9Rx55xD9jUJkMPPTQQzHtlStXRnnk+sknnwx/+9vforz+4Q9/iLKKzK5Zsybg1LBSP3KLXFt+XX7bLAOUAZyq3/zmN7GHn11XWJmfn8pJm/Ex76PXD0888URYuHBhlMNTTjklDudHJlPH//zzz4/3P/e5z0V7SD2iqYOfntvZn7TZ6A+UhAD2ubfe6w929s6+WGD4/oc//OHwxS9+0UP4BYqPI0dAFWDai0lv57XXXhsrTypVfrSqczz11FPjMDrO2fdzypQpMZ5K+Mwzz4xD+Vmob/r06fE55tn5ZwyqkgHkFVnFMDzrrLPi+WmnnRbOOOOMeM49fsgx8sw93uHHO1XR7XRdZnKQgbPPPjuWD2hh+DTlRHGUmxxoNA3NLSvIWKqr0dHS2ZxLp+uZ+fPnB3aK0MhCOf0ypLB3GClAZxojUxiN+Pvf/163i9Fc6gApbvjECFSAAAuiIq+33nprLAeQgGxaPnszozbOPsrnlltuCcuWLSsUTi87jjECw0UARaIgx59rhmqysv5LL70U15GgYmTPZRql6M246aabwl/+8pd4ffTo0cCPd1BCNBygpF555RX/jEGlMsAQuCNHjsRtmw4dOhT4scXpfffdF77yla9EmWZo8uHDh+NzPMs2T/w4twy7DLdZBu6///44hHrFihVxysvevXsD80dfffXVuHBfm7Ex76PXDehgbBDm59OoI0dfjbhc4/B/9rOfjVv/siI/ATtEC19jj8jJl63DERtlzpw54Ve/+lXcgtVOVIqOz3NCAHvlS1/6UiRJo8Fzoi8HWrJ39nG25HAdO3asA7O0t7Xjhi+MwJAQSFsIqRxx2NPWcN1HFmmQUsAZIqhS5R3JMRUr1zhafNM/Y1CVDKQyK9nVkUXGUh2bNnbxDNdV0e10XWZykAHKAQ29aTnR2hbo+BxoNA3NLSvS1TfeeGMceUVvPj8cf5x8evLvvPPO2ADFnP0rrrgi9uqn8ip7pntRSeyTd7/73eGnP/1px0KtknmvSSH0fawKAckux2751TaoVdGWW7rZO/sYlCidNGgIUhrncyNQBgJy1OXk48BL4VCBMkRO4XiOFO/z49m0wtU7PhqBshFAfhmRopC2jKcyKpnXc93XivfRCLQFARxpBUZvEeRcK95HIzAqBOTgsECfevU5MuX15z//eRyxpbRZnI8V+RVSPU+criXTLP43d+7cwLotDkYgRwRke2NTE/AN8Re5ljznSHcVNGXv7GNQyqhUr6qulcFVAOc024MA8qYK8Hhcpw6RFIwaqHhXjr2+QwOB3tE9H99s/DAO5eIgeU5bwaVXkVPkWDJM41VaDrh2fpWbX8Y7L7wpPyovaRmizBCcX3nlV9PyQ/bG9773vbiOyoc+9KHw61//OvzrX/8q5I8TdDVD+efNmxe3VGUba6Ydsr0qU7deeOGFsGfPnvjbsmVLPLKD0IwZM+Lik/Fj/9sGm/O0HtA9H41AVQgwZQh7RbY15dyhE4Hsnf1UqSxfvjywWrSCM1RI+DhKBDDcqCzl7KBQiJORR9rE0RJOYA7dzTffHIf861kZGek7PKt4H20UViEDahmPgvu/Icm0jjPnmLma6UgVnknll/MqaHaaLiu5yADO1ne+8524tZnKkBx963fL6ajlFB2Mvv7jH/8YfvzjH0fnXXKY2s7YIexkRa//29/+9nhk0T6G+mvxPuJZaJj5/hxZcJK4pUuXFr2k8CO5TuVcafpoBMpEQDLOrld33313kXS3XVPcaPFJ9s4+eYNCY5jpRRddFFfjp4cf5eVgBEaNgCq38dJJ9yeX4nn88cfDueeeG+69997xXnO8EcgCAQxFZFz7NYsoFpnEMKTHRz2W6FycG5UJV6hCy8e2IkBvKE7R6tWrIwSMhKF8qC5oKy7muxwE0MHYxxpJSKrESf5wyKWn6cXHKaLHnk4ztoZk2z62BcZeYbHJTZs2hQceeCA+x9bAbLVKw68CaSkNxfloBKpCAF2LTcLi7SwmybpurCWRloeqaMst3eyd/dSpv+CCC2LrJCASL8WTG6impzkIpK3X9Oyr4pQMpoYdMsk1+5SjeKg8ueYb3Eu/xbUcJ57xzxhUIQMqqcg2ARoIGIFsIbZ79+7C2See56R3kecqaHaaLiu5yAALsbIgGk4U5QKdTtDiZbnQaTqaW2aQN+wSbAoaZmnAJegofR0j/7doMM8q3HPPPXEb1f3798coGgrS+3pOjb5cqzFB93w0AlUhgB2Cs88IFYfxEcje2aeSQlmxEMnFF18cvv71r0cDM1U847PnO0agHARU+dGiuH379vCe97wnbl+G7E70K4c6p2IEBkNARt6qVavCmWeeGZjbqUaqtKFrsK/5KSNQbwQm0t3c27FjRywn9JSqwYwyhN2islRvBEx9zgj0k89+tKPb//nPf8bRKczzT3tEkWEHI5A7ApSBJUuWhNmzZxcr8qN71diVO/1l0Ze9s58CwV629Jo6GIFcEFCjk+brQxdxf/3rX6PimWxlnAufpqOZCMigU8+QHBRk+K677uoYwqmRKM1EwlwZgV4EBtHfbG0mR58vqHFMx96vOsYIDAeBQeSzX0o4+Oh6QirH/d7zfSNQNQKyXxiB+Pe//71qcrJOP3tnX84UhqYUkVofdZ01wiauFQhITql81csP48OojFsBoJmsBAHkk6AjDoqGItMAoMqUZ+Ts80wq45UQ7kSNQAkI9NPf9B6pB4nyQdmQfVICeU6i5Qj0k89+8CC76Hjpc8mu4vu97/tGoEoE0LeUAWRYHRXpyvxV0pZb2tk7+zJCU6NTCik3ME1P+xBA2RDk7HMupcP5ZCvj+HH/GYERIcBipwQZe5zL2U+TRI4l1xyP90z6vM+NQBMQOFH9nRqdTeDfPOSNwInKZzc3er87nmvuORiBuiGgUbaW386cy97Zh1w5+rt27Yp7g3ay4CsjUC0Ccvg1pxlHaOvWrXGFc1Wm4x2rpdyptx0BOfnIsJx5MEGGmTKV7jYhrJBlj6oSGj42GYHx9Lbi4Z3dV7o7IGRwNhkb81Y9ApLD8Y6DUIjsbt68uZh+0r3d6iDf8DNGoAoEZLMcOXIkLiYMDYqrgp6c08ze2ccIZXE+lNl1110X9xLFQMXYJM7BCFSNgBqjZPCxHdOVV15ZrNA8XkVs+a0655x+ioDkmLixsbEwf/78cPDgweM69mrgSt/3uRFoGgIT6W7u7du3L8ybNy/qenhX41m6XVnTMDE/+SDQTz4HoZTGqksuuaToSDt69Gh8TZ0Xg3zDzxiBKhCQL3jHHXeEq666KmikIraMbZTOHMne2Re5tNZcdNFFYeHChTHKGSlkfKwSAZQKQ/hpfNJQfnr1Z82aFVhQchiVcZX8Oe1mI0APpIw6ZFUyzArNU6ZMCYymUi8+OpdnCDo2Gx1z13YE+unvAwcOxJXMV69e3QGV5vF3RPrCCAwZgX7yOUhybBH8lre8JWjrPb2TNv4qzkcjkBsC2CU33HBDmD59emGr5EZjDvRk7+xrSAazehWhAAAQvklEQVTHj33sY2Hx4sURNwxUG5w5iJBpQA7TOczPPPNMmDlzZmA7pmFUxkbYCIwSATWcclSvDsM6cfaRZfVWonORc3Sxde8oc8TfzgWBfvr70KFD0VHCYXKZyCXX2kNHP/nshwQO/fr166MM09B77Nix+IpGKfZ73/eNQJUIYJtgt9x2223h7LPPjqTInqmSrhzTzt7ZF2jMI7r11lvDLbfcUhifrlyFjo9VIkCFiQOkXlGGQH/zm98MGzdutLNfZcY47YEQUA8OlaR6JB955JFw2WWXhcOHD0cHv1vXqhF2oAT8kBGoKQL9nCmc/QULFoRHH300cvjaa6/FNYa6y0tN2TfZDUeABlzWZmEqClNPsGGQXeoENfI2HAKz1wAEGMb/5S9/uejZd2NVb6Zm7+xriCmkU5FqTgbXNjh7M9Qx5SIgBz/t2YcC5joT+hmL5VLr1IzA8RHA0e9uEX/55ZcLfYsc6z5HG4LHx9GxzUJgEP393HPPdTDNtBfqA5eRDlh8kTECqQxjY9u2zjizTFqBgGwS1nVLbe7iAZ8UCGTv7FPZEtKWGq90W+SfTypGQPOZJZMcpYAw+AYxFitmwcm3GAHJr3r3gYKh/FpgLDX6kGee45fGtxg+s95wBPrpb4xMBfZ3JtAAnJYn3ffRCOSIgEZzqeMCGpF72TE50myajIAQQH7Tzjad66jn2n7M3tlPe/ZlmNrQbLvY5sO/FIpGnEheUUD9DEXuOxiBKhGQQYehp3NkWedp7ySyLpm1M1NlrjntshAYRIerDmDkIQHdL1ulLDqdjhE4GQTQ85JVdDrX/GxjnwyafqdsBLBPkFXZJaSvBljbKJ25kb2zL0UE2XfffXdgLqmDEcgJAZRKWjni8N95552Bnp5+xmJOfJiW9iEg+UydelCgwvztb39b9PAT1/1M+9Ayx21DQOVjvCN43H777R0jD4mjrPCOgxHIHQGma/3yl7+MMqvOCuv63HPN9IGAdOxjjz0Wli1b5hFVE4hF9s4+tONI0dp44YUXxr0UaQCwMpogV32rVATUgoji4ZyVzM8777ywfPlyO/ul5oQTO1EEJLN6T41WDzzwQFyhee/evUVDFjrYwQi0CQHKx0S/PXv2hDPOOCOsXbs26n4NiW4TRua13gisWbMm6vrnn3++6OWHI/WQ1ps7U98GBL797W+Hc845J7CQOwEf0fZKZ87Xwtkn06hw586dGxYtWhQ5kIPVyY6vjEC5CCCHKBaOyCiB1W1nzJgR2Kt8IkNRz5dLsVMzAp0IIIcM48fR19oomzZtCqeeemrYtWtX4eyr0ZW3LbudGPqqmQj009+M3mKP8tWrV0cA1DOKzWIbpZky0SSusF3YIhgZZts9rtO5+03i1bw0DwGce/Ts0qVLw/Tp0yODdARralXzOD55jmrh7MMeSoie/WuvvdaV6Mnnt98cMgLHUypbt24N73znOwO9o/2MxSGT488ZgZNCQD36epnpUvRY7ty5s2ghpxKl55KjW82FlI9NRqCf/n7ppZfC6aefHlasWFHYJW4Ia7JENI+39evXhylTpgSG8xPUYKVj8zg2R01CABv8tttui/YKfEn/urG1M5ezd/blTJGBOE8rV64sOLDBWUDhk4oRwAGiQYrAaub/+Mc/wv79++3sV5wvTn5wBDDu1KvD/uF/+tOf4jV6FtmWfPNFG4KD4+onm4sAPUt//vOfA+WFkJYRG5vNzfemcEYjL1uWscaQRnVZbpuSu+3hY8OGDbHBVf6ip1P15n32zr5aaSCdDJQx2suKY4xA+QhIqeDsp0EVJvI70S99x+dGoGwEqByRVeQ3deCRWXSt9K8cftHXLe+K99EItA0BGZgp35SX7tEy6X2fG4FcEEDvM4TfwQjUFQFsFfmGsr3rysuo6M7e2ScDqUzTCpXWcxRUapyOCiB/1whMhICcHjlF2n6Jd2gpn8jR1zsTfd/3jEDZCKBzj6db015Lj6oqO1ecXo4IyMCENg2Dtl7PMadM03gIyIaRk4StjVwrfrz3HG8EqkYAGdWIFNEiPewFJoXIm8fsnX0qTimdw4cPF603bjXvzEhfVYOAnHtVlHKCjhw5Egmys19NvjjVwRBQw2l3hcnb9Pak8WkDgB2awfD1U81HYN++fZFJ2SnUAThMqguaj4A5rDMCyKpkWHykDbuK89EI5IgAtgh2ygsvvBDJUwOsfcTO3Mre2YdcZdrNN98c7rrrrsiBK9LOjPRVPgiwaNM3vvGN8NRTT7lnP59sMSUDIMC0FBqu2IZp8eLF4cCBA3EeMhVq6uyrcWuAT/oRI9BYBP7zn/+Eyy+/PLBFJcF2SWOzurGM4SR9/vOfj/xpBG2q6xvLuBmrPQKyQ1gj6+qrr649P6NkIHtnn9ZyFBDG5vnnnx8WLFgQjVG3nI9SLPztQRFALhkuRIOUKkq23ps5c2ZYtWqVnf1BgfRzlSAgJ16Vpnryx8bGwtSpU+Nq/MTxnHouIZRrvVMJ4U7UCGSAAD2ibFu2du3aSI32ee4uLxmQahKMQA8CNE49/PDDUYaRXY1UpGff+r0HLkdkhoDWzPrud78bpk2bVoz8lhxnRm6l5GTv7KfofPCDH4y9TWmcz41Abgjs2LEjnHvuuWHdunV29nPLHNPTg4Acfm5wTmDrPZyY3bt3FyuMp85++mx8wX9GoIUI/Pvf/45b7z344IORe5WfFkJhlmuKwMaNG6Out4NU0ww02eFHP/pRmDFjRoGERoMXET4J2Tv7Gk7EPIyLL744LFmyJLzxxhsx63TP+WgEqkJALYsa/gwd27dvDzRM0duD8TfRryq6na4RSBFQj77i6O2ZNWtW3D5Scd3OvuJ9NAJtRYDtVd/1rnfFbYFVPmRo2vFvq1TUi+/169fHXtEXX3wxEq4efS9wVq98bCO1yCq+4S9+8Yswd+7cCAH+Ib6h9W+nRGTv7FNxarEQlJEWYVDF2smOr4xA+QiklSJD+fk999xzQYv0lU+RUzQCgyOAjlWDlBwVKswtW7bEhW+oUNG3useXadxKrwdPzU8ageYggO7ftm1b1PmUB03lag6H5qTJCEivI8PUAeq8QOe7M63JOd8M3rRGCrb2wYMHo/6Vbyi/sRmcTp6L7J39ybPoLxiB0SJAJanWcDtAo8XaXx8uAlSMqfx2f11yzTOpbLsi7UbK121HQGVFBihlxsEIGAEjYATKQ0CNVHL6y0s575Syd/YxMKlE1eIInG49z1uo2kSdDDzJpxYzAwMbe22ShHryKqcdPUsliTy//vrrxUI3KVdp5Zmep8/43Ai0CQE1gOHga3qh6oI24WBe64kA+l66XLLMsGjk2fZLPfO0bVRL74pvrT3RHa/7bT1m7+ynGfPEE0/EBaPSOJ8bgSoRUCti2gBFpblp06aOntAqaXTaRmA8BLrn6us5DD7mcqaOi4xCnpFhqOd9NAJtRWDDhg1Bq/CDgcqJjm3FxXzXA4FXXnklrFmzppDbelBtKo3A/yOwZ8+e8NBDD/1/hM96EMje2afCxLDEmWIv0BtuuCGe0/KoXtUerhxhBEpEAPnE6edHa/jmzZvDRz/60bBy5coSqXBSRuDEEdCQY95U7yR6FUd/9uzZgXVS0MHItRq29Kz174nj7TeahQA7r8yZMyesWLEilhHqAvWIunw0K6+byA0ySmMVuv7QoUNxjRb4ROenHRhN5N081R8B+YFLly4NH//4xwuZ1eiU+nM4PA6yd/ZTVj/wgQ+EBQsWpFE+NwKVI6DeURl5Tz/9dJg5c2a4//77K6fNBBiBiRBQZaln5KCMjY3F7ZhYaJLe/W5nn+fShgK976MRaBMCLAp1yimnhPvuuy+yrTqAC49+aZMk1JdXnH22WX311VcLZwluUlmuL3emvA0I0Al81llnFTrXurc317N39jEqNa/0E5/4RLj++utjjz5xMkx72XKMESgHASpEOT3IJC2Kzz77bNwGZNWqVeUQ4VSMwCQRkAzTm0OvzqOPPhr3rX3++eeLCrRb59oYnCTofr32COzevTtuUbl69erCTsEusW1S+6xtBQOM1mIk4tSpU+NUFOY5o9eRX/fst0IEas0kdgu/n/3sZ+F973tftFW4Rn5tn3RmbfbOPuTKEL3pppvC8uXLIweK62THV0agXATSChGZZCsm5m8uWbIkMI/IwQjUAYF0iD4yjZP/rW99Kw7jF/04+9a7QsNHIxCirr/mmmuirtcIL8oSDWYORiB3BNDnTNVixKw6LiS7brDKPfdMHwhgl6xbty587Wtfi4DIJrez3ykftXD2O0n2lRHIBwGGC2nIkBwmXWv4M0pnvF8+nJiSNiKgCjE17JBfOfXcdyt5GyXDPA+CgFZ+TheypOwcO3ZskNf9jBGoHAHZK1q9fP/+/ZXTZAKMwKAIoHtx+BUkz7r28U0E7OxbEozAEBBInSY5Snx2PCdf8UNI2p8wAieNQCqrfIQGKzkwXKcVpxz/k07MLxqBhiGQlg/KTnd5ahi7ZqdhCDAaRQ29arCSLcMoRQcjkDMCyCoyjB6W7nXnxPFzzM7+8XFxrBEYCAFVkMzVT8PRo0fjpZz68Y7pOz43AmUjwJBNKklVkKmBR++kenugi2cl72XT6fSMQK4IqBdfTpLqAh1zpdt0GQEN2WclfoJk2MgYgbohcPjw4UgyMqwGrLrxMEp67eyPEl1/u3UIoGgOHDgQmMe5bds29+y3TgLqzbCMv71794aFCxeGI0eOFBWnnf16562pHz4CL7/8cli8eHFgBxYFzRnVtY9GIFcEsFfYcWXRokWxd1S9pG6oyjXHTFeKgNYRWrt2bVxjCHmmQ+L1119PH/N5CMHOvsXACEwCARwgKkh6RxnGiaGHk8++tffcc4+d/Ulg61dHjwCyq7Um0tRYXfy0004L+/btK+bD0VqeDltOn/e5EWgjAjt37gzTpk0L9957bzGMFGOTRVrdu9RGiagfz+h6tt5D1zsYgbohgM194403hne84x0dUxDrxseo6bWzP2qE/f3WIKAeHXpF58+f75791uR8MxilwUo9+2NjY+HSSy8NDI1LF79pBqfmwggMBwGGP1NOtmzZEhvC7OAPB1d/pRwE0O1PPvlkuPDCC+OIRFKVHaPpKeVQ4lSMwIkjoI6KZcuWhSuuuKKQXUamyJY58a828w07+83MV3NVIgJSKmmvJ0PjCAwrmuhXIplOygj0ICDZ5UiPJLKqcPDgwdjrn8bpno9GwAi8iQDbVCrI2afhjJ+DEagDAjt27CjIlAMlWS5u+MQIZIZAKqPYKwqya3Tto4fxWwaMwKQQkCOEcqGSRPlovhvnEzn6endSBPhlIzAJBLTgXtpQhfwez1FBnonn2bSSnUTyftUI1BoB9X6mxiX1QHpdawZNfGsQSOsAmO6+bg0QZrRWCLCosOwVjrJpasVECcS6Z78EkJ1EcxHo58z3u99cZMxZHRDoJ5/97teBR9NoBIyAETACvQhYv/di4pj6IGD5HTyv7OwPjpWfNAI9CPRTNv3u93zQEUagRAT6yWe/+yWS6qSMgBEwAkZgiAhYvw8RTH+qdAQsv4NDbmd/cKz8pBHoQaCfsul3v+eDjjACJSLQTz773S+RVCdlBIyAETACQ0TA+n2IYPpTpSNg+R0ccjv7g2PlJ41ADwL9lE2/+z0fdIQRKBGBfvLZ736JpDopI2AEjIARGCIC1u9DBNOfKh0By+/gkP8fEGTUJpmZP24AAAAASUVORK5CYII=;" vertex="1" parent="1">
          <mxGeometry x="60" y="100" width="1019" height="588" as="geometry" />
        </mxCell>
      </root>
    </mxGraphModel>
  </diagram>
</mxfile>
